<?xml version="1.0" encoding="UTF-8"?>
<svg width="25px" height="25px" viewBox="0 0 25 25" version="1.1" xmlns="http://www.w3.org/2000/svg" xmlns:xlink="http://www.w3.org/1999/xlink">
    <!-- Generator: Sketch 53 (72520) - https://sketchapp.com -->
    <title>icon/服务详情/alert_rules</title>
    <desc>Created with Sketch.</desc>
    <g id="icon/服务详情/alert_rules" stroke="none" stroke-width="1" fill="none" fill-rule="evenodd">
        <g id="alert-rules" fill="#525252">
            <path d="M17.7578399,19.3534797 C16.3096909,20.4645926 14.4975937,21.125 12.53125,21.125 C10.6458274,21.125 8.90221694,20.5178297 7.48528182,19.4883522 L6.01021143,21.9375 L3.57271143,21.9375 L5.92636386,18.0295899 C4.68455362,16.5394916 3.9375,14.6226127 3.9375,12.53125 C3.9375,7.78505293 7.78505293,3.9375 12.53125,3.9375 C17.2774471,3.9375 21.125,7.78505293 21.125,12.53125 C21.125,14.5368834 20.4379376,16.3820447 19.2863378,17.8442091 L21.7516412,21.9375 L19.3141412,21.9375 L17.7578399,19.3534797 Z M12.53125,19.3263081 C16.284057,19.3263081 19.3263081,16.284057 19.3263081,12.53125 C19.3263081,8.77844302 16.284057,5.73619186 12.53125,5.73619186 C8.77844302,5.73619186 5.73619186,8.77844302 5.73619186,12.53125 C5.73619186,16.284057 8.77844302,19.3263081 12.53125,19.3263081 Z M13.3851162,12.2316282 L16.1864442,12.2316282 C16.6718186,12.2316282 17.0652923,12.6251018 17.0652923,13.1104762 C17.0652923,13.5958505 16.6718186,13.9893242 16.1864442,13.9893242 L12.5062682,13.9893242 C12.0208938,13.9893242 11.6274202,13.5958505 11.6274202,13.1104762 L11.6274202,8.07311408 C11.6274202,7.58773972 12.0208938,7.19426606 12.5062682,7.19426606 C12.9916425,7.19426606 13.3851162,7.58773972 13.3851162,8.07311408 L13.3851162,12.2316282 Z M2.91449228,8.08159111 C2.76748243,7.66504498 2.6875,7.21686294 2.6875,6.75 C2.6875,4.540861 4.478361,2.75 6.6875,2.75 C7.13925232,2.75 7.57351344,2.82488875 7.97854598,2.96292888 C5.75120015,4.0246187 3.95289183,5.84112987 2.91449228,8.08159111 Z M17.0580876,2.95064242 C17.4526307,2.82045068 17.874338,2.75 18.3125,2.75 C20.521639,2.75 22.3125,4.540861 22.3125,6.75 C22.3125,7.18816198 22.2420493,7.60986932 22.1118576,8.00441242 C21.0640784,5.79079357 19.2717064,3.99842158 17.0580876,2.95064242 Z" id="Combined-Shape"></path>
        </g>
    </g>
</svg>