<?xml version="1.0" encoding="UTF-8"?>
<svg width="100px" height="60px" viewBox="0 0 100 60" version="1.1" xmlns="http://www.w3.org/2000/svg" xmlns:xlink="http://www.w3.org/1999/xlink">
    <!-- Generator: Sketch 53 (72520) - https://sketchapp.com -->
    <title>img/应用详情/api_filter</title>
    <desc>Created with Sketch.</desc>
    <g id="img/应用详情/api_filter" stroke="none" stroke-width="1" fill="none" fill-rule="evenodd">
        <g id="过滤" transform="translate(7.000000, 1.000000)" fill="#A972CC">
            <g id="Group" transform="translate(0.515361, 0.511010)">
                <path d="M6.25038259,9.31082141 C6.25038251,9.31054964 6.25038248,9.31027786 6.25038248,9.31000609 C6.25038248,7.61185209 7.6387265,6.23522902 9.35133907,6.23522902 C11.0639516,6.23522902 12.4522957,7.61185209 12.4522957,9.31000609 L12.4522956,9.31041375 C12.4522957,9.31068552 12.4522957,9.3109573 12.4522957,9.31122907 C12.4522957,11.0093831 11.0639517,12.3860064 9.35133915,12.3860061 C7.63872658,12.3860061 6.2503823,11.0093831 6.25038256,9.31122907 L6.25038259,9.31082187 Z M0.048453043,18.5351147 C0.048453043,16.8369607 1.43679707,15.4603377 3.14940964,15.4603377 C4.86202221,15.4603377 6.25036623,16.8369607 6.25036623,18.5351148 C6.25036623,20.2332688 4.86202221,21.6098921 3.14940964,21.6098919 C1.43679707,21.6098919 0.0484527844,20.2332688 0.048453043,18.5351152 Z M9.35134463,24.6846797 C9.35134456,24.6844079 9.35134452,24.6841362 9.35134452,24.6838644 C9.35134452,22.9857104 10.7396885,21.6090873 12.4523011,21.6090873 C14.1649137,21.6090873 15.5532577,22.9857104 15.5532577,24.6838644 L15.5532577,24.684272 C15.5532578,24.6845438 15.5532578,24.6848156 15.5532578,24.6850874 C15.5532578,26.3832414 14.1649138,27.7598647 12.4523012,27.7598644 C10.7396886,27.7598644 9.35134435,26.3832414 9.3513446,24.6850874 L9.35134463,24.6846802 Z M3.14942054,46.2081029 C3.14942054,44.5099489 4.53776457,43.1333258 6.25037713,43.1333258 C7.9629897,43.1333258 9.35133373,44.5099489 9.35133373,46.208103 C9.35133373,47.906257 7.9629897,49.2828803 6.25037713,49.2828801 C4.53776457,49.2828801 3.14942028,47.906257 3.14942054,46.2081034 Z M6.25038259,35.4463925 C6.25038259,32.8991642 8.33289863,30.8342296 10.9018148,30.8342296 C13.4707309,30.8342296 15.5532469,32.8991642 15.5532469,35.4463925 C15.5532469,37.9936208 13.4707309,40.058555 10.9018148,40.0585554 C8.33289863,40.0585554 6.25038297,37.9936208 6.25038259,35.4463918 Z" id="Combined-Shape"></path>
                <path d="M34.4846393,22.9889902 C34.4846393,21.6082771 35.6039262,20.4889902 36.9846393,20.4889902 C38.3653524,20.4889902 39.4846393,21.6082771 39.4846393,22.9889902 C39.4846393,24.3697033 38.3653524,25.48899 36.9846393,25.4889902 C35.6039262,25.4889902 34.4846395,24.3697033 34.4846393,22.9889898 Z M44.585596,40.6397673 C42.8729834,40.6397673 41.4846391,39.2631442 41.4846394,37.5645826 C41.4846393,37.5643108 41.4846393,37.564039 41.4846393,37.5637673 C41.4846393,35.8656133 42.8729833,34.4889902 44.585596,34.4889902 C44.585596,34.4889902 44.585596,40.6397673 44.585596,40.6397673 Z M80.4846394,23.4891227 C80.4846393,23.488946 80.4846393,23.4887693 80.4846393,23.4885925 C80.4846393,22.3842417 81.3800688,21.4889902 82.4846393,21.4889902 C83.5892098,21.4889902 84.4846393,22.3842417 84.4846393,23.4885925 L84.4846392,23.4888576 C84.4846393,23.4890344 84.4846393,23.4892111 84.4846393,23.4893879 C84.4846393,24.5937387 83.5892098,25.4889904 82.4846393,25.4889902 C81.3800689,25.4889902 80.4846392,24.5937387 80.4846394,23.4893879 L80.4846394,23.489123 Z M65.4846394,29.4891227 C65.4846393,29.488946 65.4846393,29.4887693 65.4846393,29.4885925 C65.4846393,28.3842417 66.3800688,27.4889902 67.4846393,27.4889902 C68.5892098,27.4889902 69.4846393,28.3842417 69.4846393,29.4885925 L69.4846392,29.4888576 C69.4846393,29.4890344 69.4846393,29.4892111 69.4846393,29.4893879 C69.4846393,30.5937387 68.5892098,31.4889904 67.4846393,31.4889902 C66.3800689,31.4889902 65.4846392,30.5937387 65.4846394,29.4893879 L65.4846394,29.489123 Z M53.4846394,31.489189 C53.4846393,31.4889239 53.4846393,31.4886588 53.4846393,31.4883937 C53.4846393,29.8318674 54.8277836,28.4889902 56.4846393,28.4889902 C58.141495,28.4889902 59.4846392,29.8318674 59.4846392,31.4883937 L59.4846392,31.4887914 C59.4846393,31.4890565 59.4846393,31.4893216 59.4846393,31.4895867 C59.4846393,33.146113 58.1414951,34.4889904 56.4846393,34.4889902 C54.8277836,34.4889902 53.4846391,33.146113 53.4846394,31.4895867 L53.4846394,31.4891895 Z M26.4846394,34.489189 C26.4846393,34.4889239 26.4846393,34.4886588 26.4846393,34.4883937 C26.4846393,32.8318674 27.8277836,31.4889902 29.4846393,31.4889902 C31.141495,31.4889902 32.4846392,32.8318674 32.4846392,34.4883937 L32.4846392,34.4887914 C32.4846393,34.4890565 32.4846393,34.4893216 32.4846393,34.4895867 C32.4846393,36.146113 31.1414951,37.4889904 29.4846393,37.4889902 C27.8277836,37.4889902 26.4846391,36.146113 26.4846394,34.4895867 L26.4846394,34.4891895 Z M76.4846394,33.4891227 C76.4846393,33.488946 76.4846393,33.4887693 76.4846393,33.4885925 C76.4846393,32.3842417 77.3800688,31.4889902 78.4846393,31.4889902 C79.5892098,31.4889902 80.4846393,32.3842417 80.4846393,33.4885925 L80.4846392,33.4888576 C80.4846393,33.4890344 80.4846393,33.4892111 80.4846393,33.4893879 C80.4846393,34.5937387 79.5892098,35.4889904 78.4846393,35.4889902 C77.3800689,35.4889902 76.4846392,34.5937387 76.4846394,33.4893879 L76.4846394,33.489123 Z" id="Combined-Shape"></path>
                <path d="M21.3819512,56.2110921 L37.8383307,47.4456951 L37.8383307,40.5228971 L34.484173,40.5228971 L34.484173,43.7187681 L24.421682,49.4713154 L24.421682,7.92513259 L34.484173,13.6776799 L34.484173,18.1518809 L37.8383307,18.1518809 L37.8383307,10.0809296 L21.4243337,0.336660043 C20.9256843,0.0406337533 20.2814723,0.204892277 19.985446,0.703541724 C19.8891498,0.86575052 19.8383307,1.05090577 19.8383307,1.23954474 L19.8383307,55.2843565 C19.8383307,55.8642555 20.3084317,56.3343565 20.8883307,56.3343565 C21.0604879,56.3343565 21.2300043,56.2920257 21.3819512,56.2110921 Z" id="Path"></path>
                <path d="M48.0299738,53.1243643 L62.4846393,45.3907975 L62.4846393,39.209728 L59.5031657,39.209728 L59.5031657,42.0631842 L50.5587293,47.1993872 L50.5587293,10.104581 L59.5031657,15.240784 L59.5031657,19.2356063 L62.4846393,19.2356063 L62.4846393,12.0293998 L48.0724085,3.43529497 C47.5743395,3.13829321 46.9298072,3.30129048 46.6328055,3.79935954 C46.5358347,3.96197867 46.4846393,4.14779227 46.4846393,4.33712879 L46.4846393,52.1985438 C46.4846393,52.7784427 46.9547403,53.2485438 47.5346393,53.2485438 C47.707454,53.2485438 47.8775972,53.2058892 48.0299738,53.1243643 Z" id="Path-Copy"></path>
            </g>
        </g>
    </g>
</svg>