<?xml version="1.0" encoding="UTF-8"?>
<svg width="100px" height="60px" viewBox="0 0 100 60" version="1.1" xmlns="http://www.w3.org/2000/svg" xmlns:xlink="http://www.w3.org/1999/xlink">
    <!-- Generator: Sketch 53 (72520) - https://sketchapp.com -->
    <title>img/应用详情/api_add</title>
    <desc>Created with Sketch.</desc>
    <g id="img/应用详情/api_add" stroke="none" stroke-width="1" fill="none" fill-rule="evenodd">
        <g id="Group-4-Copy" transform="translate(49.500000, 30.500000) rotate(-90.000000) translate(-49.500000, -30.500000) translate(34.000000, -17.500000)" fill="#A972CC">
            <path d="M12.1881221,13.6477647 L12.1881221,3.25016589 C12.1881221,1.45514884 13.6432709,-4.10008691e-13 15.438288,-4.1033843e-13 C17.233305,-4.10668169e-13 18.6884539,1.45514884 18.6884539,3.25016589 L18.6884539,13.6477647 C25.6541068,15.1403225 30.876576,21.3319386 30.876576,28.7433278 L30.876576,44.9045093 L-1.98951966e-13,44.9045093 L-1.98951966e-13,28.7433278 C-1.99859599e-13,21.3319386 5.22246915,15.1403225 12.1881221,13.6477647 Z M11.3755806,83.1826809 C5.74097525,81.535638 1.62508295,76.3300976 1.62508295,70.1632391 L1.62508295,56.2432795 L7.40315564,56.2432795 L7.40315564,48.7344165 C7.40315564,47.5377385 8.37325487,46.5676393 9.56993291,46.5676393 C10.7666109,46.5676393 11.7367102,47.5377385 11.7367102,48.7344165 L11.7367102,56.2432795 L17.5147829,56.2432795 L17.5147829,48.7344165 C17.5147829,47.5377385 18.4848821,46.5676393 19.6815601,46.5676393 C20.8782382,46.5676393 21.8483374,47.5377385 21.8483374,48.7344165 L21.8483374,56.2432795 L28.7500829,56.2432795 L28.7500829,70.1632391 C28.7500829,76.7331992 24.0785276,82.2120591 17.8759124,83.4593233 L17.8759124,92.747842 C17.8759124,94.542859 16.4207636,95.9980079 14.6257465,95.9980079 C12.8307295,95.9980079 11.3755806,94.542859 11.3755806,92.747842 L11.3755806,83.1826809 Z" id="Combined-Shape"></path>
        </g>
        <path d="M97.1464215,25.6315789 L86.2072201,25.6315789 C84.6603566,18.4124853 78.2434626,13 70.5624149,13 L53.0934986,13 L53.0934986,8 L69.2546801,8 C76.6660693,8 82.8576854,13.2224692 84.3502432,20.1881221 L94.747842,20.1881221 C96.542859,20.1881221 97.9980079,21.6432709 97.9980079,23.438288 C97.9980079,24.2835726 97.6753248,25.0534905 97.1464215,25.6315789 Z M41.7547284,14.6842105 L26.528396,14.6842105 C20.1371604,14.6842105 14.7422199,18.9498569 13.0352503,24.7894737 L2.92913701,24.7894737 C2.89471637,24.7894737 2.86041631,24.78999 2.82624416,24.7910152 C2.31239373,24.2161805 2,23.4574452 2,22.6257465 C2,20.8307295 3.45514884,19.3755806 5.25016589,19.3755806 L14.8153269,19.3755806 C16.4623699,13.7409752 21.6679103,9.62508295 27.8347688,9.62508295 L41.7547284,9.62508295 L41.7547284,14.6842105 Z" id="Combined-Shape" fill="#A972CC" transform="translate(49.999004, 16.815789) scale(-1, 1) translate(-49.999004, -16.815789) "></path>
    </g>
</svg>