<?xml version="1.0" encoding="UTF-8"?>
<svg width="1060px" height="192px" viewBox="0 0 1060 192" version="1.1" xmlns="http://www.w3.org/2000/svg" xmlns:xlink="http://www.w3.org/1999/xlink">
    <!-- Generator: Sketch 53 (72520) - https://sketchapp.com -->
    <title>img/调用跟踪-bg</title>
    <desc>Created with Sketch.</desc>
    <g id="img/调用跟踪-bg" stroke="none" stroke-width="1" fill="none" fill-rule="evenodd">
        <rect id="Rectangle" opacity="0.537667411" x="0" y="0" width="1060" height="192"></rect>
        <g id="Group-12" transform="translate(4.000000, 15.000000)">
            <g id="Group-10" transform="translate(661.000000, 0.000000)">
                <path d="M41,110.5 L41,135 L29,135 L29,110.5 L41,110.5 Z M58,110.5 L58,135 L46,135 L46,110.5 L58,110.5 Z M24,110.5 L24,135 L12,135 L12,110.5 L24,110.5 Z M160,114.557861 C153.979581,118.483264 150,125.276891 150,133 C150,133.674179 150.030325,134.341276 150.089686,135 L148,135 L148,101.177941 C148.027199,101.118768 148.054143,101.059454 148.080831,101 L160,101 L160,114.557861 Z M177,111.570669 C175.393704,111.19736 173.7199,111 172,111 C169.55278,111 167.198886,111.399576 165,112.137045 L165,96.2306404 C167.564215,97.9783026 170.662792,99 174,99 C175.025388,99 176.028248,98.9035433 177,98.7192084 L177,111.570669 Z M193.910314,135 C193.969675,134.341276 194,133.674179 194,133 C194,124.450629 189.123352,117.04026 182,113.398838 L182,108 L194,108 L194,135 L193.910314,135 Z M109,80.9024034 C107.093022,84.1602688 106,87.9524899 106,92 C106,96.0475101 107.093022,99.8397312 109,103.097597 L109,135 L97,135 L97,69 L109,69 L109,80.9024034 Z M126,113.910314 L126,135 L114,135 L114,108.971352 C117.321594,111.714526 121.462132,113.501385 126,113.910314 Z M143,108.093592 L143,135 L131,135 L131,113.797163 C135.606935,113.169007 139.760089,111.114663 143,108.093592 Z M177,67.2807916 C176.028248,67.0964567 175.025388,67 174,67 C170.662792,67 167.564215,68.0216974 165,69.7693596 L165,55 L177,55 L177,67.2807916 Z M80,98 L92,98 L92,135 L80,135 L80,98 Z M63,115 L75,115 L75,135 L63,135 L63,115 Z M199,82 L211,82 L211,135 L199,135 L199,82 Z M216,53 L228,53 L228,135 L216,135 L216,53 Z M233,71 L245,71 L245,135 L233,135 L233,71 Z M250,84 L262,84 L262,135 L250,135 L250,84 Z M267,94 L279,94 L279,135 L267,135 L267,94 Z" id="Combined-Shape" fill="#CCCCCC"></path>
                <polyline id="Path-2-Copy" stroke="#525252" stroke-width="2" points="66 71 129.5 91 172.5 135 256 34 306 62 382 92.1"></polyline>
                <g id="Group-11" transform="translate(33.000000, 74.500000) scale(-1, 1) translate(-33.000000, -74.500000) translate(0.000000, 44.000000)" fill="#525252">
                    <circle id="Oval" cx="12" cy="11" r="3"></circle>
                    <circle id="Oval-Copy-17" cx="12" cy="22" r="3"></circle>
                    <rect id="Rectangle" stroke="#525252" stroke-width="2" x="22" y="9" width="4" height="37"></rect>
                    <rect id="Rectangle-Copy-48" stroke="#525252" stroke-width="2" x="32" y="9" width="4" height="37"></rect>
                    <rect id="Rectangle-Copy-49" stroke="#525252" stroke-width="2" x="42" y="9" width="4" height="37"></rect>
                    <path d="M55,14 L66,14 L66,44 L55,44 L55,14 Z M57,16 L57,42 L64,42 L64,16 L57,16 Z" id="Combined-Shape"></path>
                    <path d="M62,11.1500272 C61.5153351,11.0516454 61.0136988,11 60.5,11 C59.9863012,11 59.4846649,11.0516454 59,11.1500272 L59,2.5 L8,2.5 C5.23857625,2.5 3,4.73857625 3,7.5 L3,47.5 C3,50.2614237 5.23857625,52.5 8,52.5 L59,52.5 L59,46.8499728 C59.4846649,46.9483546 59.9863012,47 60.5,47 C61.0136988,47 61.5153351,46.9483546 62,46.8499728 L62,55 L46,55 L46,61 L43,61 L43,55 L40,55 L40,61 L37,61 L37,55 L34,55 L34,61 L31,61 L31,55 L28,55 L28,61 L25,61 L25,55 L22,55 L22,61 L19,61 L19,55 L16,55 L16,61 L13,61 L13,55 L8,55 C3.581722,55 5.41083001e-16,51.418278 0,47 L0,8 C-5.41083001e-16,3.581722 3.581722,8.11624501e-16 8,0 L62,0 L62,11.1500272 Z" id="Combined-Shape"></path>
                </g>
                <polyline id="Path-5" stroke="#CCCCCC" stroke-width="1.5" points="128 92 174 83 172 133 250 158.935804 256 34 301 7 306 62"></polyline>
                <circle id="Oval-Copy-7" stroke="#525252" stroke-width="2" fill="#FFFFFF" cx="128" cy="92" r="11"></circle>
                <circle id="Oval-Copy-14" stroke="#525252" stroke-width="2" fill="#FFFFFF" cx="306" cy="62" r="11"></circle>
                <circle id="Oval-Copy-12" stroke="#525252" stroke-width="2" fill="#FFFFFF" cx="172" cy="133" r="11"></circle>
                <circle id="Oval-Copy-13" stroke="#525252" stroke-width="2.4" fill="#FFFFFF" cx="255" cy="35" r="19"></circle>
                <circle id="Oval-Copy-11" stroke="#525252" stroke-width="2.4" fill="#FFFFFF" cx="382" cy="92" r="11"></circle>
                <circle id="Oval-Copy-6" stroke="#CCCCCC" stroke-width="2" fill="#FFFFFF" cx="301" cy="8" r="8"></circle>
                <circle id="Oval-Copy-10" stroke="#CCCCCC" stroke-width="2" fill="#FFFFFF" cx="247.5" cy="155.5" r="7.5"></circle>
                <circle id="Oval-Copy-5" stroke="#CCCCCC" stroke-width="2" fill="#FFFFFF" cx="174" cy="83" r="9"></circle>
            </g>
            <g id="Group-5" transform="translate(0.000000, 18.000000)">
                <path d="M348.763636,59 L348.763636,81.5 C348.763636,83.709139 350.554497,85.5 352.763636,85.5 L356,85.5 L356,112 L344,112 L344,59 L348.763636,59 Z M373,92 L373,112 L361,112 L361,88 C361,90.209139 362.790861,92 365,92 L373,92 Z M390,92 L390,112 L378,112 L378,92 L390,92 Z M407,92 L407,112 L395,112 L395,92 L407,92 Z M279.268315,59 C277.850839,60.7380526 276.734821,62.7316723 276,64.9011203 L276,59 L279.268315,59 Z M288,89.0331872 L288,112 L276,112 L276,77.0988797 C277.903694,82.7192469 282.365856,87.1595116 288,89.0331872 Z M305,86.4937917 L305,112 L293,112 L293,89.9741359 C293.331161,89.9913076 293.664565,90 294,90 C298.099489,90 301.895739,88.7016802 305,86.4937917 Z M310,81.2512762 C311.898774,78.2938415 313,74.7755233 313,71 C313,67.2244767 311.898774,63.7061585 310,60.7487238 L310,49 L322,49 L322,112 L310,112 L310,81.2512762 Z M135.000007,77.1313716 C131.36606,75.1130027 127.311056,73.7608662 123,73.2399664 L123,39 L135,39 L135,77.1313679 Z M151.455871,112 C151.81326,110.054343 152,108.048979 152,106 C152,95.7523784 147.32902,86.5957226 140,80.5429727 L140,59 L152,59 L152,112 L151.455871,112 Z M101,78.3367922 C95.7998315,81.7273792 91.6147389,86.5445704 89,92.2330881 L89,49 L101,49 L101,78.3367922 Z M157,59 L169,59 L169,112 L157,112 L157,59 Z M174,30 L186,30 L186,112 L174,112 L174,30 Z M191,48 L203,48 L203,112 L191,112 L191,48 Z M208,61 L220,61 L220,112 L208,112 L208,61 Z M55,61 L67,61 L67,112 L55,112 L55,61 Z M225,71 L237,71 L237,112 L225,112 L225,71 Z M72,71 L84,71 L84,112 L72,112 L72,71 Z M242,49 L254,49 L254,112 L242,112 L242,49 Z M259,78 L271,78 L271,112 L259,112 L259,78 Z M327,25 L339,25 L339,112 L327,112 L327,25 Z" id="Combined-Shape" fill="#CCCCCC"></path>
                <polyline id="Path-3" stroke="#CCCCCC" stroke-width="1.5" points="14 50 84.5 22.5 119 106 195.5 132.5 211.5 15"></polyline>
                <path d="M196,132 L294.5,71.5" id="Path-4" stroke="#CCCCCC"></path>
                <circle id="Oval-Copy-8" stroke="#CCCCCC" stroke-width="2" fill="#FFFFFF" cx="84.5" cy="22.5" r="7.5"></circle>
                <circle id="Oval-Copy-9" stroke="#CCCCCC" stroke-width="2" fill="#FFFFFF" cx="195.5" cy="132.5" r="7.5"></circle>
                <polyline id="Path-2" stroke="#525252" stroke-width="2" points="14 50 119 112 212 17 294 73.75 355.830283 51"></polyline>
                <circle id="Oval" stroke="#525252" stroke-width="2.4" fill="#FFFFFF" cx="119" cy="106" r="19"></circle>
                <circle id="Oval-Copy-2" stroke="#525252" stroke-width="2.4" fill="#FFFFFF" cx="211.5" cy="16.5" r="16.5"></circle>
                <circle id="Oval-Copy-4" stroke="#525252" stroke-width="2.4" fill="#FFFFFF" cx="294.5" cy="71.5" r="10.5"></circle>
                <circle id="Oval-Copy-3" stroke="#525252" stroke-width="2.4" fill="#FFFFFF" cx="14" cy="50" r="14"></circle>
                <g id="Group-11" transform="translate(354.000000, 26.000000)" fill="#525252">
                    <circle id="Oval" cx="12" cy="11" r="3"></circle>
                    <circle id="Oval-Copy-17" cx="12" cy="22" r="3"></circle>
                    <rect id="Rectangle" stroke="#525252" stroke-width="2" x="22" y="9" width="4" height="37"></rect>
                    <rect id="Rectangle-Copy-48" stroke="#525252" stroke-width="2" x="32" y="9" width="4" height="37"></rect>
                    <rect id="Rectangle-Copy-49" stroke="#525252" stroke-width="2" x="42" y="9" width="4" height="37"></rect>
                    <path d="M55,14 L66,14 L66,44 L55,44 L55,14 Z M57,16 L57,42 L64,42 L64,16 L57,16 Z" id="Combined-Shape"></path>
                    <path d="M62,11.1500272 C61.5153351,11.0516454 61.0136988,11 60.5,11 C59.9863012,11 59.4846649,11.0516454 59,11.1500272 L59,2.5 L8,2.5 C5.23857625,2.5 3,4.73857625 3,7.5 L3,47.5 C3,50.2614237 5.23857625,52.5 8,52.5 L59,52.5 L59,46.8499728 C59.4846649,46.9483546 59.9863012,47 60.5,47 C61.0136988,47 61.5153351,46.9483546 62,46.8499728 L62,55 L46,55 L46,61 L43,61 L43,55 L40,55 L40,61 L37,61 L37,55 L34,55 L34,61 L31,61 L31,55 L28,55 L28,61 L25,61 L25,55 L22,55 L22,61 L19,61 L19,55 L16,55 L16,61 L13,61 L13,55 L8,55 C3.581722,55 5.41083001e-16,51.418278 0,47 L0,8 C-5.41083001e-16,3.581722 3.581722,8.11624501e-16 8,0 L62,0 L62,11.1500272 Z" id="Combined-Shape"></path>
                </g>
            </g>
            <g id="Group-9" transform="translate(424.000000, 40.000000)" fill="#525252">
                <path d="M25,0 L206,0 L206,66 L25,66 L25,0 Z M145,13 L145,29 L196,29 L196,13 L145,13 Z M150,17 L170,17 L170,25 L150,25 L150,17 Z M145,37 L145,53 L196,53 L196,37 L145,37 Z M150,41 L170,41 L170,49 L150,49 L150,41 Z M89,13 L89,15.2 L135,15.2 L135,13 L89,13 Z M89,28 L89,30.2 L135,30.2 L135,28 L89,28 Z M89,21 L89,23.2 L135,23.2 L135,21 L89,21 Z M89,36 L89,38.2 L135,38.2 L135,36 L89,36 Z M89,43 L89,45.2 L135,45.2 L135,43 L89,43 Z M89,51 L89,53.2 L135,53.2 L135,51 L89,51 Z M35,13 L35,15.2 L81,15.2 L81,13 L35,13 Z M35,28 L35,30.2 L81,30.2 L81,28 L35,28 Z M35,21 L35,23.2 L81,23.2 L81,21 L35,21 Z M35,36 L35,38.2 L81,38.2 L81,36 L35,36 Z M35,43 L35,45.2 L81,45.2 L81,43 L35,43 Z M35,51 L35,53.2 L81,53.2 L81,51 L35,51 Z" id="Combined-Shape"></path>
                <path d="M0,0 L20,0 L20,66 L0,66 L0,0 Z M10,20 C12.209139,20 14,18.209139 14,16 C14,13.790861 12.209139,12 10,12 C7.790861,12 6,13.790861 6,16 C6,18.209139 7.790861,20 10,20 Z M10,55 C12.209139,55 14,53.209139 14,51 C14,48.790861 12.209139,47 10,47 C7.790861,47 6,48.790861 6,51 C6,53.209139 7.790861,55 10,55 Z" id="Combined-Shape"></path>
                <path d="M211,0 L231,0 L231,66 L211,66 L211,0 Z M221,20 C223.209139,20 225,18.209139 225,16 C225,13.790861 223.209139,12 221,12 C218.790861,12 217,13.790861 217,16 C217,18.209139 218.790861,20 221,20 Z M221,55 C223.209139,55 225,53.209139 225,51 C225,48.790861 223.209139,47 221,47 C218.790861,47 217,48.790861 217,51 C217,53.209139 218.790861,55 221,55 Z" id="Combined-Shape-Copy"></path>
            </g>
        </g>
    </g>
</svg>