<?xml version="1.0" encoding="UTF-8"?>
<svg width="92px" height="92px" viewBox="0 0 92 92" version="1.1" xmlns="http://www.w3.org/2000/svg" xmlns:xlink="http://www.w3.org/1999/xlink">
    <!-- Generator: Sketch 53 (72520) - https://sketchapp.com -->
    <title>img/card/appliance</title>
    <desc>Created with Sketch.</desc>
    <defs>
        <rect id="path-1" x="0" y="0" width="92" height="92"></rect>
    </defs>
    <g id="img/card/appliance" stroke="none" stroke-width="1" fill="none" fill-rule="evenodd">
        <g id="icon/功能">
            <mask id="mask-2" fill="white">
                <use xlink:href="#path-1"></use>
            </mask>
            <g id="Mask"></g>
            <g id="Applience" opacity="0.2" mask="url(#mask-2)" fill="#FFFFFF">
                <g transform="translate(-23.000000, 24.000000)" id="Combined-Shape">
                    <path d="M11.05,36.9 L79.175,36.9 C79.8101275,36.9 80.325,37.4148725 80.325,38.05 L80.325,51.95 C80.325,52.5851275 79.8101275,53.1 79.175,53.1 L11.05,53.1 C10.4148725,53.1 9.9,52.5851275 9.9,51.95 L9.9,38.05 C9.9,37.4148725 10.4148725,36.9 11.05,36.9 Z M14.85,43.2 L14.85,46.8 L35.325,46.8 L35.325,43.2 L14.85,43.2 Z M11.05,16.2 L79.175,16.2 C79.8101275,16.2 80.325,16.7148725 80.325,17.35 L80.325,31.25 C80.325,31.8851275 79.8101275,32.4 79.175,32.4 L11.05,32.4 C10.4148725,32.4 9.9,31.8851275 9.9,31.25 L9.9,17.35 C9.9,16.7148725 10.4148725,16.2 11.05,16.2 Z M14.85,22.5 L14.85,26.1 L35.325,26.1 L35.325,22.5 L14.85,22.5 Z M11.05,57.6 L79.175,57.6 C79.8101275,57.6 80.325,58.1148725 80.325,58.75 L80.325,72.65 C80.325,73.2851275 79.8101275,73.8 79.175,73.8 L11.05,73.8 C10.4148725,73.8 9.9,73.2851275 9.9,72.65 L9.9,58.75 C9.9,58.1148725 10.4148725,57.6 11.05,57.6 Z M14.85,63.9 L14.85,67.5 L35.325,67.5 L35.325,63.9 L14.85,63.9 Z"></path>
                </g>
            </g>
        </g>
    </g>
</svg>