<?xml version="1.0" encoding="UTF-8"?>
<svg width="100px" height="60px" viewBox="0 0 100 60" version="1.1" xmlns="http://www.w3.org/2000/svg" xmlns:xlink="http://www.w3.org/1999/xlink">
    <!-- Generator: Sketch 53 (72520) - https://sketchapp.com -->
    <title>img/服务详情/authentication</title>
    <desc>Created with Sketch.</desc>
    <g id="img/服务详情/authentication" stroke="none" stroke-width="1" fill="none" fill-rule="evenodd">
        <g id="安全" transform="translate(36.000000, 10.000000)" fill="#748CFF" fill-rule="nonzero">
            <path d="M18.0000209,3.55271368e-14 L36.0000419,7.6891015 L36.0000419,19.3388246 C36.0000419,22.0108229 35.5453539,24.6022822 34.6359778,27.1179402 C33.7266017,29.6335982 32.4844128,31.9076393 30.909411,33.9305884 C29.2734716,36.0482891 27.3609693,37.8438341 25.1719043,39.3172232 C22.9828392,40.7906124 20.5922115,41.8328812 18.0000209,42.4487673 C15.4078304,41.8328812 13.0172026,40.7906124 10.8281376,39.3172232 C8.63907255,37.8438341 6.72657033,36.0482891 5.09063092,33.9305884 C3.51562909,31.9029017 2.27344015,29.6335982 1.36406409,27.1179402 C0.454688029,24.6022822 6.8567374e-13,22.0060853 6.8567374e-13,19.3388246 L6.8567374e-13,7.6891015 L18.0000209,3.55271368e-14 Z M18.0000209,21.1770078 L18.0000209,4.18802571 L3.97969213,10.2189722 L3.97969213,21.1770078 L18.0000209,21.1770078 L18.0000209,38.3981316 C19.8797106,37.8769972 21.6094001,37.0573949 23.184402,35.9345871 C24.7594038,34.8165169 26.1469054,33.4852553 27.3469068,31.9502776 C28.5797208,30.4484629 29.5969094,28.7808328 30.4031604,26.9568623 C31.2047238,25.1328918 31.7437869,23.2046945 32.0203498,21.1770078 L18.0000209,21.1770078 Z" id="Shape"></path>
        </g>
        <path d="M70.7925891,48.7870688 C70.9351685,48.6117992 71.0762383,48.4347899 71.2157986,48.2560407 C71.9597578,47.3105926 72.6480243,46.3235711 73.2805981,45.295532 L73.7392636,45.3524535 L74.337917,45.973024 L74.4723168,46.938431 L75.4580003,47.3612318 L76.1745456,46.7586496 L76.9973671,46.7587896 L77.7374062,47.3544299 L78.7036569,46.9243484 L78.7937018,45.9566522 L79.37009,45.336917 L80.2824007,45.2139939 L80.6637616,44.181846 L80.0786145,43.4136684 L80.0533598,42.538263 L80.6033484,41.7687969 L80.1761865,40.7405319 L79.2579,40.6263907 L78.6592465,40.0058202 L78.5242476,39.0405188 L77.540057,38.6226887 L76.8282646,39.2277035 L76.1994749,39.2275965 C76.7583048,37.6913195 77.1872894,36.1336192 77.4864286,34.5538761 L78.1277877,33.4156749 C78.1738056,33.3111391 78.25789,33.2310759 78.3621573,33.1925138 C78.4664444,33.150379 78.5905632,33.1573295 78.7014236,33.1981853 C79.5597692,33.5519349 80.6804464,33.9852645 81.4612943,34.5141707 C81.6403416,34.6360516 81.7263907,34.8625781 81.6731942,35.0720031 C81.5718957,35.5116989 81.4542599,35.9478717 81.3415258,36.3876799 C81.9329965,36.8671644 82.4692676,37.4311312 82.9305151,38.0704867 L84.3597172,37.7462353 C84.5724689,37.7031012 84.7908446,37.8432625 84.8755106,38.0528182 L84.8751457,38.05188 L85.9777112,40.7808253 C86.0524613,40.9658382 86.0026544,41.2429009 85.8316198,41.355925 L84.554377,42.1262519 C84.657996,42.8800684 84.6625286,43.6314569 84.5751391,44.3620973 C84.963147,44.6042306 85.3533588,44.8314906 85.7498074,45.0618942 C85.854419,45.1206473 85.9453899,45.2123622 85.9900116,45.3228046 C86.0346329,45.4332462 86.0345759,45.5331899 86.0001382,45.6481234 C85.8798006,46.1535236 85.0436726,48.5929745 84.6487975,48.7525144 C84.5377039,48.7896397 84.4177042,48.7936682 84.3020102,48.7641559 L83.0045531,48.3510711 C82.5891399,48.9104893 82.1001107,49.4154529 81.5440864,49.8490318 C81.6846431,50.3615659 81.8124482,50.8833744 81.8838719,51.3991714 C81.9197708,51.6219385 81.8041146,51.834904 81.605035,51.9126095 L79.0290503,52.9533748 C78.8195848,53.0380044 78.5693513,52.9524398 78.4613818,52.7544961 L77.6866706,51.421462 C76.9743571,51.5014819 76.2602196,51.4802776 75.5615878,51.3657986 L74.8903233,52.566726 C74.8381937,52.6718905 74.7509708,52.7526895 74.6443661,52.7945688 C74.5336574,52.8361036 74.4099238,52.8296538 74.3001419,52.7766258 C73.4467542,52.4351477 72.326077,52.0018181 71.5501857,51.4851795 C71.3686637,51.359851 71.2811335,51.1297169 71.3337091,50.9160197 C71.4345348,50.4752192 71.5521167,50.0389852 71.6648801,49.5993159 C71.3583726,49.3508326 71.0666893,49.0796617 70.7925891,48.7870688 Z M30.0195366,30.0009653 C29.7372174,30.2834972 29.4410976,30.5486617 29.1329493,30.7956597 C29.2779196,31.3466144 29.4289582,31.8932967 29.5588526,32.4455993 C29.6264941,32.7133731 29.5172146,33.000923 29.2885865,33.1567582 C28.3112377,33.7989962 26.8978008,34.334999 25.821544,34.7575562 C25.6831434,34.8233042 25.5268508,34.8306732 25.3867413,34.7780563 C25.251815,34.7250314 25.141155,34.6234031 25.0746945,34.491477 L24.2197639,32.9845146 C23.3377397,33.1238281 22.4355944,33.1463059 21.5351778,33.0420966 L20.5639644,34.7061849 C20.4286782,34.9533274 20.1130114,35.059001 19.8478839,34.9518826 L16.5873756,33.6345517 C16.3354094,33.5361589 16.1880739,33.2689421 16.2321625,32.9903194 C16.3194674,32.3451271 16.4779724,31.6927313 16.6526408,31.0520162 C15.9476739,30.506163 15.3269451,29.871342 14.7989153,29.1687816 L13.1620133,29.6784392 C13.0160094,29.7147203 12.8643747,29.7089953 12.7238041,29.6618954 C12.2239977,29.4599605 11.1537272,26.4018591 10.9988134,25.768589 C10.9546498,25.6245363 10.9540093,25.4994412 11.0097571,25.3614606 C11.0655053,25.2234789 11.1799193,25.1092012 11.311755,25.0362579 C11.811331,24.7501279 12.3030453,24.4678973 12.7918904,24.1670379 C12.6773229,23.2520328 12.6787751,22.3115813 12.8054025,21.3686544 L11.1873079,20.3972069 C10.9705738,20.254767 10.90607,19.9076974 10.9994593,19.6765508 L12.376954,16.2671319 L12.3764983,16.2683041 C12.4822761,16.0064948 12.7573821,15.8323039 13.0264253,15.8875031 L14.833973,16.3014836 C15.4130918,15.5038567 16.0874269,14.8010169 16.8319836,14.2042337 C16.6870494,13.6531054 16.535943,13.1064994 16.4054576,12.5555768 C16.3370561,12.2931469 16.4444847,12.0101039 16.6700059,11.85857 C17.6535471,11.2010053 19.0669841,10.6650025 20.1494351,10.227114 C20.2892674,10.1766073 20.4460439,10.1686139 20.5780435,10.2219452 C20.7099978,10.2708048 20.8166883,10.3714944 20.8754236,10.5025987 L21.7409678,12.0161333 C22.6242814,11.8762472 23.5278114,11.8535399 24.4296075,11.9579081 L25.4008237,10.2938151 C25.5361099,10.0466726 25.8517768,9.94099901 26.1169042,10.0481174 L29.3774125,11.3654483 C29.6296584,11.4641068 29.7768722,11.7319496 29.732146,12.0108613 C29.6448992,12.655624 29.4865472,13.3075806 29.3120166,13.9478846 C29.5523453,14.1339634 29.7828844,14.3303818 30.0032986,14.5362987 L30.0032986,29.0060407 C30.0032986,29.3385227 30.0087113,29.6701678 30.0195366,30.0009653 Z M18.4893968,21.9210174 L18.4598955,23.0150704 L17.7216962,23.9735367 L18.2070998,25.2646327 L19.3617352,25.4208232 L20.0927398,26.1970124 L20.2093786,27.4067378 L21.4331212,27.9469807 L22.3677791,27.2045936 L23.4088445,27.2067233 L24.3171334,27.9618664 L25.5630744,27.4361906 L25.7304182,26.229955 L26.4861196,25.4560131 L27.6484087,25.3160594 L28.1852315,24.0319472 L27.4902451,23.0692275 L27.5080725,21.9837402 L28.2470297,21.0254076 L27.7676929,19.7353813 L26.6130575,19.5791908 L25.8820529,18.8030016 L25.7654141,17.5932762 L24.5416715,17.0530333 L23.6017056,17.7944844 L22.5606401,17.7923548 L21.6583581,17.0341845 L20.4142921,17.553652 L20.24619,18.7597539 L19.4904885,19.5336958 L18.3289563,19.6737829 L17.7913746,20.9577613 L18.4893944,21.9210159 Z M9.37860362,22.9318799 L7.93403581,22.3482367 C7.80620641,22.2982504 7.72998061,22.1662829 7.75026214,22.0300764 C7.78976489,21.7145658 7.86514259,21.3960277 7.94875833,21.0833268 C7.58920149,20.8109035 7.27152171,20.4954825 7.0001379,20.1475246 L6.17779254,20.3857013 C6.10437854,20.4024485 6.02782718,20.3985743 5.95656677,20.3745056 C5.70295351,20.2720392 5.14136074,18.766109 5.05873024,18.4547322 C5.03543075,18.383839 5.03422556,18.3225414 5.06138161,18.2553279 C5.08853788,18.1881137 5.14546252,18.1329276 5.21146912,18.0981169 C5.46152496,17.9614436 5.70764146,17.8266254 5.95217888,17.6826594 C5.88791969,17.2335248 5.8820216,16.7727402 5.93926627,16.3116252 L5.11596783,15.8242345 C5.00560509,15.7529148 4.97061103,15.5824056 5.01610313,15.4698087 L5.6871129,13.8090013 L5.68689125,13.8095724 C5.73841808,13.682039 5.87600135,13.59863 6.01214287,13.627573 L6.92710393,13.8431563 C7.2136886,13.4564246 7.54898532,13.1168074 7.92046181,12.82965 C7.8434459,12.5585906 7.76334754,12.2897036 7.69362359,12.018847 C7.6572596,11.8897814 7.70946968,11.7518557 7.82219351,11.6791984 C8.31382688,11.3639448 9.02323175,11.1112841 9.56632139,10.904363 C9.6365211,10.8806021 9.7155701,10.8777909 9.78254974,10.9048524 C9.84947501,10.9297226 9.90401824,10.97981 9.93457892,11.0444615 L10.3819818,11.7921538 C10.8266929,11.7298414 11.2824309,11.725086 11.7381899,11.7825818 L12.2165077,10.9740706 C12.2830272,10.8539315 12.4415595,10.8043801 12.5760912,10.8587344 L14.2305482,11.5271784 C14.3567506,11.5766036 14.4325725,11.705927 14.4148876,11.840259 C13.5056522,12.5676722 12.6929152,13.4114032 11.9990458,14.349005 L11.853645,14.2864245 L11.3798339,14.6447935 L10.8522032,14.6401407 L10.3922849,14.267222 L9.76358198,14.516266 L9.6825729,15.103941 L9.30226186,15.4787965 L8.71407097,15.5430898 L8.44607595,16.1674654 L8.80318515,16.6397027 L8.79203149,17.1732086 L8.42123129,17.638124 L8.67172114,18.2695223 L9.25744518,18.3497102 L9.63062075,18.7308228 L9.69393411,19.3212537 L9.70683921,19.326808 C9.48403411,20.2987757 9.36630899,21.3110249 9.36630899,22.3508664 C9.36630899,22.5455323 9.37043486,22.7392313 9.37860362,22.9318799 Z" id="Combined-Shape" fill="#748CFF"></path>
    </g>
</svg>