<?xml version="1.0" encoding="UTF-8"?>
<svg width="93px" height="92px" viewBox="0 0 93 92" version="1.1" xmlns="http://www.w3.org/2000/svg" xmlns:xlink="http://www.w3.org/1999/xlink">
    <!-- Generator: Sketch 53 (72520) - https://sketchapp.com -->
    <title>img/card/avg_response_time</title>
    <desc>Created with Sketch.</desc>
    <defs>
        <rect id="path-1" x="0.534412955" y="0" width="92" height="92"></rect>
    </defs>
    <g id="img/card/avg_response_time" stroke="none" stroke-width="1" fill="none" fill-rule="evenodd">
        <g id="icon/功能">
            <mask id="mask-2" fill="white">
                <use xlink:href="#path-1"></use>
            </mask>
            <g id="Mask"></g>
            <g id="clock" opacity="0.2" mask="url(#mask-2)" fill="#FFFFFF">
                <g transform="translate(-29.000000, 25.000000)" id="Combined-Shape">
                    <path d="M45,83.925 C23.6265802,83.925 6.3,66.5984198 6.3,45.225 C6.3,23.8515802 23.6265802,6.525 45,6.525 C66.3734198,6.525 83.7,23.8515802 83.7,45.225 C83.7,66.5984198 66.3734198,83.925 45,83.925 Z M45,75.825 C61.8999133,75.825 75.6,62.1249133 75.6,45.225 C75.6,28.3250867 61.8999133,14.625 45,14.625 C28.1000867,14.625 14.4,28.3250867 14.4,45.225 C14.4,62.1249133 28.1000867,75.825 45,75.825 Z M48.8451923,43.8757212 L61.4603365,43.8757212 C63.6461096,43.8757212 65.4180288,45.6476404 65.4180288,47.8334135 C65.4180288,50.0191866 63.6461096,51.7911058 61.4603365,51.7911058 L44.8875,51.7911058 C42.7017269,51.7911058 40.9298077,50.0191866 40.9298077,47.8334135 L40.9298077,25.1487981 C40.9298077,22.963025 42.7017269,21.1911058 44.8875,21.1911058 C47.0732731,21.1911058 48.8451923,22.963025 48.8451923,25.1487981 L48.8451923,43.8757212 Z"></path>
                </g>
            </g>
        </g>
    </g>
</svg>