<?xml version="1.0" encoding="UTF-8"?>
<svg width="400px" height="400px" viewBox="0 0 400 400" version="1.1" xmlns="http://www.w3.org/2000/svg" xmlns:xlink="http://www.w3.org/1999/xlink">
    <!-- Generator: Sketch 53 (72520) - https://sketchapp.com -->
    <title>Icons/通用/URL</title>
    <desc>Created with Sketch.</desc>
    <g id="Icons/通用/URL" stroke="none" stroke-width="1" fill="none" fill-rule="evenodd">
        <g id="Group-4-Copy" transform="translate(200.500000, 200.000000) rotate(45.000000) translate(-200.500000, -200.000000) translate(132.000000, -8.000000)" fill="#F2F2F2">
            <path d="M53.8636364,59.1697955 L53.8636364,14.3636364 C53.8636364,6.43081905 60.2944554,-4.07104838e-13 68.2272727,-4.08562073e-13 C76.16009,-4.10019308e-13 82.5909091,6.43081905 82.5909091,14.3636364 L82.5909091,59.1697955 C113.374601,65.7659379 136.454545,93.1288866 136.454545,125.882445 L136.454545,194.586207 L-1.98951966e-13,194.586207 L-1.98951966e-13,125.882445 C-2.0296312e-13,93.1288866 23.0799443,65.7659379 53.8636364,59.1697955 Z M50.2727273,358.534758 C25.4921909,352.156689 7.18181818,329.661794 7.18181818,302.890282 L7.18181818,246.187586 L32.7171717,246.187586 L32.7171717,211.368861 C32.7171717,206.080316 37.0043844,201.793103 42.2929293,201.793103 C47.5814742,201.793103 51.8686869,206.080316 51.8686869,211.368861 L51.8686869,246.187586 L77.4040404,246.187586 L77.4040404,211.368861 C77.4040404,206.080316 81.6912531,201.793103 86.979798,201.793103 C92.2683429,201.793103 96.5555556,206.080316 96.5555556,211.368861 L96.5555556,246.187586 L122.090909,246.187586 L122.090909,302.890282 C122.090909,329.661794 103.780536,352.156689 79,358.534758 L79,401.627731 C79,409.560548 72.569181,415.991367 64.6363636,415.991367 C56.7035463,415.991367 50.2727273,409.560548 50.2727273,401.627731 L50.2727273,358.534758 Z" id="Combined-Shape"></path>
        </g>
    </g>
</svg>