<?xml version="1.0" encoding="UTF-8"?>
<svg width="100px" height="60px" viewBox="0 0 100 60" version="1.1" xmlns="http://www.w3.org/2000/svg" xmlns:xlink="http://www.w3.org/1999/xlink">
    <!-- Generator: Sketch 53 (72520) - https://sketchapp.com -->
    <title>img/服务详情/dead_message</title>
    <desc>Created with Sketch.</desc>
    <g id="img/服务详情/dead_message" stroke="none" stroke-width="1" fill="none" fill-rule="evenodd">
        <path d="M41.8389102,55 C41.944412,54.516766 42,54.0148746 42,53.5 L42,52 L63,52 L63,18 L31,18 L31,18.5 L28,18.5 L28,15 L66,15 L66,55 L41.8389102,55 Z M41.5403712,23 L54,23 L54,25 L41.982418,25 C41.9330079,24.2998921 41.780643,23.6282095 41.5403712,23 Z M42,29 L59,29 L59,31 L42,31 L42,29 Z M42,34 L59,34 L59,36 L42,36 L42,34 Z M42,40 L59,40 L59,42 L42,42 L42,40 Z M42,45 L54,45 L54,47 L42,47 L42,45 Z M69,49 L69,12 L38,12 L38,9 L72,9 L72,49 L69,49 Z M75,44 L75,7 L44,7 L44,4 L78,4 L78,44 L75,44 Z" id="Combined-Shape" fill="#748CFF"></path>
        <g id="Group-3" transform="translate(11.000000, 22.000000)">
            <g id="Group-2">
                <g id="Group">
                    <path d="M12.8900597,2.63812516 L13,2.57872504 L13,12.4496928 L3.25,12.4496928 L3.28721435,12.3594427 C2.01778048,12.0571852 1.08333333,11.0305524 1.08333333,9.81057988 C1.08333333,8.63644974 1.94887327,7.64140223 3.14556224,7.29883076 C2.9160755,6.92477901 2.78571429,6.49608485 2.78571429,6.04041859 C2.78571429,4.58287678 4.11953264,3.40130568 5.76488095,3.40130568 C5.90942503,3.40130568 6.05156483,3.41042463 6.19060724,3.42804854 C6.19051993,3.41914341 6.19047619,3.41022907 6.19047619,3.40130568 C6.19047619,1.73554362 7.71484002,0.385176651 9.5952381,0.385176651 C11.1779993,0.385176651 12.5085152,1.34189253 12.8900597,2.63812516 Z" id="Combined-Shape" stroke="#748CFF" stroke-width="2" fill="#FFFFFF"></path>
                    <path d="M25.0775597,2.63812516 L25.1875,2.57872504 L25.1875,12.4496928 L15.4375,12.4496928 L15.4747144,12.3594427 C14.2052805,12.0571852 13.2708333,11.0305524 13.2708333,9.81057988 C13.2708333,8.63644974 14.1363733,7.64140223 15.3330622,7.29883076 C15.1035755,6.92477901 14.9732143,6.49608485 14.9732143,6.04041859 C14.9732143,4.58287678 16.3070326,3.40130568 17.952381,3.40130568 C18.096925,3.40130568 18.2390648,3.41042463 18.3781072,3.42804854 C18.3780199,3.41914341 18.3779762,3.41022907 18.3779762,3.40130568 C18.3779762,1.73554362 19.90234,0.385176651 21.7827381,0.385176651 C23.3654993,0.385176651 24.6960152,1.34189253 25.0775597,2.63812516 Z" id="Combined-Shape-Copy" stroke="#748CFF" stroke-width="2" fill="#FFFFFF" transform="translate(19.093750, 6.032258) scale(-1, 1) translate(-19.093750, -6.032258) "></path>
                    <path d="M21.9375,28.561828 L21.9375,30.6208 C21.9375,32.4870806 20.4245806,34 18.5583,34 L7.4417,34 C5.57541937,34 4.0625,32.4870806 4.0625,30.6208 L4.0625,28.561828 L4.0625,28.561828 C1.8188432,28.561828 -6.13409708e-16,26.7429848 -8.8817842e-16,24.499328 L0,11.6017619 L26,11.6017619 L26,24.499328 C26,26.7429848 24.1811568,28.561828 21.9375,28.561828 L21.9375,28.561828 Z" id="Combined-Shape" fill="#748CFF"></path>
                </g>
            </g>
            <path d="M8.125,30.7096774 L8.125,30.7096774 C8.42415424,30.7096774 8.66666667,30.9521898 8.66666667,31.2513441 L8.66666667,34 L7.58333333,34 L7.58333333,31.2513441 C7.58333333,30.9521898 7.82584576,30.7096774 8.125,30.7096774 Z" id="Rectangle" fill="#FFFFFF"></path>
            <path d="M11.375,30.7096774 L11.375,30.7096774 C11.6741542,30.7096774 11.9166667,30.9521898 11.9166667,31.2513441 L11.9166667,34 L10.8333333,34 L10.8333333,31.2513441 C10.8333333,30.9521898 11.0758458,30.7096774 11.375,30.7096774 Z" id="Rectangle-Copy-8" fill="#FFFFFF"></path>
            <path d="M14.625,30.7096774 L14.625,30.7096774 C14.9241542,30.7096774 15.1666667,30.9521898 15.1666667,31.2513441 L15.1666667,34 L14.0833333,34 L14.0833333,31.2513441 C14.0833333,30.9521898 14.3258458,30.7096774 14.625,30.7096774 Z" id="Rectangle-Copy-9" fill="#FFFFFF"></path>
            <path d="M17.875,30.7096774 L17.875,30.7096774 C18.1741542,30.7096774 18.4166667,30.9521898 18.4166667,31.2513441 L18.4166667,34 L17.3333333,34 L17.3333333,31.2513441 C17.3333333,30.9521898 17.5758458,30.7096774 17.875,30.7096774 Z" id="Rectangle-Copy-10" fill="#FFFFFF"></path>
            <path d="M13.3386207,24.2937915 L14.0268189,25.1232399 C14.1819864,25.3102549 14.1561688,25.5876487 13.9691538,25.7428162 C13.8901876,25.8083349 13.7908061,25.8441955 13.6881982,25.8441955 L12.3118018,25.8441955 C12.0687965,25.8441955 11.8718018,25.6472008 11.8718018,25.4041955 C11.8718018,25.3015876 11.9076623,25.2022061 11.9731811,25.1232399 L12.6613793,24.2937915 C12.8165468,24.1067764 13.0939405,24.0809589 13.2809556,24.2361264 C13.301921,24.2535215 13.3212256,24.2728261 13.3386207,24.2937915 Z" id="Combined-Shape" stroke="#FFFFFF" stroke-width="1.2672" fill="#FFFFFF"></path>
            <ellipse id="Oval" fill="#FFFFFF" cx="7.58333333" cy="18.6451613" rx="3.25" ry="3.29032258"></ellipse>
            <ellipse id="Oval-Copy" fill="#FFFFFF" cx="18.4166667" cy="18.6451613" rx="3.25" ry="3.29032258"></ellipse>
        </g>
    </g>
</svg>