<?xml version="1.0" encoding="UTF-8"?>
<svg width="400px" height="400px" viewBox="0 0 400 400" version="1.1" xmlns="http://www.w3.org/2000/svg" xmlns:xlink="http://www.w3.org/1999/xlink">
    <!-- Generator: Sketch 53 (72520) - https://sketchapp.com -->
    <title>hierachy</title>
    <desc>Created with Sketch.</desc>
    <g id="hierachy" stroke="none" stroke-width="1" fill="none" fill-rule="evenodd">
        <g id="层级" transform="translate(57.000000, 47.000000)" fill="#FFFFFF" fill-rule="nonzero">
            <path d="M147.576284,286.079209 L147.576284,286.079209 C144.713395,287.588039 141.28719,287.588039 138.42431,286.079209 L19.8005322,223.142137 L64.3283745,199.699687 L129.228169,234.238408 C137.830138,238.843551 148.148102,238.843551 156.794087,234.238408 L221.606029,199.72158 L266.19976,223.5368 L147.575983,286.079209 L147.576284,286.079209 Z M63.2724096,129.898776 L129.228229,164.92003 C137.852191,169.481328 148.148162,169.481328 156.772154,164.92003 L222.662084,129.964753 L266.133901,153.648409 L147.554351,216.76092 L147.554351,216.76092 C144.709955,218.28139 141.29077,218.28139 138.446393,216.76092 L19.844879,153.01233 L63.2947336,129.898836 L63.2727337,129.898836 L63.2724096,129.898776 Z M275.351674,205.620714 L242.791812,188.472001 L275.373637,171.125927 L275.373638,171.125927 C281.957216,167.605867 286.04686,160.744157 285.999595,153.29741 L285.999595,153.297324 C286.043559,145.857084 281.953636,139.003441 275.373549,135.490759 L243.803522,118.670973 L275.373549,101.916984 L275.373551,101.916982 C281.946628,98.4079895 286.0354,91.5647229 285.999597,84.1323406 L285.999598,84.1321754 C286.022306,76.709 281.936068,69.878449 275.373491,66.369516 L156.771977,3.36676687 L156.771979,3.36676747 C148.142932,-1.12225562 137.85713,-1.12225562 129.228054,3.36676626 L10.6042764,66.3476229 L10.6042733,66.3476246 C4.0467203,69.869813 -0.0300769812,76.7072916 0.00031005728,84.1322964 C0.00031005728,91.6321253 4.07030786,98.45215 10.6042733,101.938891 L42.1962631,118.670958 L10.6042733,135.512666 L10.6042734,135.512666 C4.04323039,139.031196 -0.0349508527,145.871014 0.000310146368,153.297338 C0.000310146368,160.775245 4.07030795,167.617192 10.6042734,171.103932 L43.2080613,188.428084 L10.6481992,205.598749 L10.6481999,205.598748 C4.06651782,209.079731 -0.0346492703,215.912801 0.000220608492,223.339575 C0.000220608492,230.79553 4.07021842,237.615554 10.6481999,241.080403 L129.249714,303.579026 C137.851682,308.140325 148.147653,308.140325 156.749622,303.579026 L275.329173,241.080403 L275.329174,241.080402 C281.91937,237.605327 286.029714,230.771088 285.999146,223.339575 L285.999147,223.339384 C286.033947,215.91261 281.932699,209.079599 275.351017,205.598677 L275.351674,205.620714 Z" id="Shape"></path>
        </g>
    </g>
</svg>