<?xml version="1.0" standalone="no"?><!DOCTYPE svg PUBLIC "-//W3C//DTD SVG 1.1//EN" "http://www.w3.org/Graphics/SVG/1.1/DTD/svg11.dtd"><svg class="icon" width="200px" height="200.00px" viewBox="0 0 1024 1024" version="1.1" xmlns="http://www.w3.org/2000/svg"><path d="M187.5968 486.02624H119.00928v-68.43648h232.14848v68.43648H253.55008v32.22272h290.18368v-255.32416H187.5968V239.3088C187.5968 216.00768 206.4896 197.12 229.7856 197.12H567.5008c23.29856 0 42.1888 18.88768 42.1888 42.1888v49.30304h212.12928a42.1888 42.1888 0 0 1 37.7856 23.424l75.32544 151.68768a68.5568 68.5568 0 0 1 7.15264 30.4896v220.74112c0 23.30112-18.88768 42.1888-42.1888 42.1888h-58.05824c0 63.96416-51.968 115.81696-116.07296 115.81696s-116.07296-51.8528-116.07296-115.8144H514.7136c0 63.9616-51.968 115.8144-116.07296 115.8144-64.10752 0-116.07552-51.8528-116.07552-115.8144H229.7856c-23.29856 0-42.1888-18.8928-42.1888-42.1888v-228.93056z m632.3456 203.40992h51.25632v-214.0672l-61.7728-117.59104h-199.73888v228.27264H248.61696v103.3856h55.84128c21.0816-29.14304 55.41376-48.11008 94.1824-48.11008 38.7712 0 73.10336 18.9696 94.1824 48.11008h138.752c21.0816-29.14304 55.41376-48.11008 94.18496-48.11008 38.7712 0 73.10336 18.9696 94.1824 48.11008zM398.6432 815.0528c32.0512 0 58.0352-25.92768 58.0352-57.9072 0-31.98464-25.984-57.90976-58.0352-57.90976-32.05376 0-58.03776 25.92512-58.03776 57.9072s25.984 57.9072 58.0352 57.9072z m327.1168 0c32.0512 0 58.0352-25.92768 58.0352-57.9072 0-31.98464-25.984-57.90976-58.0352-57.90976-32.0512 0-58.0352 25.92512-58.0352 57.9072s25.984 57.9072 58.0352 57.9072zM76.8 304.40448h274.3552v68.43648H76.8v-68.43648z m583.25248 100.02432h92.416a21.0944 21.0944 0 0 1 18.74944 11.4304l41.6 80.69632h-152.76544V404.4288z" /></svg>