<?xml version="1.0" encoding="UTF-8"?>
<svg width="92px" height="92px" viewBox="0 0 92 92" version="1.1" xmlns="http://www.w3.org/2000/svg" xmlns:xlink="http://www.w3.org/1999/xlink">
    <!-- Generator: Sketch 53 (72520) - https://sketchapp.com -->
    <title>img/服务详情/endpoint</title>
    <desc>Created with Sketch.</desc>
    <defs>
        <rect id="path-1" x="0" y="0" width="92" height="92"></rect>
    </defs>
    <g id="img/服务详情/endpoint" stroke="none" stroke-width="1" fill="none" fill-rule="evenodd">
        <g id="icon/功能">
            <mask id="mask-2" fill="white">
                <use xlink:href="#path-1"></use>
            </mask>
            <g id="Mask"></g>
            <g id="API" opacity="0.38" mask="url(#mask-2)">
                <g transform="translate(-23.000000, 24.000000)" id="Group-4-Copy">
                    <g transform="translate(45.112500, 45.000000) rotate(45.000000) translate(-45.112500, -45.000000) translate(29.700000, -1.800000)">
                        <path d="M12.1193182,13.313204 L12.1193182,3.23181818 C12.1193182,1.44693429 13.5662525,-4.10010552e-13 15.3511364,-4.1033843e-13 C17.1360203,-4.10666308e-13 18.5829545,1.44693429 18.5829545,3.23181818 L18.5829545,13.313204 C25.5092853,14.797336 30.7022727,20.9539995 30.7022727,28.3235502 L30.7022727,43.7818966 L-1.98951966e-13,43.7818966 L-1.98951966e-13,28.3235502 C-1.99854476e-13,20.9539995 5.19298747,14.797336 12.1193182,13.313204 Z M11.3113636,80.6703206 C5.73574296,79.235255 1.61590909,74.1739036 1.61590909,68.1503135 L1.61590909,55.3922069 L7.36136364,55.3922069 L7.36136364,47.5579937 C7.36136364,46.3680711 8.32598649,45.4034483 9.51590909,45.4034483 C10.7058317,45.4034483 11.6704545,46.3680711 11.6704545,47.5579937 L11.6704545,55.3922069 L17.4159091,55.3922069 L17.4159091,47.5579937 C17.4159091,46.3680711 18.3805319,45.4034483 19.5704545,45.4034483 C20.7603771,45.4034483 21.725,46.3680711 21.725,47.5579937 L21.725,55.3922069 L27.4704545,55.3922069 L27.4704545,68.1503135 C27.4704545,74.1739036 23.3506207,79.235255 17.775,80.6703206 L17.775,90.3662395 C17.775,92.1511234 16.3280657,93.5980577 14.5431818,93.5980577 C12.7582979,93.5980577 11.3113636,92.1511234 11.3113636,90.3662395 L11.3113636,80.6703206 Z" id="Combined-Shape" fill="#F2F2F2"></path>
                    </g>
                </g>
            </g>
        </g>
    </g>
</svg>