<?xml version="1.0" encoding="UTF-8"?>
<svg width="92px" height="92px" viewBox="0 0 92 92" version="1.1" xmlns="http://www.w3.org/2000/svg" xmlns:xlink="http://www.w3.org/1999/xlink">
    <!-- Generator: Sketch 53 (72520) - https://sketchapp.com -->
    <title>img/card/health_index</title>
    <desc>Created with Sketch.</desc>
    <defs>
        <rect id="path-1" x="0" y="0" width="92" height="92"></rect>
    </defs>
    <g id="img/card/health_index" stroke="none" stroke-width="1" fill="none" fill-rule="evenodd">
        <g id="icon/功能">
            <mask id="mask-2" fill="white">
                <use xlink:href="#path-1"></use>
            </mask>
            <g id="Mask"></g>
            <g id="icon/positive" opacity="0.38" mask="url(#mask-2)">
                <g transform="translate(-23.000000, 24.000000)">
                    <rect id="Rectangle" fill="none" x="0" y="0" width="90" height="90"></rect>
                    <path d="M45,85.5 C22.6324676,85.5 4.5,67.3675324 4.5,45 C4.5,22.6324676 22.6324676,4.5 45,4.5 C67.3675324,4.5 85.5,22.6324676 85.5,45 C85.5,67.3675324 67.3675324,85.5 45,85.5 Z M45,81 C64.882251,81 81,64.882251 81,45 C81,25.117749 64.882251,9 45,9 C25.117749,9 9,25.117749 9,45 C9,64.882251 25.117749,81 45,81 Z M27,49.5 L63,49.5 C63,59.4411255 54.9411255,67.5 45,67.5 C35.0588745,67.5 27,59.4411255 27,49.5 Z M31.5,36 C29.0147186,36 27,33.9852814 27,31.5 C27,29.0147186 29.0147186,27 31.5,27 C33.9852814,27 36,29.0147186 36,31.5 C36,33.9852814 33.9852814,36 31.5,36 Z M58.5,36 C56.0147186,36 54,33.9852814 54,31.5 C54,29.0147186 56.0147186,27 58.5,27 C60.9852814,27 63,29.0147186 63,31.5 C63,33.9852814 60.9852814,36 58.5,36 Z" id="Combined-Shape" fill="#FFFFFF" fill-rule="evenodd"></path>
                </g>
            </g>
        </g>
    </g>
</svg>