<?xml version="1.0" encoding="UTF-8"?>
<svg width="20px" height="20px" viewBox="0 0 20 20" version="1.1" xmlns="http://www.w3.org/2000/svg" xmlns:xlink="http://www.w3.org/1999/xlink">
    <!-- Generator: Sketch 53 (72520) - https://sketchapp.com -->
    <title>icon/information/default</title>
    <desc>Created with Sketch.</desc>
    <g id="icon/information/default" stroke="none" stroke-width="1" fill="none" fill-rule="evenodd">
        <rect id="Rectangle" x="0" y="0" width="20" height="20"></rect>
        <g id="information">
            <g id="注意" stroke-width="1" transform="translate(9.150000, 6.450000)"></g>
            <path d="M10,17.4 C5.94070709,17.4 2.65,14.1092929 2.65,10.05 C2.65,5.99070709 5.94070709,2.7 10,2.7 C14.0592929,2.7 17.35,5.99070709 17.35,10.05 C17.35,14.1092929 14.0592929,17.4 10,17.4 Z M10,7.1 C10.7179702,7.1 11.3,6.51797017 11.3,5.8 C11.3,5.08202983 10.7179702,4.5 10,4.5 C9.28202983,4.5 8.7,5.08202983 8.7,5.8 C8.7,6.51797017 9.28202983,7.1 10,7.1 Z M7.55,15.1337511 L7.55,15.4274574 L12.3158677,15.4274574 L12.3158677,15.1337511 L11.7607481,15.1337511 C11.2744888,15.1337511 11.0268708,14.7729592 11.0178941,14.0513752 C10.998033,12.4548574 10.998033,10.6710657 11.0178941,8.7 L7.92379,8.7 L7.92379,9.13790067 L8.2453554,9.13790067 C8.67940824,9.18732167 8.89643466,9.48541514 8.89643466,10.0321811 C8.89643466,11.6177747 8.89643466,12.9575061 8.89643466,14.0513752 C8.89643466,14.7673051 8.89643466,15.1117003 8.15472176,15.1337511 C8.05733396,15.1366464 7.85576004,15.1366464 7.55,15.1337511 Z" id="Combined-Shape" fill="#E6E6E6"></path>
        </g>
    </g>
</svg>