<?xml version="1.0" encoding="UTF-8"?>
<svg width="16px" height="16px" viewBox="0 0 16 16" version="1.1" xmlns="http://www.w3.org/2000/svg" xmlns:xlink="http://www.w3.org/1999/xlink">
    <!-- Generator: Sketch 53 (72520) - https://sketchapp.com -->
    <title>Icons/通用/arrow down</title>
    <desc>Created with Sketch.</desc>
    <g id="应用列表" stroke="none" stroke-width="1" fill="none" fill-rule="evenodd">
        <g id="接口过滤-edit" transform="translate(-551.000000, -475.000000)" fill="#454646">
            <g id="P3" transform="translate(540.000000, 370.000000)">
                <g id="taline1" transform="translate(0.000000, 86.000000)">
                    <g id="icon">
                        <g id="icon/arrow-up" transform="translate(9.000000, 17.000000)">
                            <g id="Icons/通用/URL">
                                <g id="Group-4-Copy" transform="translate(10.025000, 10.000000) rotate(45.000000) translate(-10.025000, -10.000000) translate(6.600000, -0.400000)">
                                    <path d="M2.69318182,2.95848978 L2.69318182,0.718181818 C2.69318182,0.321540952 3.01472277,-4.10265568e-13 3.41136364,-4.1033843e-13 C3.8080045,-4.10411292e-13 4.12954545,0.321540952 4.12954545,0.718181818 L4.12954545,2.95848978 C5.66873006,3.28829689 6.82272727,4.65644433 6.82272727,6.29412226 L6.82272727,9.72931034 L-1.98951966e-13,9.72931034 L-1.98507877e-13,6.29412226 C-1.98708435e-13,4.65644433 1.15399722,3.28829689 2.69318182,2.95848978 Z M2.51363636,17.9267379 C1.27460955,17.6078345 0.359090909,16.4830897 0.359090909,15.1445141 L0.359090909,12.3093793 L1.63585859,12.3093793 L1.63585859,10.5684431 C1.63585859,10.3040158 1.85021922,10.0896552 2.11464646,10.0896552 C2.37907371,10.0896552 2.59343434,10.3040158 2.59343434,10.5684431 L2.59343434,12.3093793 L3.87020202,12.3093793 L3.87020202,10.5684431 C3.87020202,10.3040158 4.08456266,10.0896552 4.3489899,10.0896552 C4.61341714,10.0896552 4.82777778,10.3040158 4.82777778,10.5684431 L4.82777778,12.3093793 L6.10454545,12.3093793 L6.10454545,15.1445141 C6.10454545,16.4830897 5.18902682,17.6078345 3.95,17.9267379 L3.95,20.0813866 C3.95,20.4780274 3.62845905,20.7995684 3.23181818,20.7995684 C2.83517732,20.7995684 2.51363636,20.4780274 2.51363636,20.0813866 L2.51363636,17.9267379 Z" id="Combined-Shape"></path>
                                </g>
                            </g>
                        </g>
                    </g>
                </g>
            </g>
        </g>
    </g>
</svg>