<?xml version="1.0" encoding="UTF-8"?>
<svg width="11px" height="12px" viewBox="0 0 11 12" version="1.1" xmlns="http://www.w3.org/2000/svg" xmlns:xlink="http://www.w3.org/1999/xlink">
    <!-- Generator: Sketch 53 (72520) - https://sketchapp.com -->
    <title>icon/arrow-down</title>
    <desc>Created with Sketch.</desc>
    <defs>
        <rect id="path-1" x="-8.8817842e-16" y="8.8817842e-16" width="12" height="12"></rect>
    </defs>
    <g id="应用列表" stroke="none" stroke-width="1" fill="none" fill-rule="evenodd">
        <g id="接口过滤-edit" transform="translate(-955.000000, -392.000000)">
            <g id="P3" transform="translate(540.000000, 370.000000)">
                <g id="filter">
                    <g id="Overrides/Form/input-error" transform="translate(15.000000, 12.000000)">
                        <g id="input">
                            <g id="Icons/通用/search" transform="translate(399.000000, 10.000000)">
                                <g id="Group-3" opacity="0" stroke-width="1">
                                    <mask id="mask-2" fill="white">
                                        <use xlink:href="#path-1"></use>
                                    </mask>
                                    <rect stroke="#35F6FF" stroke-width="0.6" x="0.3" y="0.3" width="11.4" height="11.4"></rect>
                                    <circle id="Oval" stroke="#35F6FF" stroke-width="0.6" mask="url(#mask-2)" cx="6" cy="6" r="5.7"></circle>
                                    <g id="Group" mask="url(#mask-2)" stroke="#A35AD8" stroke-width="0.6">
                                        <g transform="translate(1.770000, 1.770000)">
                                            <circle id="Oval" cx="4.242" cy="4.242" r="3.942"></circle>
                                            <path d="M0.3,0.3 L0.3,8.184 L8.184,8.184 L8.184,0.3 L0.3,0.3 Z" id="Rectangle" transform="translate(4.242000, 4.242000) rotate(90.000000) translate(-4.242000, -4.242000) "></path>
                                        </g>
                                    </g>
                                    <g id="Group" mask="url(#mask-2)" stroke="#A35AD8" stroke-width="0.6">
                                        <g transform="translate(3.000000, 3.000000)">
                                            <circle id="Oval" cx="3" cy="3" r="2.7"></circle>
                                            <path d="M0.3,0.3 L0.3,5.7 L5.7,5.7 L5.7,0.3 L0.3,0.3 Z" id="Rectangle" transform="translate(3.000000, 3.000000) rotate(90.000000) translate(-3.000000, -3.000000) "></path>
                                        </g>
                                    </g>
                                    <path d="M0.3,1.59 L0.3,10.41 L11.7,10.41 L11.7,1.59 L0.3,1.59 Z" id="Rectangle" stroke="#35F6FF" stroke-width="0.6" mask="url(#mask-2)" transform="translate(6.000000, 6.000000) rotate(90.000000) translate(-6.000000, -6.000000) "></path>
                                    <rect id="Rectangle" stroke="#35F6FF" stroke-width="0.6" mask="url(#mask-2)" x="0.3" y="1.59" width="11.4" height="8.82"></rect>
                                    <path d="M0.99,0.99 L0.99,11.022 L11.022,11.022 L11.022,0.99 L0.99,0.99 Z" id="Rectangle" stroke="#35F6FF" stroke-width="0.6" mask="url(#mask-2)" transform="translate(6.006000, 6.006000) rotate(90.000000) translate(-6.006000, -6.006000) "></path>
                                    <path d="M0,0 L12,12" id="Path" stroke="#35F6FF" stroke-width="0.6" mask="url(#mask-2)"></path>
                                    <path d="M0,0 L12,12" id="Path" stroke="#35F6FF" stroke-width="0.6" mask="url(#mask-2)" transform="translate(6.000000, 6.000000) scale(-1, 1) translate(-6.000000, -6.000000) "></path>
                                    <g id="Group-2" mask="url(#mask-2)" stroke="#35F6FF" stroke-width="0.6">
                                        <g transform="translate(6.000000, 6.000000) rotate(45.000000) translate(-6.000000, -6.000000) " id="Path">
                                            <path d="M0,0 L12,12"></path>
                                            <path d="M0,0 L12,12" transform="translate(6.000000, 6.000000) scale(-1, 1) translate(-6.000000, -6.000000) "></path>
                                        </g>
                                    </g>
                                </g>
                                <path d="M11.4519727,10.0472288 L9.28980904,7.88507572 C10.5798423,6.10447972 10.4163179,3.61526713 8.81740862,2.01636852 C7.96345117,1.16240041 6.81878003,0.69 5.60142781,0.69 C4.38407559,0.69 3.23940446,1.16240041 2.385447,2.01636852 C0.604851001,3.79696451 0.604851001,6.6677235 2.385447,8.44833014 C3.23940446,9.3022876 4.38407559,9.77468801 5.60142781,9.77468801 C6.56440157,9.77468801 7.49104011,9.46581205 8.2541542,8.92073056 L10.4344802,11.0647213 L11.4519727,10.0472288 Z M3.42110184,7.4126753 C2.22192255,6.21349602 2.22192255,4.25120264 3.42110184,3.03385042 C4.00251855,2.45243371 4.78380557,2.12538482 5.60142781,2.12538482 C6.41905005,2.12538482 7.20033707,2.45243371 7.78175379,3.03385042 C8.98093307,4.23302971 8.98093307,6.19532309 7.78175379,7.4126753 C7.20033707,7.99409202 6.41905005,8.32114091 5.60142781,8.32114091 C4.78380557,8.32114091 4.00251855,7.99409202 3.42110184,7.4126753 Z" id="Shape" fill="#898989"></path>
                            </g>
                        </g>
                    </g>
                </g>
            </g>
        </g>
    </g>
</svg>