<?xml version="1.0" encoding="UTF-8"?>
<svg width="66px" height="83px" viewBox="0 0 66 83" version="1.1" xmlns="http://www.w3.org/2000/svg" xmlns:xlink="http://www.w3.org/1999/xlink">
    <!-- Generator: Sketch 53 (72520) - https://sketchapp.com -->
    <title>Icons/通用/arrow down</title>
    <desc>Created with Sketch.</desc>
    <g id="应用列表" stroke="none" stroke-width="1" fill="none" fill-rule="evenodd">
        <g id="接口过滤-original" transform="translate(-1162.000000, -480.000000)">
            <g id="P3" transform="translate(540.000000, 370.000000)">
                <g id="Group" transform="translate(0.000000, 86.000000)">
                    <g id="img/table" transform="translate(613.000000, 22.000000)">
                        <g id="Icons/通用/records" transform="translate(1.000000, 2.000000)">
                            <path d="M42.83136,34.80048 L61.15824,34.80048 L61.15824,38.50704 L42.83136,38.50704 L42.83136,34.80048 Z M42.83136,58.48128 L61.15824,58.48128 L61.15824,62.18784 L42.83136,62.18784 L42.83136,58.48128 Z" id="Combined-Shape" fill="#CCCCCC"></path>
                            <g id="Group-5" stroke-width="1" transform="translate(21.209760, 26.975520)"></g>
                            <g id="Group-4" stroke-width="1" transform="translate(21.209760, 28.622880)" fill="#CCCCCC">
                                <path d="M10.2278503,30.2581166 L14.5960731,34.6263394 L11.9751394,37.2472731 L7.60691656,32.8790503 L3.23869371,37.2472731 L0.61776,34.6263394 L4.98598285,30.2581166 L0.61776,25.8898937 L3.23869371,23.26896 L7.60691656,27.6371829 L11.9751394,23.26896 L14.5960731,25.8898937 L10.2278503,30.2581166 Z" id="Combined-Shape"></path>
                                <path d="M7.5224943,13.4555834 L7.35103199,13.6270457 L0.507482858,6.78349657 L3.12841657,4.16256286 L7.35164458,8.38579087 L15.6771229,0.0603125716 L18.2980566,2.68124628 L7.52310689,13.456196 Z" id="Combined-Shape-Copy"></path>
                            </g>
                            <path d="M22.6512,7.00128 L22.6512,12.76704 L15.03216,12.76704 L15.03216,76.60224 L67.33584,76.60224 L67.33584,12.76704 L59.7168,12.76704 L59.7168,7.00128 L69.80688,7.00128 C71.8539566,7.00128 73.51344,8.66076344 73.51344,10.70784 L73.51344,78.66144 C73.51344,80.7085166 71.8539566,82.368 69.80688,82.368 L12.56112,82.368 C10.5140434,82.368 8.85456,80.7085166 8.85456,78.66144 L8.85456,10.70784 C8.85456,8.66076344 10.5140434,7.00128 12.56112,7.00128 L22.6512,7.00128 Z" id="Combined-Shape" fill="#526CFF"></path>
                            <path d="M34.4009149,7.00128 C34.6138068,3.44007478 37.5693099,0.61776 41.184,0.61776 C44.7986901,0.61776 47.7541932,3.44007478 47.9670851,7.00128 L55.5984,7.00128 L55.5984,18.12096 L26.7696,18.12096 L26.7696,7.00128 L34.4009149,7.00128 Z M41.184,10.09008 C42.7761707,10.09008 44.06688,8.79937066 44.06688,7.2072 C44.06688,5.61502934 42.7761707,4.32432 41.184,4.32432 C39.5918293,4.32432 38.30112,5.61502934 38.30112,7.2072 C38.30112,8.79937066 39.5918293,10.09008 41.184,10.09008 Z" id="Combined-Shape" fill="#526CFF"></path>
                        </g>
                    </g>
                </g>
            </g>
        </g>
    </g>
</svg>