<?xml version="1.0" encoding="UTF-8"?>
<svg width="16px" height="16px" viewBox="0 0 16 16" version="1.1" xmlns="http://www.w3.org/2000/svg" xmlns:xlink="http://www.w3.org/1999/xlink">
    <!-- Generator: Sketch 51.3 (57544) - http://www.bohemiancoding.com/sketch -->
    <title>icon/form/编辑</title>
    <desc>Created with Sketch.</desc>
    <defs></defs>
    <g id="4.-日志监控" stroke="none" stroke-width="1" fill="none" fill-rule="evenodd">
        <g id="4.1.2-调用跟踪详情" transform="translate(-43.000000, -328.000000)" fill="#0980E2">
            <g id="icon/通用/节点_1_close" transform="translate(42.000000, 327.000000)">
                <g id="Group" transform="translate(1.285714, 1.285714)">
                    <path d="M7.71428571,15.4285714 C3.45380336,15.4285714 0,11.9747681 0,7.71428571 C0,3.45380336 3.45380336,0 7.71428571,0 C11.9747681,0 15.4285714,3.45380336 15.4285714,7.71428571 C15.4285714,11.9747681 11.9747681,15.4285714 7.71428571,15.4285714 Z M3.95714286,7.19999988 C3.90191438,7.19999988 3.85714286,7.2447714 3.85714286,7.29999988 L3.85714286,8.38571416 C3.85714286,8.44094264 3.90191438,8.48571416 3.95714286,8.48571416 L11.4714286,8.48571416 C11.526657,8.48571416 11.5714286,8.44094264 11.5714286,8.38571416 L11.5714286,7.29999988 C11.5714286,7.2447714 11.526657,7.19999988 11.4714286,7.19999988 L3.95714286,7.19999988 Z" id="Combined-Shape"></path>
                </g>
            </g>
        </g>
    </g>
</svg>