<?xml version="1.0" encoding="UTF-8"?>
<svg width="100px" height="60px" viewBox="0 0 100 60" version="1.1" xmlns="http://www.w3.org/2000/svg" xmlns:xlink="http://www.w3.org/1999/xlink">
    <!-- Generator: Sketch 53 (72520) - https://sketchapp.com -->
    <title>icon/100*60</title>
    <desc>Created with Sketch.</desc>
    <g id="icon/100*60" stroke="none" stroke-width="1" fill="none" fill-rule="evenodd">
        <g id="内容分发" transform="translate(28.000000, 12.000000)" fill="#454646">
            <g id="Group" transform="translate(0.257813, 0.726568)">
                <path d="M21.1922122,8.06094688 C16.1047062,8.06094688 12.1172016,12.1859517 12.1172016,17.1359574 C12.1172016,20.5734614 14.0422038,23.7359651 17.0672074,25.2484669 C17.7547082,25.6609674 18.7172093,25.385967 18.9922096,24.5609661 C19.4047101,23.8734653 19.1297098,22.9109642 18.3047088,22.6359638 C16.2422064,21.5359626 14.8672048,19.4734602 14.8672048,17.1359574 C14.8672048,13.6984534 17.617208,10.9484502 21.054712,10.9484502 C24.492216,10.9484502 27.2422192,13.6984534 27.2422192,17.1359574 C27.2422192,20.5734614 24.492216,23.3234646 21.054712,23.3234646 C20.5047114,23.3234646 19.9547107,23.598465 19.8172106,24.1484656 L17.3422077,28.6859709 C16.9297072,29.3734717 17.2047075,30.3359728 17.8922083,30.6109731 C18.1672086,30.7484733 18.3047088,30.7484733 18.5797091,30.7484733 C19.1297098,30.7484733 19.5422102,30.473473 19.8172106,29.9234723 L21.879713,26.0734678 C26.5547184,25.6609674 30.1297226,21.6734627 30.1297226,16.9984573 C30.4047229,12.1859517 26.2797181,8.06094688 21.1922122,8.06094688 Z" id="Path"></path>
                <path d="M37.2797309,17.4109578 C37.2797309,12.0484515 34.6672278,7.09844576 30.1297226,4.07344224 C29.4422218,3.66094176 28.4797206,3.79844192 28.0672202,4.48594272 C27.6547197,5.17344352 27.7922198,6.13594464 28.4797206,6.54844512 C32.0547248,9.023448 34.2547274,13.0109526 34.2547274,17.4109578 C34.2547274,21.8109629 32.0547248,25.7984675 28.4797206,28.2734704 C27.7922198,28.6859709 27.6547197,29.648472 28.0672202,30.3359728 C28.3422205,30.7484733 28.754721,31.0234736 29.3047216,31.0234736 C29.5797219,31.0234736 29.8547222,30.8859734 30.1297226,30.7484733 C34.5297277,27.7234698 37.2797309,22.6359638 37.2797309,17.4109578 Z M8.12969696,17.4109578 C8.12969696,13.1484528 10.1921994,9.16094816 13.7672035,6.68594528 C14.4547043,6.2734448 14.5922045,5.31094368 14.179704,4.62344288 C13.7672035,3.93594208 12.8047024,3.79844192 12.1172016,4.2109424 C7.85469664,7.23594592 5.2421936,12.1859517 5.2421936,17.4109578 C5.2421936,22.773464 7.85469664,27.7234698 12.3922019,30.7484733 C12.6672022,30.8859734 12.9422026,31.0234736 13.2172029,31.0234736 C13.6297034,31.0234736 14.179704,30.7484733 14.4547043,30.3359728 C14.8672048,29.648472 14.7297046,28.6859709 14.0422038,28.2734704 C10.3296995,25.7984675 8.12969696,21.6734627 8.12969696,17.4109578 Z" id="Shape"></path>
                <path d="M33.979727,0.36093792 C33.2922262,-0.18906272 32.4672253,-0.05156256 31.9172246,0.63593824 C31.367224,1.32343904 31.5047242,2.14844 32.192225,2.69844064 C36.7297302,6.13594464 39.4797334,11.4984509 39.4797334,17.2734576 C39.4797334,23.0484643 36.7297302,28.5484707 32.0547248,31.9859747 C31.367224,32.5359754 31.2297238,33.3609763 31.7797245,34.0484771 C32.0547248,34.4609776 32.4672253,34.5984778 33.0172259,34.5984778 C33.2922262,34.5984778 33.5672266,34.4609776 33.8422269,34.3234774 C39.2047331,30.3359728 42.504737,24.0109654 42.504737,17.2734576 C42.3672368,10.5359498 39.3422333,4.34844256 33.979727,0.36093792 L33.979727,0.36093792 Z M3.04219104,17.1359574 C3.04219104,11.4984509 5.65469408,6.13594464 10.0546992,2.69844064 C10.7422,2.14844 10.8797002,1.32343904 10.3296995,0.63593824 C9.77969888,-0.05156256 8.95469792,-0.18906272 8.26719712,0.36093792 C3.04219104,4.34844256 0.01718752,10.5359498 0.01718752,17.1359574 C0.01718752,23.8734653 3.1796912,30.0609725 8.54219744,34.1859773 C8.81719776,34.3234774 9.09219808,34.4609776 9.3671984,34.4609776 C9.77969888,34.4609776 10.1921994,34.3234774 10.6046998,33.910977 C11.1547005,33.2234762 11.0172003,32.3984752 10.3296995,31.8484746 C5.65469408,28.4109706 3.04219104,23.0484643 3.04219104,17.1359574 Z" id="Shape"></path>
            </g>
        </g>
    </g>
</svg>