<?xml version="1.0" encoding="UTF-8"?>
<svg width="28px" height="32px" viewBox="0 0 28 32" version="1.1" xmlns="http://www.w3.org/2000/svg" xmlns:xlink="http://www.w3.org/1999/xlink">
    <!-- Generator: Sketch 53 (72520) - https://sketchapp.com -->
    <title>url group</title>
    <desc>Created with Sketch.</desc>
    <g id="接口组" stroke="none" stroke-width="1" fill="none" fill-rule="evenodd">
        <g id="所属服务" transform="translate(-256.000000, -94.000000)">
            <g id="Card" transform="translate(236.000000, 74.000000)">
                <g id="icon/placeholder" transform="translate(16.000000, 18.000000)">
                    <rect id="Rectangle" x="0" y="0" width="35.2586057" height="35.2586057"></rect>
                    <g id="应用" stroke-width="1" fill-rule="evenodd" transform="translate(3.525861, 1.762930)" fill="#454646">
                        <g id="Group" transform="translate(0.737619, 0.594992)">
                            <path d="M1.45592223,6.75663982 L12.3964689,0.398481079 C13.2960509,-0.124385811 14.4045677,-0.124385811 15.3041496,0.398481151 L26.2457362,6.75663989 C27.1452488,7.2793812 27.6994067,8.24518091 27.6995766,9.29041574 L27.6995766,22.0021987 L27.6995766,22.0023229 C27.6995766,23.0476171 27.1453182,24.01349 26.2456288,24.5360359 L15.3041462,30.8944737 C14.4044673,31.4169812 13.2961447,31.4169812 12.3964657,30.8944738 L1.45591905,24.5359662 C0.555449708,24.0139121 0.000383614478,23.0479171 -1.16442097e-06,22.0021904 L-1.16442097e-06,9.28866341 L-1.25845886e-06,9.28874505 C0.00118793019,8.24369858 0.556087445,7.27859649 1.45584957,6.75667147 L1.45592223,6.75663982 Z M13.9206787,28.4806977 L24.9298616,22.0025473 L24.860532,9.16902878 L13.7813263,2.81191647 L2.77075679,9.28867155 L2.84008632,22.1221901 L13.7813263,28.4789536 C13.8023576,28.4913715 13.8262716,28.4979889 13.8506558,28.4981383 L13.9206787,28.4806977 Z M13.1577072,13.849747 L8.81733186,11.3281797 C7.89420915,10.7917057 7.89420915,9.45086948 8.81733186,8.91439547 L13.1577072,6.39282813 C13.5861463,6.14375808 14.1141253,6.14375808 14.5425645,6.39282809 L18.8829398,8.91439544 C19.8064091,9.45086944 19.8064091,10.7917056 18.8829398,11.3281796 L14.5425645,13.849747 C14.1139937,14.0983137 13.5862781,14.0983137 13.1577072,13.849747 Z M12.6526415,17.1470739 L12.6526415,22.1898598 C12.6526415,23.2628078 11.4983048,23.9339235 10.5751821,23.3967519 L6.23307358,20.8751845 C5.80429453,20.6265807 5.53998263,20.1665958 5.53977811,19.6686412 L5.53977811,14.6255065 C5.53977811,13.5525585 6.6941148,12.8814427 7.61723751,13.4186144 L11.9593461,15.9401817 C12.3882325,16.1888476 12.6525617,16.6489937 12.6526415,17.1470739 Z M15.7419654,15.9401818 L20.0823407,13.4189633 C21.0058101,12.8824893 22.1598002,13.5529074 22.1598002,14.6258554 L22.1598002,19.6686413 L22.1598002,19.6684739 C22.1598002,20.1664669 21.8955035,20.6265509 21.4666504,20.8751009 L17.1266218,23.3966683 C16.2031524,23.9331423 15.0491624,23.2627242 15.0491624,22.1897762 L15.0491624,17.1470601 L15.0491624,17.1468794 C15.0491623,16.6488516 15.3134289,16.1887222 15.742267,15.940078 L15.7419654,15.9401818 Z" id="Combined-Shape"></path>
                        </g>
                    </g>
                </g>
            </g>
        </g>
    </g>
</svg>