<?xml version="1.0" encoding="UTF-8"?>
<svg width="25px" height="25px" viewBox="0 0 25 25" version="1.1" xmlns="http://www.w3.org/2000/svg" xmlns:xlink="http://www.w3.org/1999/xlink">
    <!-- Generator: Sketch 53 (72520) - https://sketchapp.com -->
    <title>icon/部署组详情/log_config</title>
    <desc>Created with Sketch.</desc>
    <g id="icon/部署组详情/log_config" stroke="none" stroke-width="1" fill="none" fill-rule="evenodd">
        <path d="M11.4207375,17.0254777 C11.3164728,17.3420455 11.2314352,17.667347 11.1670067,18 L7.26016517,18 C7.82185566,17.6751592 8.13530914,17.3503185 8.20052561,17.0254777 L11.4207375,17.0254777 Z M16.9171975,11.8095373 L16.9171975,6.19745223 L2.08280255,6.19745223 L2.08280255,7.44267516 L1,7.44267516 L1,1.33 C1,1.14774603 1.14774603,1 1.33,1 L17.67,1 C17.852254,1 18,1.14774603 18,1.33 L18,11.5945987 C17.6306067,11.6416462 17.2690803,11.7138846 16.9171975,11.8095373 Z M15.9968153,3.00540845 L15.9968153,3.00318471 L12.1528664,3.00318471 C11.794057,3.00318471 11.5031847,3.29405704 11.5031847,3.65286624 C11.5031847,4.01167544 11.794057,4.30254777 12.1528662,4.30254777 L15.9968153,4.30254777 L15.9968153,4.30032403 C16.3302931,4.27281268 16.5923567,3.99344358 16.5923567,3.65286624 C16.5923567,3.3122889 16.3302931,3.03291981 15.9968153,3.00540845 Z M7.60509554,4.30254777 C7.96390474,4.30254777 8.25477707,4.01167544 8.25477707,3.65286624 C8.25477707,3.29405704 7.96390474,3.00318471 7.60509554,3.00318471 C7.24628634,3.00318471 6.95541401,3.29405704 6.95541401,3.65286624 C6.95541401,4.01167544 7.24628634,4.30254777 7.60509554,4.30254777 Z M5.43949045,4.30254777 C5.79829965,4.30254777 6.08917197,4.01167544 6.08917197,3.65286624 C6.08917197,3.29405704 5.79829965,3.00318471 5.43949045,3.00318471 C5.08068125,3.00318471 4.78980892,3.29405704 4.78980892,3.65286624 C4.78980892,4.01167544 5.08068125,4.30254777 5.43949045,4.30254777 Z M3.27388535,4.30254777 C3.63269455,4.30254777 3.92356688,4.01167544 3.92356688,3.65286624 C3.92356688,3.29405704 3.63269455,3.00318471 3.27388535,3.00318471 C2.91507615,3.00318471 2.62420382,3.29405704 2.62420382,3.65286624 C2.62420382,4.01167544 2.91507615,4.30254777 3.27388535,4.30254777 Z M6.25159236,7.28025478 C8.0999349,7.30876999 9.78874735,9.00046568 9.82484076,10.8535032 L9.34082944,10.8535032 C9.24138925,9.18598726 7.90882307,7.84800284 6.25159236,7.75524275 L6.25159236,7.28025478 Z M6.25159236,8.39012739 C7.56070134,8.48126327 8.61029794,9.53519108 8.70756971,10.8535032 L8.22247276,10.8535032 C8.12736801,9.80516915 7.29396957,8.96960792 6.25159236,8.88081811 L6.25159236,8.39012739 Z M3.88080905,18 C3.40690735,18 2.93509125,17.9854103 2.46534659,17.9562304 C1.99560193,17.9270505 1.50715795,17.8582703 1,17.7498879 L1,9.34612003 C1.39907511,9.27108602 1.83555696,9.21481135 2.30945866,9.17729434 C2.78336035,9.13977733 3.22399917,9.12101911 3.63138835,9.12101911 C4.18011662,9.12101911 4.68518848,9.1606198 5.14661908,9.23982237 C5.60804968,9.31902495 6.00504031,9.454501 6.33760291,9.6462546 C6.6701655,9.8380082 6.92997613,10.0902021 7.11704258,10.4028438 C7.30410904,10.7154855 7.39764087,11.1010712 7.39764087,11.5596125 C7.39764087,12.2515928 7.06508326,12.7976655 6.39995808,13.197847 C6.94868636,13.4062748 7.32281366,13.6897324 7.52235122,14.0482282 C7.72188877,14.4067241 7.82165605,14.811068 7.82165605,15.2612721 C7.82165605,16.1700174 7.49117693,16.8536504 6.83020878,17.3121916 C6.16924063,17.7707328 5.18611722,18 3.88080905,18 Z M2.89559729,14.1107563 L2.89559729,16.3492599 C3.0369364,16.3659341 3.19074429,16.3784396 3.35702558,16.3867767 C3.52330688,16.3951138 3.70621356,16.3992823 3.90575111,16.3992823 C4.48773565,16.3992823 4.95747326,16.3159124 5.31497805,16.1491702 C5.67248284,15.9824279 5.85123255,15.6739594 5.85123255,15.2237553 C5.85123255,14.8235738 5.70158163,14.538032 5.40227529,14.3671212 C5.10296896,14.1962104 4.67480105,14.1107563 4.11775871,14.1107563 L2.89559729,14.1107563 Z M2.89559729,12.622589 L3.84339594,12.622589 C4.44200861,12.622589 4.87017652,12.5454719 5.12791253,12.3912353 C5.38564854,12.2369987 5.51451461,11.9889733 5.51451461,11.6471517 C5.51451461,11.296993 5.38149157,11.0510518 5.11544149,10.9093209 C4.84939142,10.76759 4.45863624,10.6967256 3.94316422,10.6967256 C3.77688292,10.6967256 3.59813321,10.6988098 3.40690972,10.7029784 C3.21568623,10.7071469 3.04525046,10.7175682 2.89559729,10.7342424 L2.89559729,12.622589 Z" id="Combined-Shape" fill="#525252"></path>
        <g id="Service" transform="translate(11.000000, 11.000000)" fill="#525252">
            <path d="M11.083176,6.31969643 C11.1299377,6.69906602 11.1246124,7.07822682 11.0711559,7.4478597 C11.2727343,7.56607751 11.4756246,7.67676654 11.6817625,7.7889781 C11.7361775,7.81755604 11.7830803,7.86290894 11.8054148,7.91818874 C11.8277491,7.97346807 11.8266938,8.02390777 11.807403,8.0822652 C11.7389292,8.33856296 11.2741609,9.57827244 11.0648497,9.66283966 C11.006042,9.68271567 10.9428899,9.68597993 10.8823464,9.67227278 L10.2042206,9.47711071 C9.98000519,9.7636974 9.71763212,10.0235575 9.42075703,10.2480788 C9.48942067,10.5053001 9.55128283,10.7673328 9.58355428,11.0269101 C9.60014884,11.1389668 9.53713746,11.2476319 9.43163941,11.2888905 L8.06618877,11.8405684 C7.95515749,11.8854279 7.82443154,11.8448129 7.76967866,11.7460233 L7.37591603,11.0812222 C7.00047213,11.1289145 6.62510752,11.1255401 6.25885473,11.0749332 L5.89349916,11.6878988 C5.865004,11.7415076 5.81830241,11.7831797 5.76180673,11.805409 C5.70315622,11.8275064 5.63814788,11.8255208 5.580955,11.7998853 C5.13564129,11.6363052 4.55069596,11.4291124 4.14793657,11.1763381 C4.05375565,11.1149502 4.01008251,10.9997053 4.0399258,10.8913181 C4.09747503,10.6678225 4.16378984,10.4464595 4.22760578,10.2234123 C3.92023094,9.98654387 3.64299488,9.70612561 3.40635525,9.38659651 L2.65426469,9.56878957 C2.54069529,9.58926319 2.42846556,9.52671501 2.38614011,9.41935743 L1.83465309,8.05437915 C1.79723842,7.96177461 1.82627566,7.82143685 1.91124432,7.76512318 L2.59684346,7.36046136 C2.54999889,6.98053657 2.55539439,6.60081987 2.60905682,6.23067139 C2.40725545,6.11110105 2.20283748,5.99596576 1.99594968,5.88535098 C1.94193849,5.86042695 1.89886094,5.81667491 1.874779,5.76228255 C1.8524447,5.70700322 1.85964227,5.65408191 1.87279086,5.59820608 C1.93859212,5.33529365 2.40603292,4.10219884 2.61534413,4.01763162 C2.67506438,3.99676606 2.73990379,3.99561261 2.80032893,4.01434061 L3.47414448,4.20498039 C3.69873337,3.91754823 3.96167958,3.65695516 4.2593,3.43187804 C4.19069114,3.17482161 4.12888987,2.91296505 4.0966399,2.65356061 C4.07978178,2.54139139 4.14274644,2.43247467 4.24836259,2.39110721 L5.61381323,1.83942934 C5.72484451,1.79456979 5.85557046,1.83518478 5.91032333,1.93397437 L6.3040871,2.59877743 C6.68010619,2.55101237 7.05604574,2.55447052 7.42283162,2.60530015 L7.79264642,1.98961785 C7.81792085,1.93638907 7.86296427,1.89512046 7.91819663,1.8745893 C7.97347604,1.85225497 8.0386818,1.85448926 8.09656676,1.8739708 C8.54436208,2.04369302 9.12930741,2.25088589 9.53454766,2.5098005 C9.62746253,2.56947379 9.67039366,2.68291331 9.64026772,2.78915077 C9.58248118,3.01209371 9.51613862,3.23342633 9.45233665,3.45654336 C9.75848594,3.69245903 10.0347377,3.97157719 10.2707592,4.28951187 L11.0257379,4.11120682 C11.1380717,4.08725529 11.2514827,4.15575076 11.2938606,4.26063971 L11.2936784,4.26016997 L11.8455457,5.62608952 C11.8829603,5.71869406 11.8539231,5.85903182 11.7628122,5.9178271 L11.083176,6.31969643 Z M8.72093524,6.59375919 L9.01586346,6.20515515 L8.79501277,5.6917194 L8.30965169,5.63912531 L7.99599187,5.33098241 L7.92942953,4.84764204 L7.41072751,4.64310492 L7.03100593,4.95006763 L6.59558704,4.9541539 L6.20476009,4.65961765 L5.6912683,4.88015052 L5.63873009,5.36582855 L5.33058719,5.67948836 L4.84719083,5.74573311 L4.64270959,6.26475207 L4.9487939,6.64692056 L4.95288017,7.08233946 L4.65922232,7.47071949 L4.8797552,7.98421129 L5.36543322,8.03674949 L5.67909304,8.34489239 L5.74533778,8.82828875 L6.26480474,9.03531071 L6.64702919,8.72954377 L7.08244809,8.7254575 L7.47105212,9.02038571 L7.98454392,8.79985284 L8.03708212,8.31417481 L8.34522502,8.000515 L8.82862138,7.93427025 L9.03564334,7.41480329 L8.7298764,7.03257884 L8.72093424,6.59375981 Z" id="Combined-Shape"></path>
        </g>
    </g>
</svg>