<?xml version="1.0" encoding="UTF-8"?>
<svg width="100px" height="60px" viewBox="0 0 100 60" version="1.1" xmlns="http://www.w3.org/2000/svg" xmlns:xlink="http://www.w3.org/1999/xlink">
    <!-- Generator: Sketch 53 (72520) - https://sketchapp.com -->
    <title>img/服务详情/message_queue</title>
    <desc>Created with Sketch.</desc>
    <g id="img/服务详情/message_queue" stroke="none" stroke-width="1" fill="none" fill-rule="evenodd">
        <path d="M13,23 L13,20 L99,20 L99,27 L13,27 L13,24 L7.5,24 L6.5,24 L6.5,20 L5,20 L7,16 L9,20 L7.5,20 L7.5,23 L13,23 Z M19,37 L19,34 L99,34 L99,41 L19,41 L19,38 L14.5,38 L13.5,38 L13.5,34 L12,34 L14,30 L16,34 L14.5,34 L14.5,37 L19,37 Z M26,51 L26,48 L99,48 L99,55 L26,55 L26,52 L21.5,52 L20.5,52 L20.5,48 L19,48 L21,44 L23,48 L21.5,48 L21.5,51 L26,51 Z M4,5 L99,5 L99,12 L4,12 L4,5 Z" id="Combined-Shape" fill="#748CFF"></path>
    </g>
</svg>