<?xml version="1.0" encoding="UTF-8"?>
<svg width="98px" height="53px" viewBox="0 0 98 53" version="1.1" xmlns="http://www.w3.org/2000/svg" xmlns:xlink="http://www.w3.org/1999/xlink">
    <!-- Generator: Sketch 53 (72520) - https://sketchapp.com -->
    <title>minicharts_bars</title>
    <desc>Created with Sketch.</desc>
    <g id="minicharts_bars" stroke="none" stroke-width="1" fill="none" fill-rule="evenodd">
        <rect id="Rectangle" fill="#E3E3E3" x="2" y="43" width="93" height="1"></rect>
        <path d="M3.03508772,28 L7.08187135,28 L7.08187135,42 L3.03508772,42 L3.03508772,28 Z M12.1403509,24 L16.1871345,24 L16.1871345,42 L12.1403509,42 L12.1403509,24 Z M23.2690058,22 L27.3157895,22 L27.3157895,42 L23.2690058,42 L23.2690058,22 Z M30.3508772,22 L34.3976608,22 L34.3976608,42 L30.3508772,42 L30.3508772,22 Z M37.4327485,22 L41.4795322,22 L41.4795322,42 L37.4327485,42 L37.4327485,22 Z M78.9122807,15 L82.9590643,15 L82.9590643,42 L78.9122807,42 L78.9122807,15 Z M62.7251462,22 L66.7719298,22 L66.7719298,42 L62.7251462,42 L62.7251462,22 Z M90.0409357,22 L94.0877193,22 L94.0877193,42 L90.0409357,42 L90.0409357,22 Z" id="Combined-Shape" fill="#7C38A1"></path>
    </g>
</svg>