<?xml version="1.0" encoding="UTF-8"?>
<svg width="400px" height="400px" viewBox="0 0 400 400" version="1.1" xmlns="http://www.w3.org/2000/svg" xmlns:xlink="http://www.w3.org/1999/xlink">
    <!-- Generator: Sketch 53 (72520) - https://sketchapp.com -->
    <title>Icons/通用/filter none</title>
    <desc>Created with Sketch.</desc>
    <defs>
        <path d="M27.9889514,0 C13.1389704,0 0.98895144,12.150019 0.98895144,27 C0.98895144,41.849981 13.1389704,54 27.9889514,54 C42.8389325,54 54.9889514,41.849981 54.9889514,27 C54.9889514,12.150019 42.8389325,7.19425644e-15 27.9889514,0 Z" id="path-1"></path>
        <mask id="mask-2" maskContentUnits="userSpaceOnUse" maskUnits="objectBoundingBox" x="0" y="0" width="54" height="54" fill="white">
            <use xlink:href="#path-1"></use>
        </mask>
    </defs>
    <g id="Icons/通用/filter-none" stroke="none" stroke-width="1" fill="none" fill-rule="evenodd">
        <g id="Group-5" transform="translate(103.000000, 131.000000)"></g>
        <g id="Group-14" transform="translate(100.000000, 15.000000)">
            <path d="M20.0651389,133.582872 C41.7010857,141.34366 69.3597512,146 99.5,146 C129.640249,146 157.298914,141.34366 178.934861,133.582872 C147.847787,179.342265 128.289587,220.437217 119.825498,258.091255 C113.403124,254.99957 106.203002,253.267166 98.5982565,253.267166 C91.631897,253.267166 85.0050803,254.720922 79.0046302,257.34161 C70.4504765,219.891908 50.9460361,179.038777 20.0651389,133.582872 Z M9.89391426,119.01719 C8.16732462,116.608465 6.41001123,114.187019 4.62191465,111.752682 C3.95934952,110.850658 1.69122277,108.135233 0.598256508,104.71008 C2.61625973,99.5757846 9.64795444,94.8625191 20.2972901,90.9599596 C13.3468591,93.6541147 9.25581395,96.5903124 9.25581395,99.4769673 C9.25581395,109.063251 44.0297174,119.103311 99.5,119.103311 C154.970283,119.103311 189.744186,110.956593 189.744186,99.4769673 C189.744186,92.9770354 167.659816,85.9200917 138.938879,82.2671662 C171.07226,86.1435773 194.43299,94.6125974 198.401743,104.71008 C197.308777,108.135233 195.04065,110.850658 194.378085,111.752682 C192.589989,114.187019 190.832675,116.608465 189.106086,119.01719 C168.127954,129.366659 135.78503,136 99.5,136 C63.2149696,136 30.8720464,129.366659 9.89391426,119.01719 Z" id="Combined-Shape" fill="#CCCCCC"></path>
            <g id="Rectangle-Copy-+-Rectangle-Copy-3-Mask" transform="translate(23.255814, 0.758024)" fill="#7C38A1">
                <path d="M71.9765172,113.964692 C69.6289652,113.942065 67.327193,113.900852 65.0727284,113.842058 L54.6305836,103.378106 L45.2331088,112.795206 C43.1008822,112.619972 41.0315206,112.427344 39.027048,112.218651 L54.6305836,96.5825341 L71.9765172,113.964692 Z M119.291393,87.0464301 C119.349289,87.054864 119.40714,87.0633117 119.464944,87.0717731 L139.709752,107.35886 L138.421461,108.649841 C130.094495,110.710205 118.710918,112.262086 104.79716,113.146788 L99.0212945,107.35886 L119.291393,87.0464301 Z M22.2984029,94.1799367 C10.3810296,94.1799367 0.720089661,84.4988213 0.720089661,72.5565601 C0.720089661,60.614299 10.3810296,50.9331835 22.2984029,50.9331835 C34.2157763,50.9331835 43.8767162,60.614299 43.8767162,72.5565601 C43.8767162,84.4988213 34.2157763,94.1799367 22.2984029,94.1799367 Z M149.370692,86.9721445 C137.453319,86.9721445 127.792379,77.2910291 127.792379,65.3487679 C127.792379,53.4065068 137.453319,43.7253913 149.370692,43.7253913 C161.288065,43.7253913 170.949005,53.4065068 170.949005,65.3487679 C170.949005,77.2910291 161.288065,86.9721445 149.370692,86.9721445 Z M104.979981,0.478638036 L125.32421,20.865353 L104.979981,41.252068 L84.6357523,20.865353 L104.979981,0.478638036 Z M63.0574391,58.1409757 C55.1125235,58.1409757 48.6718969,51.6868987 48.6718969,43.7253913 C48.6718969,35.7638839 55.1125235,29.3098069 63.0574391,29.3098069 C71.0023546,29.3098069 77.4429812,35.7638839 77.4429812,43.7253913 C77.4429812,51.6868987 71.0023546,58.1409757 63.0574391,58.1409757 Z" id="Combined-Shape"></path>
            </g>
            <path d="M98,348 C73.699471,348 54,328.300529 54,304 C54,279.699471 73.699471,260 98,260 C122.300529,260 142,279.699471 142,304 C142,328.300529 122.300529,348 98,348 Z M97.6923749,336.190834 C115.653635,336.190834 130.214114,321.630356 130.214114,303.669095 C130.214114,285.707835 115.653635,271.147356 97.6923749,271.147356 C79.7311144,271.147356 65.1706358,285.707835 65.1706358,303.669095 C65.1706358,321.630356 79.7311144,336.190834 97.6923749,336.190834 Z" id="Combined-Shape" fill="#CCCCCC"></path>
            <path d="M112.686747,96.1197785 C102.745621,96.1197785 94.686747,88.060904 94.686747,78.1197785 C94.686747,68.178653 102.745621,60.1197785 112.686747,60.1197785 C122.627872,60.1197785 130.686747,68.178653 130.686747,78.1197785 C130.686747,88.060904 122.627872,96.1197785 112.686747,96.1197785 Z M112.686747,89.1197785 C118.761879,89.1197785 123.686747,84.1949108 123.686747,78.1197785 C123.686747,72.0446463 118.761879,67.1197785 112.686747,67.1197785 C106.611615,67.1197785 101.686747,72.0446463 101.686747,78.1197785 C101.686747,84.1949108 106.611615,89.1197785 112.686747,89.1197785 Z" id="Combined-Shape" fill="#7C38A1"></path>
            <g id="圆" transform="translate(70.000000, 277.000000)">
                <use id="Path" stroke="#CCCCCC" mask="url(#mask-2)" stroke-width="4" stroke-dasharray="3,4" xlink:href="#path-1"></use>
                <path d="M27.9889514,16 C21.9389592,16 16.9889514,20.9500077 16.9889514,27 C16.9889514,33.0499923 21.9389592,38 27.9889514,38 C34.0389437,38 38.9889514,33.0499923 38.9889514,27 C38.9889514,20.9500077 34.0389437,16 27.9889514,16 Z" id="Path" fill="#CCCCCC"></path>
            </g>
        </g>
    </g>
</svg>