<?xml version="1.0" encoding="UTF-8"?>
<svg width="92px" height="92px" viewBox="0 0 92 92" version="1.1" xmlns="http://www.w3.org/2000/svg" xmlns:xlink="http://www.w3.org/1999/xlink">
    <!-- Generator: Sketch 53 (72520) - https://sketchapp.com -->
    <title>img/服务详情/node</title>
    <desc>Created with Sketch.</desc>
    <defs>
        <rect id="path-1" x="0" y="0" width="92" height="92"></rect>
    </defs>
    <g id="img/服务详情/node" stroke="none" stroke-width="1" fill="none" fill-rule="evenodd">
        <g id="icon/功能">
            <mask id="mask-2" fill="white">
                <use xlink:href="#path-1"></use>
            </mask>
            <g id="Mask"></g>
            <g id="endpoint" opacity="0.2" mask="url(#mask-2)" fill="#FFFFFF">
                <g transform="translate(-27.000000, 24.000000)" id="Combined-Shape">
                    <path d="M43.0740206,21.8928814 L26.4853402,21.8928814 C24.6992513,21.8928814 23.2513402,23.3407925 23.2513402,25.1268814 L23.2513402,41.7212203 L18.9714433,41.7212203 C16.3589087,41.7212203 14.2410309,39.602738 14.2410309,36.9894576 L14.2410309,17.6117627 C14.2410309,14.9984823 16.3589087,12.88 18.9714433,12.88 L38.3436082,12.88 C40.9561429,12.88 43.0740206,14.9984823 43.0740206,17.6117627 L43.0740206,21.8928814 Z M42.1729897,70.3371186 L42.1729897,74.6182373 C42.1729897,77.2315177 40.0551119,79.35 37.4425773,79.35 L18.0704124,79.35 C15.4578778,79.35 13.34,77.2315177 13.34,74.6182373 L13.34,55.2405424 C13.34,52.627262 15.4578778,50.5087797 18.0704124,50.5087797 L22.3503093,50.5087797 L22.3503093,67.1031186 C22.3503093,68.8892075 23.7982204,70.3371186 25.5843093,70.3371186 L42.1729897,70.3371186 Z M50.0570103,21.8928814 L50.0570103,17.6117627 C50.0570103,14.9984823 52.1748881,12.88 54.7874227,12.88 L74.1595876,12.88 C76.7721222,12.88 78.89,14.9984823 78.89,17.6117627 L78.89,36.9894576 C78.89,39.602738 76.7721222,41.7212203 74.1595876,41.7212203 L69.8796907,41.7212203 L69.8796907,25.1268814 C69.8796907,23.3407925 68.4317796,21.8928814 66.6456907,21.8928814 L50.0570103,21.8928814 Z M50.0570103,70.3371186 L66.6456907,70.3371186 C68.4317796,70.3371186 69.8796907,68.8892075 69.8796907,67.1031186 L69.8796907,50.5087797 L74.1595876,50.5087797 C76.7721222,50.5087797 78.89,52.627262 78.89,55.2405424 L78.89,74.6182373 C78.89,77.2315177 76.7721222,79.35 74.1595876,79.35 L54.7874227,79.35 C52.1748881,79.35 50.0570103,77.2315177 50.0570103,74.6182373 L50.0570103,70.3371186 Z M32.2840948,27.0752881 L61.0721938,27.0752881 C63.5727182,27.0752881 65.5997938,29.1023637 65.5997938,31.6028881 L65.5997938,60.4017898 C65.5997938,62.9023143 63.5727182,64.9293898 61.0721938,64.9293898 L32.2840948,64.9293898 C29.7835704,64.9293898 27.7564948,62.9023143 27.7564948,60.4017898 L27.7564948,31.6028881 C27.7564948,29.1023637 29.7835704,27.0752881 32.2840948,27.0752881 Z"></path>
                </g>
            </g>
        </g>
    </g>
</svg>