<?xml version="1.0" encoding="UTF-8"?>
<svg width="92px" height="92px" viewBox="0 0 92 92" version="1.1" xmlns="http://www.w3.org/2000/svg" xmlns:xlink="http://www.w3.org/1999/xlink">
    <!-- Generator: Sketch 53 (72520) - https://sketchapp.com -->
    <title>img/card/request_num</title>
    <desc>Created with Sketch.</desc>
    <defs>
        <rect id="path-1" x="0" y="0" width="92" height="92"></rect>
    </defs>
    <g id="img/card/request_num" stroke="none" stroke-width="1" fill="none" fill-rule="evenodd">
        <g id="icon/功能">
            <mask id="mask-2" fill="white">
                <use xlink:href="#path-1"></use>
            </mask>
            <g id="Mask"></g>
            <g id="personal" opacity="0.38" mask="url(#mask-2)" fill="#FFFFFF">
                <g transform="translate(-23.000000, 24.000000)">
                    <circle id="Oval" cx="45" cy="28.35" r="15.3"></circle>
                    <path d="M60.525,81.9 L29.475,81.9 L29.475,67.275 L26.325,67.275 L26.325,81.9 L22.475,81.9 C17.3939803,81.9 13.275,77.7810197 13.275,72.7 L13.275,53.69 C13.275,50.1332862 16.1582862,47.25 19.715,47.25 L70.285,47.25 C73.8417138,47.25 76.725,50.1332862 76.725,53.69 L76.725,72.7 C76.725,77.7810197 72.6060197,81.9 67.525,81.9 L63.675,81.9 L63.675,67.275 L60.525,67.275 L60.525,81.9 Z" id="Combined-Shape"></path>
                </g>
            </g>
        </g>
    </g>
</svg>