<?xml version="1.0" encoding="UTF-8"?>
<svg width="100px" height="60px" viewBox="0 0 100 60" version="1.1" xmlns="http://www.w3.org/2000/svg" xmlns:xlink="http://www.w3.org/1999/xlink">
    <!-- Generator: Sketch 53 (72520) - https://sketchapp.com -->
    <title>img/接口详情/route_add</title>
    <desc>Created with Sketch.</desc>
    <g id="img/接口详情/route_add" stroke="none" stroke-width="1" fill="none" fill-rule="evenodd">
        <g id="Group" transform="translate(8.000000, 6.000000)" fill="#A972CC">
            <g id="Applience">
                <path d="M51.5648463,17.0909091 C46.5860679,19.8226815 42.8405494,24.5390924 41.3815747,30.1818182 L1.62380952,30.1818182 C1.12675325,30.1818182 0.723809524,29.7788745 0.723809524,29.2818182 L0.723809524,17.9909091 C0.723809524,17.4938528 1.12675325,17.0909091 1.62380952,17.0909091 L51.5648463,17.0909091 Z M40.7770733,33.8181818 C40.735473,34.3581454 40.7142857,34.9038593 40.7142857,35.4545455 C40.7142857,39.6833973 41.9637176,43.6190325 44.1118992,46.9090909 L1.62380952,46.9090909 C1.12675325,46.9090909 0.723809524,46.5061472 0.723809524,46.0090909 L0.723809524,34.7181818 C0.723809524,34.2211255 1.12675325,33.8181818 1.62380952,33.8181818 L40.7770733,33.8181818 Z M4.7047619,22.1818182 L4.7047619,25.0909091 L21.1714286,25.0909091 L21.1714286,22.1818182 L4.7047619,22.1818182 Z M1.62380952,0.363636364 L56.4619048,0.363636364 C56.958961,0.363636364 57.3619048,0.766580089 57.3619048,1.26363636 L57.3619048,12.5545455 C57.3619048,13.0516017 56.958961,13.4545455 56.4619048,13.4545455 L1.62380952,13.4545455 C1.12675325,13.4545455 0.723809524,13.0516017 0.723809524,12.5545455 L0.723809524,1.26363636 C0.723809524,0.766580089 1.12675325,0.363636364 1.62380952,0.363636364 Z M4.7047619,5.45454545 L4.7047619,8.36363636 L21.1714286,8.36363636 L21.1714286,5.45454545 L4.7047619,5.45454545 Z M4.7047619,38.9090909 L4.7047619,41.8181818 L21.1714286,41.8181818 L21.1714286,38.9090909 L4.7047619,38.9090909 Z" id="Combined-Shape"></path>
            </g>
            <path d="M61.5238095,50 C53.5288303,50 47.047619,43.4877782 47.047619,35.4545455 C47.047619,27.4213127 53.5288303,20.9090909 61.5238095,20.9090909 C69.5187888,20.9090909 76,27.4213127 76,35.4545455 C76,43.4877782 69.5187888,50 61.5238095,50 Z M61.5238095,46.3636364 C67.520044,46.3636364 72.3809524,41.47947 72.3809524,35.4545455 C72.3809524,29.4296209 67.520044,24.5454545 61.5238095,24.5454545 C55.5275751,24.5454545 50.6666667,29.4296209 50.6666667,35.4545455 C50.6666667,41.47947 55.5275751,46.3636364 61.5238095,46.3636364 Z" id="Combined-Shape"></path>
            <path d="M59.7142857,33.6363636 L59.7142857,29.0727273 C59.7142857,28.0786147 60.5201732,27.2727273 61.5142857,27.2727273 L61.5333333,27.2727273 C62.5274459,27.2727273 63.3333333,28.0786147 63.3333333,29.0727273 L63.3333333,33.6363636 L67.8666667,33.6363636 C68.8607792,33.6363636 69.6666667,34.4422511 69.6666667,35.4363636 L69.6666667,35.4727273 C69.6666667,36.4668398 68.8607792,37.2727273 67.8666667,37.2727273 L63.3333333,37.2727273 L63.3333333,41.8363636 C63.3333333,42.8304762 62.5274459,43.6363636 61.5333333,43.6363636 L61.5142857,43.6363636 C60.5201732,43.6363636 59.7142857,42.8304762 59.7142857,41.8363636 L59.7142857,37.2727273 L55.1809524,37.2727273 C54.1868398,37.2727273 53.3809524,36.4668398 53.3809524,35.4727273 L53.3809524,35.4363636 C53.3809524,34.4422511 54.1868398,33.6363636 55.1809524,33.6363636 L59.7142857,33.6363636 Z" id="Combined-Shape"></path>
        </g>
    </g>
</svg>