<?xml version="1.0" encoding="UTF-8"?>
<svg width="100px" height="60px" viewBox="0 0 100 60" version="1.1" xmlns="http://www.w3.org/2000/svg" xmlns:xlink="http://www.w3.org/1999/xlink">
    <!-- Generator: Sketch 53 (72520) - https://sketchapp.com -->
    <title>img/服务详情/router_rules</title>
    <desc>Created with Sketch.</desc>
    <g id="img/服务详情/router_rules" stroke="none" stroke-width="1" fill="none" fill-rule="evenodd">
        <path d="M27.4487368,29.7477765 L44.5100845,46.6413863 L50.5222222,46.6413863 L50.5222222,42.2291667 L69.3111111,42.2291667 L69.3111111,53 L50.5222222,53 L50.5222222,48.5997196 L43.6,48.5997196 L26.7888889,31.8733879 L26.7888889,35.375 L8,35.375 L8,24.6041667 L26.7888889,24.6041667 L26.7888889,27.6221651 L43.6,10.8958333 L50.5222222,10.8958333 L50.5222222,6 L69.3111111,6 L69.3111111,10.8958333 L78.2111111,10.8958333 L78.2111111,6 L97,6 L97,16.7708333 L78.2111111,16.7708333 L78.2111111,12.8541667 L69.3111111,12.8541667 L69.3111111,16.7708333 L50.5222222,16.7708333 L50.5222222,12.8541667 L44.5100845,12.8541667 L27.4487368,29.7477765 Z" id="Combined-Shape" fill="#A982CC"></path>
        <g id="对勾" transform="translate(14.000000, 27.000000)" fill="#FFFFFF" fill-rule="nonzero">
            <path d="M3.00137799,4.703692 L1.14643575,2.85371888 L1.8564158,2.14372723 L3.00137799,3.29371337 L5.26130642,1.02874278 L5.26130658,1.02874297 C4.1726322,-0.220188014 2.27763676,-0.350084619 1.02872617,0.738607532 C-0.220184419,1.82729968 -0.350078904,3.72232605 0.738595474,4.97125703 C1.82726985,6.22018801 3.72226528,6.35008462 4.97117588,5.26139247 C5.92401871,4.43078799 6.25399161,3.09201425 5.79629274,1.91373136 L3.00137799,4.703692 Z" id="Path"></path>
        </g>
    </g>
</svg>
