<?xml version="1.0" encoding="UTF-8"?>
<svg width="25px" height="25px" viewBox="0 0 25 25" version="1.1" xmlns="http://www.w3.org/2000/svg" xmlns:xlink="http://www.w3.org/1999/xlink">
    <!-- Generator: Sketch 53 (72520) - https://sketchapp.com -->
    <title>icon/部署组详情/route_config</title>
    <desc>Created with Sketch.</desc>
    <g id="icon/部署组详情/route_config" stroke="none" stroke-width="1" fill="none" fill-rule="evenodd">
        <path d="M12.4999998,14.7051425 C11.9773732,15.4507581 11.5373941,16.258541 11.1933626,17.1151907 L6.63153993,15.6389891 C6.22128582,15.5062812 5.77779336,15.5062812 5.3675392,15.6389891 L1.31554449,16.9501188 C0.791475745,17.1193708 0.225358206,16.8439672 0.0510885663,16.334988 C0.0173299516,16.2363913 8.11127205e-05,16.1331723 5.79825741e-08,16.0292664 L5.79825741e-08,3.2375005 L-2.42295073e-12,3.23703306 C-1.30042348e-07,2.40061502 0.551306983,1.65811954 1.36845788,1.39400241 L1.36800092,1.39415007 L5.36800341,0.0995309051 C5.77825757,-0.0331769678 6.22175004,-0.0331769678 6.6320042,0.0995309049 L11.3680032,1.63209583 C11.7782574,1.7648037 12.2217499,1.7648037 12.632004,1.63209583 L16.6839987,0.320966141 C17.2079835,0.151469034 17.7742358,0.426607854 17.9487593,0.935506947 C17.9826178,1.03423661 17.9999186,1.13760909 18,1.24167052 L18,10.3911265 C17.6588433,10.5232857 17.3252346,10.6705917 16.9999989,10.8322193 L16.9999989,1.24263798 L12.9490003,2.55376766 C12.8024402,2.60119963 12.6523261,2.63756621 12.4999998,2.66254293 L12.4999998,5.92143137 C12.3287708,5.88705308 12.1513982,5.86898998 11.9696816,5.86898998 C11.8093259,5.86898998 11.652353,5.88305601 11.4999994,5.90998697 L11.4999994,2.66254285 C11.3476719,2.63756609 11.1975595,2.60119951 11.0509989,2.55376761 L6.49999996,1.07947511 L6.49999996,8.08481554 C6.3356875,8.02230425 6.15681283,7.98798499 5.96968483,7.98798499 C5.80533025,7.98798499 5.64734238,8.01445926 5.49999568,8.06325642 L5.49999568,1.07947515 L1.68399722,2.3167931 C1.27580365,2.44883401 1.00032301,2.81964508 0.99999684,3.23749748 L0.99999684,16.028296 L5.05099545,14.7171663 C5.19755526,14.6697344 5.34766941,14.6333678 5.49999568,14.6083911 L5.49999568,10.7380402 C5.64734238,10.7868374 5.80533025,10.8133117 5.96968483,10.8133117 C6.15681283,10.8133117 6.3356875,10.7789924 6.49999996,10.7164811 L6.49999996,14.6083911 C6.65230049,14.6330505 6.80241249,14.6690923 6.94900048,14.7161951 L11.4999994,16.1914588 L11.4999994,10.8900366 C11.652353,10.9169676 11.8093259,10.9310336 11.9696816,10.9310336 C12.1513982,10.9310336 12.3287708,10.9129705 12.4999998,10.8785922 L12.4999998,14.7051425 Z M10.1538824,8.30884015 C10.2027347,7.37597127 10.9970129,6.63418262 11.9696816,6.63418262 C12.9738351,6.63418262 13.7878624,7.42477127 13.7878624,8.4000118 C13.7878624,9.37525232 12.9738351,10.165841 11.9696816,10.165841 C11.2019468,10.165841 10.5453505,9.70370187 10.2787287,9.05023107 L5.97041138,9.87160387 L0.99999684,8.69431666 L0.99999684,7.92912402 L5.97041138,9.10641123 L10.1538824,8.30884015 Z" id="Combined-Shape" fill="#525252"></path>
        <g id="Service" transform="translate(11.000000, 11.000000)" fill="#525252">
            <path d="M11.083176,6.31969643 C11.1299377,6.69906602 11.1246124,7.07822682 11.0711559,7.4478597 C11.2727343,7.56607751 11.4756246,7.67676654 11.6817625,7.7889781 C11.7361775,7.81755604 11.7830803,7.86290894 11.8054148,7.91818874 C11.8277491,7.97346807 11.8266938,8.02390777 11.807403,8.0822652 C11.7389292,8.33856296 11.2741609,9.57827244 11.0648497,9.66283966 C11.006042,9.68271567 10.9428899,9.68597993 10.8823464,9.67227278 L10.2042206,9.47711071 C9.98000519,9.7636974 9.71763212,10.0235575 9.42075703,10.2480788 C9.48942067,10.5053001 9.55128283,10.7673328 9.58355428,11.0269101 C9.60014884,11.1389668 9.53713746,11.2476319 9.43163941,11.2888905 L8.06618877,11.8405684 C7.95515749,11.8854279 7.82443154,11.8448129 7.76967866,11.7460233 L7.37591603,11.0812222 C7.00047213,11.1289145 6.62510752,11.1255401 6.25885473,11.0749332 L5.89349916,11.6878988 C5.865004,11.7415076 5.81830241,11.7831797 5.76180673,11.805409 C5.70315622,11.8275064 5.63814788,11.8255208 5.580955,11.7998853 C5.13564129,11.6363052 4.55069596,11.4291124 4.14793657,11.1763381 C4.05375565,11.1149502 4.01008251,10.9997053 4.0399258,10.8913181 C4.09747503,10.6678225 4.16378984,10.4464595 4.22760578,10.2234123 C3.92023094,9.98654387 3.64299488,9.70612561 3.40635525,9.38659651 L2.65426469,9.56878957 C2.54069529,9.58926319 2.42846556,9.52671501 2.38614011,9.41935743 L1.83465309,8.05437915 C1.79723842,7.96177461 1.82627566,7.82143685 1.91124432,7.76512318 L2.59684346,7.36046136 C2.54999889,6.98053657 2.55539439,6.60081987 2.60905682,6.23067139 C2.40725545,6.11110105 2.20283748,5.99596576 1.99594968,5.88535098 C1.94193849,5.86042695 1.89886094,5.81667491 1.874779,5.76228255 C1.8524447,5.70700322 1.85964227,5.65408191 1.87279086,5.59820608 C1.93859212,5.33529365 2.40603292,4.10219884 2.61534413,4.01763162 C2.67506438,3.99676606 2.73990379,3.99561261 2.80032893,4.01434061 L3.47414448,4.20498039 C3.69873337,3.91754823 3.96167958,3.65695516 4.2593,3.43187804 C4.19069114,3.17482161 4.12888987,2.91296505 4.0966399,2.65356061 C4.07978178,2.54139139 4.14274644,2.43247467 4.24836259,2.39110721 L5.61381323,1.83942934 C5.72484451,1.79456979 5.85557046,1.83518478 5.91032333,1.93397437 L6.3040871,2.59877743 C6.68010619,2.55101237 7.05604574,2.55447052 7.42283162,2.60530015 L7.79264642,1.98961785 C7.81792085,1.93638907 7.86296427,1.89512046 7.91819663,1.8745893 C7.97347604,1.85225497 8.0386818,1.85448926 8.09656676,1.8739708 C8.54436208,2.04369302 9.12930741,2.25088589 9.53454766,2.5098005 C9.62746253,2.56947379 9.67039366,2.68291331 9.64026772,2.78915077 C9.58248118,3.01209371 9.51613862,3.23342633 9.45233665,3.45654336 C9.75848594,3.69245903 10.0347377,3.97157719 10.2707592,4.28951187 L11.0257379,4.11120682 C11.1380717,4.08725529 11.2514827,4.15575076 11.2938606,4.26063971 L11.2936784,4.26016997 L11.8455457,5.62608952 C11.8829603,5.71869406 11.8539231,5.85903182 11.7628122,5.9178271 L11.083176,6.31969643 Z M8.72093524,6.59375919 L9.01586346,6.20515515 L8.79501277,5.6917194 L8.30965169,5.63912531 L7.99599187,5.33098241 L7.92942953,4.84764204 L7.41072751,4.64310492 L7.03100593,4.95006763 L6.59558704,4.9541539 L6.20476009,4.65961765 L5.6912683,4.88015052 L5.63873009,5.36582855 L5.33058719,5.67948836 L4.84719083,5.74573311 L4.64270959,6.26475207 L4.9487939,6.64692056 L4.95288017,7.08233946 L4.65922232,7.47071949 L4.8797552,7.98421129 L5.36543322,8.03674949 L5.67909304,8.34489239 L5.74533778,8.82828875 L6.26480474,9.03531071 L6.64702919,8.72954377 L7.08244809,8.7254575 L7.47105212,9.02038571 L7.98454392,8.79985284 L8.03708212,8.31417481 L8.34522502,8.000515 L8.82862138,7.93427025 L9.03564334,7.41480329 L8.7298764,7.03257884 L8.72093424,6.59375981 Z" id="Combined-Shape"></path>
        </g>
    </g>
</svg>