<?xml version="1.0" encoding="UTF-8"?>
<svg width="93px" height="92px" viewBox="0 0 93 92" version="1.1" xmlns="http://www.w3.org/2000/svg" xmlns:xlink="http://www.w3.org/1999/xlink">
    <!-- Generator: Sketch 53 (72520) - https://sketchapp.com -->
    <title>img/服务详情/run_node</title>
    <desc>Created with Sketch.</desc>
    <defs>
        <rect id="path-1" x="0.534412955" y="0" width="92" height="92"></rect>
    </defs>
    <g id="img/服务详情/run_node" stroke="none" stroke-width="1" fill="none" fill-rule="evenodd">
        <g id="icon/功能">
            <mask id="mask-2" fill="white">
                <use xlink:href="#path-1"></use>
            </mask>
            <g id="Mask"></g>
            <g id="positive" opacity="0.2" mask="url(#mask-2)">
                <g transform="translate(-29.000000, 25.000000)">
                    <rect id="Rectangle" fill="none" x="0" y="0" width="82.8" height="82.8"></rect>
                    <path d="M41.4,78.66 C20.8218702,78.66 4.14,61.9781298 4.14,41.4 C4.14,20.8218702 20.8218702,4.14 41.4,4.14 C61.9781298,4.14 78.66,20.8218702 78.66,41.4 C78.66,61.9781298 61.9781298,78.66 41.4,78.66 Z M41.4,74.52 C59.6916709,74.52 74.52,59.6916709 74.52,41.4 C74.52,23.1083291 59.6916709,8.28 41.4,8.28 C23.1083291,8.28 8.28,23.1083291 8.28,41.4 C8.28,59.6916709 23.1083291,74.52 41.4,74.52 Z M24.84,45.54 L57.96,45.54 C57.96,54.6858355 50.5458355,62.1 41.4,62.1 C32.2541645,62.1 24.84,54.6858355 24.84,45.54 Z M28.98,33.12 C26.6935411,33.12 24.84,31.2664589 24.84,28.98 C24.84,26.6935411 26.6935411,24.84 28.98,24.84 C31.2664589,24.84 33.12,26.6935411 33.12,28.98 C33.12,31.2664589 31.2664589,33.12 28.98,33.12 Z M53.82,33.12 C51.5335411,33.12 49.68,31.2664589 49.68,28.98 C49.68,26.6935411 51.5335411,24.84 53.82,24.84 C56.1064589,24.84 57.96,26.6935411 57.96,28.98 C57.96,31.2664589 56.1064589,33.12 53.82,33.12 Z" id="Combined-Shape" fill="#FFFFFF" fill-rule="evenodd"></path>
                </g>
            </g>
        </g>
    </g>
</svg>