<?xml version="1.0" encoding="UTF-8"?>
<svg width="400px" height="400px" viewBox="0 0 400 400" version="1.1" xmlns="http://www.w3.org/2000/svg" xmlns:xlink="http://www.w3.org/1999/xlink">
    <!-- Generator: Sketch 53 (72520) - https://sketchapp.com -->
    <title>Service</title>
    <desc>Created with Sketch.</desc>
    <g id="Service" stroke="none" stroke-width="1" fill="none" fill-rule="evenodd">
        <path d="M324.069474,184.786445 C325.436774,195.879123 325.281064,206.965697 323.718008,217.773676 C329.612115,221.230337 335.544578,224.466858 341.572004,227.747898 C343.163085,228.58351 344.534513,229.909618 345.187568,231.525986 C345.840617,233.142341 345.809759,234.617186 345.2457,236.323544 C343.243544,243.81763 329.653827,280.066446 323.533617,282.539171 C321.814094,283.120341 319.967541,283.215787 318.197265,282.814994 L298.369022,277.1085 C291.813017,285.488228 284.14129,293.086477 275.460732,299.651428 C277.468441,307.172519 279.277276,314.834293 280.220885,322.424272 C280.706106,325.700785 278.863669,328.878127 275.77893,330.084517 L235.853473,346.215449 C232.606944,347.527132 228.784548,346.339559 227.183587,343.450975 L215.670059,324.012344 C204.692168,325.406855 193.716594,325.30819 183.007448,323.828456 L172.324537,341.751426 C171.491345,343.318936 170.125801,344.537419 168.473881,345.187396 C166.758954,345.83352 164.858125,345.775463 163.185819,345.025885 C150.16495,340.242843 133.061285,334.184572 121.284695,326.793512 C118.530867,324.998545 117.253875,321.628809 118.126485,318.459594 C119.809211,311.924634 121.748241,305.452032 123.614204,298.930183 C114.626636,292.004207 106.520318,283.804842 99.6010306,274.461886 L77.6100786,279.789169 C74.2893361,280.387813 71.0077649,278.558918 69.7701787,275.419808 L53.6448271,235.508162 C52.5508311,232.800427 53.3998731,228.696984 55.8843369,227.050385 L75.9310952,215.218169 C74.561371,204.109256 74.7191341,193.006429 76.288211,182.183374 C70.3875836,178.687164 64.4104514,175.320636 58.3611017,172.086286 C56.7818272,171.357513 55.5222496,170.078214 54.8180995,168.487794 C54.1650498,166.871439 54.3755048,165.324032 54.7599668,163.690236 C56.6839802,156.002738 70.3518397,119.947335 76.4720505,117.474609 C78.2182566,116.864505 80.1141459,116.830778 81.8809627,117.378381 L101.583172,122.952643 C108.150098,114.548194 115.838584,106.928513 124.540936,100.347311 C122.534829,92.8310413 120.727774,85.1744166 119.784792,77.5894914 C119.291865,74.3096898 121.132937,71.1249903 124.221128,69.9154155 L164.146586,53.7844837 C167.393114,52.4728009 171.21551,53.6603737 172.816472,56.5489583 L184.330032,75.987644 C195.324742,74.591005 206.317125,74.6921204 217.041857,76.1783667 L227.855158,58.1759605 C228.594177,56.6195636 229.911236,55.4128789 231.526217,54.8125527 C233.142574,54.1595022 235.049176,54.2248321 236.741718,54.7944677 C249.835149,59.7571058 266.938813,65.815377 278.787943,73.3859796 C281.504752,75.1308126 282.760049,78.4477577 281.879173,81.554116 C280.189508,88.0729154 278.249667,94.5446295 276.384113,101.068519 C285.335846,107.966638 293.413383,116.127988 300.314597,125.424323 L322.389997,120.210726 C325.674612,119.510389 328.990724,121.51318 330.229843,124.580108 L330.224513,124.566374 L346.360985,164.505541 C347.454981,167.213277 346.605938,171.31672 343.941878,173.03588 L324.069474,184.786445 Z M254.998107,192.799976 L263.621738,181.437285 L257.164116,166.424544 L242.972272,164.886705 L233.800932,155.876679 L231.854665,141.743919 L216.687939,135.763302 L205.584969,144.73882 L192.853422,144.858301 L181.425734,136.24613 L166.411354,142.69446 L164.875149,156.895572 L155.865123,166.066911 L141.730726,168.003892 L135.751742,183.179885 L144.701576,194.354402 L144.821058,207.085949 L136.234571,218.44209 L142.6829,233.45647 L156.884012,234.992675 L166.055352,244.002701 L167.992333,258.137098 L183.181425,264.190372 L194.357579,255.249818 L207.089125,255.130336 L218.451816,263.753968 L233.466196,257.305638 L235.002401,243.104527 L244.012427,233.933187 L258.146824,231.996206 L264.200098,216.807114 L255.259544,205.63096 L254.998077,192.799994 L254.998107,192.799976 Z" id="Combined-Shape" fill="#FFFFFF"></path>
    </g>
</svg>