<?xml version="1.0" encoding="UTF-8"?>
<svg width="25px" height="25px" viewBox="0 0 25 25" version="1.1" xmlns="http://www.w3.org/2000/svg" xmlns:xlink="http://www.w3.org/1999/xlink">
    <!-- Generator: Sketch 53 (72520) - https://sketchapp.com -->
    <title>icon/部署组详情/Service_config</title>
    <desc>Created with Sketch.</desc>
    <g id="icon/部署组详情/Service_config" stroke="none" stroke-width="1" fill="none" fill-rule="evenodd">
        <path d="M16.814707,10.2908692 C13.8855497,11.8105706 11.6622648,14.5023004 10.7659393,17.7449717 C10.7102316,17.7116266 10.6631603,17.6650572 10.6310152,17.6070585 L9.94020355,16.4407407 C9.28153006,16.5244113 8.62299565,16.5184914 7.98044689,16.4297074 L7.33947221,17.5050856 C7.2894807,17.5991361 7.20754809,17.6722451 7.10843286,17.7112438 C7.00553722,17.7500112 6.89148751,17.7465278 6.79114912,17.7015531 C6.00989699,17.4145706 4.98367713,17.0510743 4.2770817,16.6076107 C4.11185202,16.4999127 4.03523248,16.2977286 4.08758912,16.1075757 C4.18855269,15.715478 4.30489445,15.3271219 4.41685224,14.935811 C3.87759814,14.5202524 3.39121908,14.0282905 2.97606184,13.4677132 L1.65660472,13.7873501 C1.45736017,13.8232688 1.26046589,13.7135351 1.18621072,13.5251885 L0.218689626,11.1304897 C0.153049865,10.9680256 0.203992389,10.721819 0.353060216,10.6230231 L1.55586571,9.91309011 C1.47368226,9.24655538 1.48314804,8.58038574 1.57729266,7.93100244 C1.22325518,7.72122992 0.864627165,7.51923818 0.5016661,7.32517716 C0.406909632,7.28145079 0.331334974,7.20469283 0.289085969,7.10926763 C0.249902987,7.01228634 0.26253029,6.91944194 0.285598006,6.82141418 C0.401038813,6.3601643 1.22111038,4.19684007 1.58832303,4.04847653 C1.6930954,4.01187029 1.80684875,4.00984669 1.91285776,4.04270283 L3.09499032,4.37715858 C3.48900591,3.87289162 3.95031505,3.4157108 4.47245615,3.02083866 C4.35208972,2.56986248 4.24366644,2.110465 4.18708755,1.65536948 C4.15751189,1.45858139 4.26797622,1.26749942 4.4532677,1.19492493 L6.84879514,0.227069019 C7.04358686,0.148368055 7.27293063,0.219622424 7.36898831,0.392937498 L8.05980193,1.55925864 C8.71948455,1.47546029 9.37902761,1.48152723 10.0225116,1.57070202 L10.6713095,0.490557628 C10.7156506,0.397173814 10.7946742,0.324772733 10.891573,0.288753162 C10.9885545,0.24957013 11.1029505,0.253489927 11.2045031,0.287668063 C11.9901089,0.585426348 13.0163288,0.948922622 13.7272766,1.40315878 C13.8902851,1.50784876 13.9656029,1.70686546 13.9127504,1.89324696 C13.8113705,2.28437492 13.69498,2.67267777 13.5830468,3.06411116 C14.1201508,3.4779983 14.604803,3.96767928 15.0188758,4.52545943 L16.3433998,4.21264354 C16.5404767,4.17062332 16.7394434,4.29079081 16.8137906,4.4748065 L16.8134708,4.47398241 L17.7816591,6.87033249 C17.8472988,7.0327966 17.7963563,7.27900319 17.6365127,7.38215281 L16.4441684,8.08718671 C16.5262064,8.7527474 16.5168638,9.41794179 16.4230805,10.0664205 C16.5532544,10.1427624 16.6837401,10.2173146 16.814707,10.2908692 Z M12.2998864,8.56799857 L12.8173043,7.88623711 L12.429847,6.98547262 L11.5783363,6.89320229 L11.0280559,6.35260071 L10.9112799,5.50463516 L10.0012763,5.1457981 L9.33509813,5.68432917 L8.57120533,5.69149807 L7.88554402,5.1747678 L6.98468123,5.56166759 L6.89250894,6.41373429 L6.35190736,6.96401467 L5.50384356,7.08023353 L5.14510454,7.99079311 L5.68209457,8.66126414 L5.68926346,9.42515694 L5.17407425,10.1065254 L5.56097403,11.0073882 L6.41304074,11.0995605 L6.96332111,11.6401621 L7.07953997,12.4882259 L7.99088551,12.8514223 L8.66145472,12.3149891 L9.42534752,12.3078202 L10.107109,12.8252381 L11.0079718,12.4383383 L11.1001441,11.5862716 L11.6407456,11.0359912 L12.4888094,10.9197724 L12.8520059,10.0084268 L12.3155726,9.33785761 L12.2998846,8.56799967 Z" id="Combined-Shape" fill="#525252"></path>
        <g id="Service" transform="translate(11.000000, 11.000000)" fill="#525252">
            <path d="M11.083176,6.31969643 C11.1299377,6.69906602 11.1246124,7.07822682 11.0711559,7.4478597 C11.2727343,7.56607751 11.4756246,7.67676654 11.6817625,7.7889781 C11.7361775,7.81755604 11.7830803,7.86290894 11.8054148,7.91818874 C11.8277491,7.97346807 11.8266938,8.02390777 11.807403,8.0822652 C11.7389292,8.33856296 11.2741609,9.57827244 11.0648497,9.66283966 C11.006042,9.68271567 10.9428899,9.68597993 10.8823464,9.67227278 L10.2042206,9.47711071 C9.98000519,9.7636974 9.71763212,10.0235575 9.42075703,10.2480788 C9.48942067,10.5053001 9.55128283,10.7673328 9.58355428,11.0269101 C9.60014884,11.1389668 9.53713746,11.2476319 9.43163941,11.2888905 L8.06618877,11.8405684 C7.95515749,11.8854279 7.82443154,11.8448129 7.76967866,11.7460233 L7.37591603,11.0812222 C7.00047213,11.1289145 6.62510752,11.1255401 6.25885473,11.0749332 L5.89349916,11.6878988 C5.865004,11.7415076 5.81830241,11.7831797 5.76180673,11.805409 C5.70315622,11.8275064 5.63814788,11.8255208 5.580955,11.7998853 C5.13564129,11.6363052 4.55069596,11.4291124 4.14793657,11.1763381 C4.05375565,11.1149502 4.01008251,10.9997053 4.0399258,10.8913181 C4.09747503,10.6678225 4.16378984,10.4464595 4.22760578,10.2234123 C3.92023094,9.98654387 3.64299488,9.70612561 3.40635525,9.38659651 L2.65426469,9.56878957 C2.54069529,9.58926319 2.42846556,9.52671501 2.38614011,9.41935743 L1.83465309,8.05437915 C1.79723842,7.96177461 1.82627566,7.82143685 1.91124432,7.76512318 L2.59684346,7.36046136 C2.54999889,6.98053657 2.55539439,6.60081987 2.60905682,6.23067139 C2.40725545,6.11110105 2.20283748,5.99596576 1.99594968,5.88535098 C1.94193849,5.86042695 1.89886094,5.81667491 1.874779,5.76228255 C1.8524447,5.70700322 1.85964227,5.65408191 1.87279086,5.59820608 C1.93859212,5.33529365 2.40603292,4.10219884 2.61534413,4.01763162 C2.67506438,3.99676606 2.73990379,3.99561261 2.80032893,4.01434061 L3.47414448,4.20498039 C3.69873337,3.91754823 3.96167958,3.65695516 4.2593,3.43187804 C4.19069114,3.17482161 4.12888987,2.91296505 4.0966399,2.65356061 C4.07978178,2.54139139 4.14274644,2.43247467 4.24836259,2.39110721 L5.61381323,1.83942934 C5.72484451,1.79456979 5.85557046,1.83518478 5.91032333,1.93397437 L6.3040871,2.59877743 C6.68010619,2.55101237 7.05604574,2.55447052 7.42283162,2.60530015 L7.79264642,1.98961785 C7.81792085,1.93638907 7.86296427,1.89512046 7.91819663,1.8745893 C7.97347604,1.85225497 8.0386818,1.85448926 8.09656676,1.8739708 C8.54436208,2.04369302 9.12930741,2.25088589 9.53454766,2.5098005 C9.62746253,2.56947379 9.67039366,2.68291331 9.64026772,2.78915077 C9.58248118,3.01209371 9.51613862,3.23342633 9.45233665,3.45654336 C9.75848594,3.69245903 10.0347377,3.97157719 10.2707592,4.28951187 L11.0257379,4.11120682 C11.1380717,4.08725529 11.2514827,4.15575076 11.2938606,4.26063971 L11.2936784,4.26016997 L11.8455457,5.62608952 C11.8829603,5.71869406 11.8539231,5.85903182 11.7628122,5.9178271 L11.083176,6.31969643 Z M8.72093524,6.59375919 L9.01586346,6.20515515 L8.79501277,5.6917194 L8.30965169,5.63912531 L7.99599187,5.33098241 L7.92942953,4.84764204 L7.41072751,4.64310492 L7.03100593,4.95006763 L6.59558704,4.9541539 L6.20476009,4.65961765 L5.6912683,4.88015052 L5.63873009,5.36582855 L5.33058719,5.67948836 L4.84719083,5.74573311 L4.64270959,6.26475207 L4.9487939,6.64692056 L4.95288017,7.08233946 L4.65922232,7.47071949 L4.8797552,7.98421129 L5.36543322,8.03674949 L5.67909304,8.34489239 L5.74533778,8.82828875 L6.26480474,9.03531071 L6.64702919,8.72954377 L7.08244809,8.7254575 L7.47105212,9.02038571 L7.98454392,8.79985284 L8.03708212,8.31417481 L8.34522502,8.000515 L8.82862138,7.93427025 L9.03564334,7.41480329 L8.7298764,7.03257884 L8.72093424,6.59375981 Z" id="Combined-Shape"></path>
        </g>
    </g>
</svg>