<?xml version="1.0" encoding="UTF-8"?>
<svg width="400px" height="400px" viewBox="0 0 400 400" version="1.1" xmlns="http://www.w3.org/2000/svg" xmlns:xlink="http://www.w3.org/1999/xlink">
    <!-- Generator: Sketch 53 (72520) - https://sketchapp.com -->
    <title>span</title>
    <desc>Created with Sketch.</desc>
    <g id="span" stroke="none" stroke-width="1" fill="none" fill-rule="evenodd">
        <path d="M210.965563,210.734911 L168.335978,253.247567 L318.645191,253.247567 L275.916466,210.636044 L297.43659,189.167442 L377.060615,268.573066 L376.991028,268.642486 L376.993546,268.64501 L297.587922,348.269036 L276.11932,326.748912 L317.681639,285.072278 L169.299529,285.072278 L210.861849,326.748912 L189.393247,348.269036 L109.987622,268.64501 L109.99014,268.642486 L109.920553,268.573066 L189.544579,189.167442 L189.577078,189.199863 L231.091903,147.570853 L82.709793,147.570853 L124.272113,189.247488 L102.803511,210.767611 L23.3978863,131.143586 L23.4004041,131.141062 L23.330817,131.071642 L102.954843,51.6660172 L124.474966,73.1346191 L81.7462415,115.746143 L232.055455,115.746143 L189.32673,73.1346191 L210.846853,51.6660172 L290.470879,131.071642 L290.401292,131.141062 L290.40381,131.143586 L210.998185,210.767611 L210.965563,210.734911 Z" id="Combined-Shape" fill="#FFFFFF"></path>
    </g>
</svg>