<?xml version="1.0" encoding="UTF-8"?>
<svg width="100px" height="60px" viewBox="0 0 100 60" version="1.1" xmlns="http://www.w3.org/2000/svg" xmlns:xlink="http://www.w3.org/1999/xlink">
    <!-- Generator: Sketch 53 (72520) - https://sketchapp.com -->
    <title>img/应用详情/subscribe_record</title>
    <desc>Created with Sketch.</desc>
    <g id="img/应用详情/subscribe_record" stroke="none" stroke-width="1" fill="none" fill-rule="evenodd">
        <g id="Icons/通用/arrow-down" transform="translate(5.000000, 2.000000)" fill="#A972CC">
            <path d="M42.42,9.94 L42.42,46.83 C42.42,48.2206667 43.05,48.916 44.31,48.916 C45.57,48.916 46.2,48.2206667 46.2,46.83 L46.061576,9.94 L50.12,9.94 C50.12,21.9562213 50.12,34.252888 50.12,46.83 C50.12,50.4964178 46.8664256,52.836 44.4978337,52.836 C41.732082,52.836 40.1528311,52.836 39.7600811,52.836 L39.06,52.836 L8.96,52.836 C7.56824243,52.836 6.44,51.7077576 6.44,50.316 L6.44,9.94 L6.44,8.54 C6.44,7.14824243 7.56824243,6.02 8.96,6.02 L39.9,6.02 C41.2917576,6.02 42.42,7.14824243 42.42,8.54 L42.42,9.94 Z M10.64,9.94 L10.64,48.916 L38.22,48.916 L38.22,9.94 L10.64,9.94 Z M13.72,14.84 L35.14,14.84 L35.14,23.8 L13.72,23.8 L13.72,14.84 Z M13.72,29.54 L35.14,29.54 L35.14,32.34 L13.72,32.34 L13.72,29.54 Z M13.72,35.14 L35.14,35.14 L35.14,37.94 L13.72,37.94 L13.72,35.14 Z" id="Combined-Shape"></path>
        </g>
        <path d="M62.1538462,6 L63.8461538,6 L63.8461538,9.80952381 L62.1538462,9.80952381 L62.1538462,6 Z M68,10.1538462 L68,11.8461538 L64.1904762,11.8461538 L64.1904762,10.1538462 L68,10.1538462 Z M63.8461538,16 L62.1538462,16 L62.1538462,12.1904762 L63.8461538,12.1904762 L63.8461538,16 Z M58,11.8461538 L58,10.1538462 L61.8095238,10.1538462 L61.8095238,11.8461538 L58,11.8461538 Z M68.4,24 L70.6,24 L70.6,28.952381 L68.4,28.952381 L68.4,24 Z M76,29.4 L76,31.6 L71.047619,31.6 L71.047619,29.4 L76,29.4 Z M70.6,37 L68.4,37 L68.4,32.047619 L70.6,32.047619 L70.6,37 Z M63,31.6 L63,29.4 L67.952381,29.4 L67.952381,31.6 L63,31.6 Z M92.4,0 L94.6,0 L94.6,4.95238095 L92.4,4.95238095 L92.4,0 Z M100,5.4 L100,7.6 L95.047619,7.6 L95.047619,5.4 L100,5.4 Z M94.6,13 L92.4,13 L92.4,8.04761905 L94.6,8.04761905 L94.6,13 Z M87,7.6 L87,5.4 L91.952381,5.4 L91.952381,7.6 L87,7.6 Z M91.6995405,35.385832 L93.614168,37.3004595 L89.3041839,41.6104437 L87.3895563,39.6958161 L91.6995405,35.385832 Z M93.614168,46.6995405 L91.6995405,48.614168 L87.3895563,44.3041839 L89.3041839,42.3895563 L93.614168,46.6995405 Z M82.3004595,48.614168 L80.385832,46.6995405 L84.6958161,42.3895563 L86.6104437,44.3041839 L82.3004595,48.614168 Z M80.385832,37.3004595 L82.3004595,35.385832 L86.6104437,39.6958161 L84.6958161,41.6104437 L80.385832,37.3004595 Z" id="Combined-Shape" fill="#A972CC"></path>
    </g>
</svg>