<?xml version="1.0" encoding="UTF-8"?>
<svg width="100px" height="60px" viewBox="0 0 100 60" version="1.1" xmlns="http://www.w3.org/2000/svg" xmlns:xlink="http://www.w3.org/1999/xlink">
    <!-- Generator: Sketch 53 (72520) - https://sketchapp.com -->
    <title>img/服务详情/task</title>
    <desc>Created with Sketch.</desc>
    <g id="img/服务详情/task" stroke="none" stroke-width="1" fill="none" fill-rule="evenodd">
        <path d="M55.3246154,7 L60.7907692,7 C61.5860593,7 62.2307692,7.64470996 62.2307692,8.44 L62.2307692,14.0251163 C62.2307692,14.8204063 61.5860593,15.4651163 60.7907692,15.4651163 L55.3246154,15.4651163 C54.5293253,15.4651163 53.8846154,14.8204063 53.8846154,14.0251163 L53.8846154,8.44 C53.8846154,7.64470996 54.5293253,7 55.3246154,7 Z M66.0076923,8.20930233 L95.8,8.20930233 C96.4627417,8.20930233 97,8.74656063 97,9.40930233 L97,11.8465116 C97,12.5092533 96.4627417,13.0465116 95.8,13.0465116 L66.0076923,13.0465116 C65.3449506,13.0465116 64.8076923,12.5092533 64.8076923,11.8465116 L64.8076923,9.40930233 C64.8076923,8.74656063 65.3449506,8.20930233 66.0076923,8.20930233 Z M66.0076923,28.9767442 L95.8,28.9767442 C96.4627417,28.9767442 97,29.5140025 97,30.1767442 L97,32.6139535 C97,33.2766952 96.4627417,33.8139535 95.8,33.8139535 L66.0076923,33.8139535 C65.3449506,33.8139535 64.8076923,33.2766952 64.8076923,32.6139535 L64.8076923,30.1767442 C64.8076923,29.5140025 65.3449506,28.9767442 66.0076923,28.9767442 Z M66.0076923,49.2093023 L95.8,49.2093023 C96.4627417,49.2093023 97,49.7465606 97,50.4093023 L97,52.8465116 C97,53.5092533 96.4627417,54.0465116 95.8,54.0465116 L66.0076923,54.0465116 C65.3449506,54.0465116 64.8076923,53.5092533 64.8076923,52.8465116 L64.8076923,50.4093023 C64.8076923,49.7465606 65.3449506,49.2093023 66.0076923,49.2093023 Z M55.3246154,27.7674419 L60.7907692,27.7674419 C61.5860593,27.7674419 62.2307692,28.4121518 62.2307692,29.2074419 L62.2307692,34.7925581 C62.2307692,35.5878482 61.5860593,36.2325581 60.7907692,36.2325581 L55.3246154,36.2325581 C54.5293253,36.2325581 53.8846154,35.5878482 53.8846154,34.7925581 L53.8846154,29.2074419 C53.8846154,28.4121518 54.5293253,27.7674419 55.3246154,27.7674419 Z M55.44,48 L60.9061538,48 C61.7014439,48 62.3461538,48.64471 62.3461538,49.44 L62.3461538,55.0251163 C62.3461538,55.8204063 61.7014439,56.4651163 60.9061538,56.4651163 L55.44,56.4651163 C54.64471,56.4651163 54,55.8204063 54,55.0251163 L54,49.44 C54,48.64471 54.64471,48 55.44,48 Z M41.9615385,51 L46.9445438,51 C47.6124231,51 48.1538462,51.5414231 48.1538462,52.2093023 C48.1538462,52.8771816 47.6124231,53.4186047 46.9445438,53.4186047 L41.9615385,53.4186047 L40.7769231,53.4186047 C40.1141814,53.4186047 39.5769231,52.8813464 39.5769231,52.2186047 L39.5769231,33.8139535 L37.2093023,33.8139535 C36.5414231,33.8139535 36,33.2725304 36,32.6046512 C36,31.9367719 36.5414231,31.3953488 37.2093023,31.3953488 L39.5769231,31.3953488 L39.5769231,9.61860465 C39.5769231,8.95586295 40.1141814,8.41860465 40.7769231,8.41860465 L41.3692308,8.41860465 L46.7137746,8.41860465 C47.3816538,8.41860465 47.9230769,8.96002774 47.9230769,9.62790698 C47.9230769,10.2957862 47.3816538,10.8372093 46.7137746,10.8372093 L41.9615385,10.8372093 L41.9615385,31.3953488 L46.7137746,31.3953488 C47.3816538,31.3953488 47.9230769,31.9367719 47.9230769,32.6046512 C47.9230769,33.2725304 47.3816538,33.8139535 46.7137746,33.8139535 L41.9615385,33.8139535 L41.9615385,51 Z" id="Combined-Shape" fill="#748CFF"></path>
        <path d="M28.8205646,34.168289 L20.8254051,41.9264952 C20.2860613,42.4498544 19.9050662,43.1145695 19.7260766,43.8444731 L19.4427054,45.0000361 L15.5668873,45.0000361 C9.73516176,45.0000361 5,45.0000361 5,42.7234709 L5,42.0937827 C5,36.5719013 9.73516176,32.0672085 15.5668873,32.0672085 L22.395489,32.0672085 C24.8089893,32.0672085 27.0401056,32.8521215 28.8205646,34.168289 Z M18.6073596,14 C23.1431461,14 26.7817441,17.4875041 26.7817441,21.750009 C26.7817441,26.012514 23.1431461,29.500018 18.6073596,29.500018 C14.0715731,29.500018 10.4329751,26.012514 10.4329751,21.750009 C10.4329751,17.4875041 14.1214169,14 18.6073596,14 Z M18.6073596,14 C23.1431461,14 26.7817441,17.4875041 26.7817441,21.750009 C26.7817441,26.012514 23.1431461,29.500018 18.6073596,29.500018 C14.0715731,29.500018 10.4329751,26.012514 10.4329751,21.750009 C10.4329751,17.4875041 14.1214169,14 18.6073596,14 Z M33.9803727,35.3545763 C34.7520487,36.1262523 34.7520487,37.3773863 33.9803727,38.1490623 L33.2996646,38.8297705 L30.5051786,36.0352845 L31.1858867,35.3545763 C31.9575627,34.5829003 33.2086967,34.5829003 33.9803727,35.3545763 Z M22.5158148,44.0246483 L25.3103008,46.8191343 L21.9999097,47.3350394 L22.5158148,44.0246483 Z M29.6453367,36.8951263 L32.4398227,39.6896123 L26.1701426,45.9592924 L23.3756566,43.1648064 L29.6453367,36.8951263 Z" id="Combined-Shape" fill="#748CFF" fill-rule="nonzero"></path>
        <g id="edit" transform="translate(20.000000, 33.000000)"></g>
    </g>
</svg>