<?xml version="1.0" encoding="UTF-8"?>
<svg width="400px" height="400px" viewBox="0 0 400 400" version="1.1" xmlns="http://www.w3.org/2000/svg" xmlns:xlink="http://www.w3.org/1999/xlink">
    <!-- Generator: Sketch 53 (72520) - https://sketchapp.com -->
    <title>clock</title>
    <desc>Created with Sketch.</desc>
    <g id="clock" stroke="none" stroke-width="1" fill="none" fill-rule="evenodd">
        <path d="M200,373 C105.007023,373 28,295.992977 28,201 C28,106.007023 105.007023,29 200,29 C294.992977,29 372,106.007023 372,201 C372,295.992977 294.992977,373 200,373 Z M200,337 C275.110726,337 336,276.110726 336,201 C336,125.889274 275.110726,65 200,65 C124.889274,65 64,125.889274 64,201 C64,276.110726 124.889274,337 200,337 Z M217.089744,195.003205 L273.157051,195.003205 C282.871598,195.003205 290.746795,202.878402 290.746795,212.592949 C290.746795,222.307496 282.871598,230.182692 273.157051,230.182692 L199.5,230.182692 C189.785453,230.182692 181.910256,222.307496 181.910256,212.592949 L181.910256,111.772436 C181.910256,102.057889 189.785453,94.1826923 199.5,94.1826923 C209.214547,94.1826923 217.089744,102.057889 217.089744,111.772436 L217.089744,195.003205 Z" id="Combined-Shape" fill="#FFFFFF"></path>
    </g>
</svg>