<?xml version="1.0" encoding="UTF-8"?>
<svg width="89px" height="92px" viewBox="0 0 89 92" version="1.1" xmlns="http://www.w3.org/2000/svg" xmlns:xlink="http://www.w3.org/1999/xlink">
    <!-- Generator: Sketch 53 (72520) - https://sketchapp.com -->
    <title>img/card/traffic</title>
    <desc>Created with Sketch.</desc>
    <defs>
        <rect id="path-1" x="0" y="0" width="89" height="92"></rect>
        <polygon id="path-3" points="0 -7.10542736e-15 90 -7.10542736e-15 90 90 0 90"></polygon>
    </defs>
    <g id="img/card/traffic" stroke="none" stroke-width="1" fill="none" fill-rule="evenodd">
        <g id="icon/功能">
            <mask id="mask-2" fill="white">
                <use xlink:href="#path-1"></use>
            </mask>
            <g id="Mask"></g>
            <g id="distribution-truck" opacity="0.2" mask="url(#mask-2)">
                <g transform="translate(-30.000000, 15.000000)">
                    <g id="Group-3" opacity="0" stroke-width="1" fill="none">
                        <mask id="mask-4" fill="white">
                            <use xlink:href="#path-3"></use>
                        </mask>
                        <path stroke="#35F6FF" stroke-width="0.5" d="M0.25,0.25 L0.25,89.75 L89.75,89.75 L89.75,0.25 L0.25,0.25 Z"></path>
                        <circle id="Oval" stroke="#35F6FF" stroke-width="0.5" mask="url(#mask-4)" cx="45" cy="45" r="44.75"></circle>
                        <g id="Group" mask="url(#mask-4)" stroke="#A35AD8" stroke-width="0.5">
                            <g transform="translate(13.275000, 13.275000)">
                                <circle id="Oval" cx="31.815" cy="31.815" r="31.565"></circle>
                                <path d="M0.25,0.25 L0.25,63.38 L63.38,63.38 L63.38,0.25 L0.25,0.25 Z" id="Rectangle" transform="translate(31.815000, 31.815000) rotate(90.000000) translate(-31.815000, -31.815000) "></path>
                            </g>
                        </g>
                        <g id="Group" mask="url(#mask-4)" stroke="#A35AD8" stroke-width="0.5">
                            <g transform="translate(22.500000, 22.500000)">
                                <circle id="Oval" cx="22.5" cy="22.5" r="22.25"></circle>
                                <path d="M0.25,0.25 L0.25,44.75 L44.75,44.75 L44.75,0.25 L0.25,0.25 Z" id="Rectangle" transform="translate(22.500000, 22.500000) rotate(90.000000) translate(-22.500000, -22.500000) "></path>
                            </g>
                        </g>
                        <path d="M0.25,9.925 L0.25,80.075 L89.75,80.075 L89.75,9.925 L0.25,9.925 Z" id="Rectangle" stroke="#35F6FF" stroke-width="0.5" mask="url(#mask-4)" transform="translate(45.000000, 45.000000) rotate(90.000000) translate(-45.000000, -45.000000) "></path>
                        <rect id="Rectangle" stroke="#35F6FF" stroke-width="0.5" mask="url(#mask-4)" x="0.25" y="9.925" width="89.5" height="70.15"></rect>
                        <path d="M5.425,5.425 L5.425,84.665 L84.665,84.665 L84.665,5.425 L5.425,5.425 Z" id="Rectangle" stroke="#35F6FF" stroke-width="0.5" mask="url(#mask-4)" transform="translate(45.045000, 45.045000) rotate(90.000000) translate(-45.045000, -45.045000) "></path>
                        <path d="M0,0 L90,90" id="Path" stroke="#35F6FF" stroke-width="0.5" mask="url(#mask-4)"></path>
                        <path d="M0,0 L90,90" id="Path" stroke="#35F6FF" stroke-width="0.5" mask="url(#mask-4)" transform="translate(45.000000, 45.000000) scale(-1, 1) translate(-45.000000, -45.000000) "></path>
                        <g id="Group-2" mask="url(#mask-4)" stroke="#35F6FF" stroke-width="0.5">
                            <g transform="translate(45.000000, 45.000000) rotate(45.000000) translate(-45.000000, -45.000000) " id="Path">
                                <path d="M0,0 L90,90"></path>
                                <path d="M0,0 L90,90" transform="translate(45.000000, 45.000000) scale(-1, 1) translate(-45.000000, -45.000000) "></path>
                            </g>
                        </g>
                    </g>
                    <path d="M16.4881098,42.717194 L10.4597561,42.717194 L10.4597561,36.7022079 L30.8634146,36.7022079 L30.8634146,42.717194 L22.2846037,42.717194 L22.2846037,45.5491655 L47.7891768,45.5491655 L47.7891768,23.1086405 L29.0085366,23.1086405 L16.4881098,23.1086405 L16.4881098,21.1154 C16.4881098,19.0220199 18.1851296,17.325 20.2785098,17.325 L49.7952707,17.325 C51.8886508,17.325 53.5856707,19.0220199 53.5856707,21.1154 L53.5856707,25.3662726 L72.1789126,25.3662726 C73.6183644,25.3662726 74.9335956,26.1816304 75.5737964,27.47088 L82.157286,40.7288466 C82.5800225,41.580162 82.8,42.5177628 82.8,43.4682596 L82.8,62.7553928 C82.8,64.8487729 81.1029801,66.5457928 79.0096,66.5457928 L73.9893293,66.5457928 C73.9893293,72.1676137 69.4218147,76.725 63.7875,76.725 C58.1531853,76.725 53.5856707,72.1676137 53.5856707,66.5457928 L45.2387195,66.5457928 C45.2387195,72.1676137 40.671205,76.725 35.0368902,76.725 C29.4025755,76.725 24.835061,72.1676137 24.835061,66.5457928 L20.2785098,66.5457928 C18.1851296,66.5457928 16.4881098,64.8487729 16.4881098,62.7553928 L16.4881098,48.9635257 L16.4881098,42.717194 Z M72.0652794,60.5948695 L76.5701051,60.5948695 L76.5701051,41.780538 L71.1408506,31.4453215 L53.5856707,31.4453215 L53.5856707,51.5083275 L21.8512027,51.5083275 L21.8512027,60.5948695 L26.7591108,60.5948695 C28.6118638,58.0335873 31.6292698,56.3665855 35.0368902,56.3665855 C38.4445107,56.3665855 41.4619167,58.0335873 43.3146697,60.5948695 L55.5097206,60.5948695 C57.3624736,58.0335873 60.3798796,56.3665855 63.7875,56.3665855 C67.1951204,56.3665855 70.2125264,58.0335873 72.0652794,60.5948695 Z M35.0368902,71.6353964 C37.8540476,71.6353964 40.1378049,69.3567032 40.1378049,66.5457928 C40.1378049,63.7348823 37.8540476,61.4561891 35.0368902,61.4561891 C32.2197329,61.4561891 29.9359756,63.7348823 29.9359756,66.5457928 C29.9359756,69.3567032 32.2197329,71.6353964 35.0368902,71.6353964 Z M63.7875,71.6353964 C66.6046574,71.6353964 68.8884146,69.3567032 68.8884146,66.5457928 C68.8884146,63.7348823 66.6046574,61.4561891 63.7875,61.4561891 C60.9703426,61.4561891 58.6865854,63.7348823 58.6865854,66.5457928 C58.6865854,69.3567032 60.9703426,71.6353964 63.7875,71.6353964 Z M6.75,26.7543463 L30.8634146,26.7543463 L30.8634146,32.7693324 L6.75,32.7693324 L6.75,26.7543463 Z M58.0123428,35.5454798 L66.109844,35.5454798 C66.8193058,35.5454798 67.4693544,35.94173 67.7944134,36.572343 L71.438872,43.6425765 L58.0123428,43.6425765 L58.0123428,35.5454798 Z" id="Combined-Shape" fill="#FFFFFF"></path>
                </g>
            </g>
        </g>
    </g>
</svg>