<?xml version="1.0" encoding="UTF-8"?>
<svg width="70px" height="63px" viewBox="0 0 70 63" version="1.1" xmlns="http://www.w3.org/2000/svg" xmlns:xlink="http://www.w3.org/1999/xlink">
    <!-- Generator: Sketch 53 (72520) - https://sketchapp.com -->
    <title>img/db_placeholder</title>
    <desc>Created with Sketch.</desc>
    <g id="img/db_placeholder" stroke="none" stroke-width="1" fill="none" fill-rule="evenodd">
        <g id="Group">
            <g id="alert" transform="translate(42.159091, 39.873418)">
                <path d="M13.9546591,0.155506329 L27.3457386,22.4520496 L0.495170455,22.4520496 L13.9546591,0.155506329 Z M12.4667614,17.2372785 L12.4667614,19.9167722 L15.3741477,19.9167722 L15.3741477,17.2372785 L12.4667614,17.2372785 Z M12.4667614,5.84943038 L12.4667614,14.4740506 L15.3741477,14.4740506 L15.3741477,5.84943038 L12.4667614,5.84943038 Z" id="Combined-Shape" fill="#B7B7B7"></path>
                <g id="注意" transform="translate(12.466761, 6.016899)"></g>
            </g>
            <path d="M57.2727273,29.4152403 L47.2748491,45.4556962 L25.4545455,45.4556962 L25.4545455,41.4734177 C25.4545455,40.5897621 24.7382011,39.8734177 23.8545455,39.8734177 L20.6909091,39.8734177 C19.8072535,39.8734177 19.0909091,40.5897621 19.0909091,41.4734177 L19.0909091,45.4556962 L7.16818182,45.4556962 C6.28452622,45.4556962 5.56818182,46.1720406 5.56818182,47.0556962 L5.56818182,48.6405063 C5.56818182,49.5241619 6.28452622,50.2405063 7.16818182,50.2405063 L19.0909091,50.2405063 L19.0909091,54.2227848 C19.0909091,55.1064404 19.8072535,55.8227848 20.6909091,55.8227848 L23.8545455,55.8227848 C24.7382011,55.8227848 25.4545455,55.1064404 25.4545455,54.2227848 L25.4545455,50.2405063 L44.2925181,50.2405063 L38.3278561,59.8101266 L2.4,59.8101266 C1.0745166,59.8101266 -8.27537009e-15,58.73561 -8.43769499e-15,57.4101266 L-7.54951657e-15,2.4 C-7.71184147e-15,1.0745166 1.0745166,-6.44691069e-16 2.4,-8.8817842e-16 L54.8727273,-4.4408921e-16 C56.1982107,2.84422069e-15 57.2727273,1.0745166 57.2727273,2.4 L57.2727273,29.4152403 Z M13.5227273,10.3670886 L13.5227273,6.38481013 C13.5227273,5.50115453 12.8063829,4.78481013 11.9227273,4.78481013 L8.75909091,4.78481013 C7.87543531,4.78481013 7.15909091,5.50115453 7.15909091,6.38481013 L7.15909091,10.3671139 C6.27961836,10.3720069 5.56818182,11.0864653 5.56818182,11.9670886 L5.56818182,13.5518987 C5.56818182,14.4325221 6.27961836,15.1469805 7.15909091,15.1518735 L7.15909091,19.1341772 C7.15909091,20.0178328 7.87543531,20.7341772 8.75909091,20.7341772 L11.9227273,20.7341772 C12.8063829,20.7341772 13.5227273,20.0178328 13.5227273,19.1341772 L13.5227273,15.1518987 L50.1045455,15.1518987 C50.9882011,15.1518987 51.7045455,14.4355543 51.7045455,13.5518987 L51.7045455,11.9670886 C51.7045455,11.083433 50.9882011,10.3670886 50.1045455,10.3670886 L13.5227273,10.3670886 Z M41.3636364,27.1139241 L41.3636364,23.1316456 C41.3636364,22.24799 40.647292,21.5316456 39.7636364,21.5316456 L36.6,21.5316456 C35.7163444,21.5316456 35,22.24799 35,23.1316456 L35,27.1139241 L7.16818182,27.1139241 C6.28452622,27.1139241 5.56818182,27.8302685 5.56818182,28.7139241 L5.56818182,30.2987342 C5.56818182,31.1823898 6.28452622,31.8987342 7.16818182,31.8987342 L35,31.8987342 L35,35.8810127 C35,36.7646683 35.7163444,37.4810127 36.6,37.4810127 L39.7636364,37.4810127 C40.647292,37.4810127 41.3636364,36.7646683 41.3636364,35.8810127 L41.3636364,31.8987342 L50.1045455,31.8987342 C50.9882011,31.8987342 51.7045455,31.1823898 51.7045455,30.2987342 L51.7045455,28.7139241 C51.7045455,27.8302685 50.9882011,27.1139241 50.1045455,27.1139241 L41.3636364,27.1139241 Z" id="Combined-Shape" fill="#6D6D6D"></path>
        </g>
    </g>
</svg>