<?xml version="1.0" encoding="UTF-8"?>
<svg width="83px" height="51px" viewBox="0 0 83 51" version="1.1" xmlns="http://www.w3.org/2000/svg" xmlns:xlink="http://www.w3.org/1999/xlink">
    <!-- Generator: Sketch 53 (72520) - https://sketchapp.com -->
    <title>img</title>
    <desc>Created with Sketch.</desc>
    <defs>
        <path d="M0,0 L100,0 L100,77 C100,78.6568542 98.6568542,80 97,80 L0,80 L0,0 Z" id="path-1"></path>
    </defs>
    <g id="Dashboard" stroke="none" stroke-width="1" fill="none" fill-rule="evenodd">
        <g id="Dashboard-empty" transform="translate(-1008.000000, -408.000000)">
            <g id="d-grid-copy-6" transform="translate(944.000000, 316.000000)">
                <g id="img/db_appliance" transform="translate(47.000000, 68.000000)">
                    <g id="Group-4">
                        <mask id="mask-2" fill="white">
                            <use xlink:href="#path-1"></use>
                        </mask>
                        <g id="bg"></g>
                        <g id="Applience" opacity="0.08" mask="url(#mask-2)" fill="#FFFFFF">
                            <g transform="translate(4.000000, 3.000000)" id="Combined-Shape">
                                <path d="M15.06,49.61 L106.2425,49.61 C107.208998,49.61 107.9925,50.3935017 107.9925,51.36 L107.9925,69.64 C107.9925,70.6064983 107.208998,71.39 106.2425,71.39 L15.06,71.39 C14.0935017,71.39 13.31,70.6064983 13.31,69.64 L13.31,51.36 C13.31,50.3935017 14.0935017,49.61 15.06,49.61 Z M19.965,58.08 L19.965,62.92 L47.4925,62.92 L47.4925,58.08 L19.965,58.08 Z M15.06,21.78 L106.2425,21.78 C107.208998,21.78 107.9925,22.5635017 107.9925,23.53 L107.9925,41.81 C107.9925,42.7764983 107.208998,43.56 106.2425,43.56 L15.06,43.56 C14.0935017,43.56 13.31,42.7764983 13.31,41.81 L13.31,23.53 C13.31,22.5635017 14.0935017,21.78 15.06,21.78 Z M19.965,30.25 L19.965,35.09 L47.4925,35.09 L47.4925,30.25 L19.965,30.25 Z M15.06,77.44 L106.2425,77.44 C107.208998,77.44 107.9925,78.2235017 107.9925,79.19 L107.9925,97.47 C107.9925,98.4364983 107.208998,99.22 106.2425,99.22 L15.06,99.22 C14.0935017,99.22 13.31,98.4364983 13.31,97.47 L13.31,79.19 C13.31,78.2235017 14.0935017,77.44 15.06,77.44 Z M19.965,85.91 L19.965,90.75 L47.4925,90.75 L47.4925,85.91 L19.965,85.91 Z"></path>
                            </g>
                        </g>
                    </g>
                </g>
            </g>
        </g>
    </g>
</svg>