<?xml version="1.0" encoding="UTF-8"?>
<svg width="86px" height="75px" viewBox="0 0 86 75" version="1.1" xmlns="http://www.w3.org/2000/svg" xmlns:xlink="http://www.w3.org/1999/xlink">
    <!-- Generator: Sketch 53 (72520) - https://sketchapp.com -->
    <title>img copy 4</title>
    <desc>Created with Sketch.</desc>
    <defs>
        <path d="M0,0 L100,0 L100,77 C100,78.6568542 98.6568542,80 97,80 L0,80 L0,0 Z" id="path-1"></path>
    </defs>
    <g id="Dashboard" stroke="none" stroke-width="1" fill="none" fill-rule="evenodd">
        <g id="Dashboard-empty" transform="translate(-1157.000000, -389.000000)">
            <g id="d-grid-copy-8" transform="translate(1096.000000, 316.000000)">
                <g id="img/db_route" transform="translate(47.000000, 68.000000)">
                    <g id="Group-4">
                        <mask id="mask-2" fill="white">
                            <use xlink:href="#path-1"></use>
                        </mask>
                        <g id="bg"></g>
                        <g id="route" opacity="0.08" mask="url(#mask-2)" fill="#FFFFFF">
                            <g transform="translate(-1.250000, -11.000000)" id="Combined-Shape">
                                <path d="M66.2593872,58.821448 C66.5032217,54.0272215 70.4676648,50.215 75.3225,50.215 C80.3344841,50.215 84.3975,54.2780159 84.3975,59.29 C84.3975,64.3019841 80.3344841,68.365 75.3225,68.365 C71.4905419,68.365 68.2133037,65.9899615 66.8825267,62.6316256 L45.3786264,66.8528482 L20.5700314,60.8025 L20.5700314,56.87 L45.3786264,62.9203482 L66.2593872,58.821448 Z M48.0219368,71.1948656 L48.0219368,91.1962811 C48.7821072,91.3230114 49.5313542,91.5082387 50.2630118,91.7503107 L72.9781976,99.3320283 L72.9781976,72.0868071 C73.7386326,72.2252114 74.5221244,72.2975 75.3225,72.2975 C76.2294934,72.2975 77.114805,72.2046696 77.9694522,72.0279917 L77.9694522,99.3320287 L97.0160661,92.9781596 C99.0552083,92.2989902 100.430601,90.3907297 100.430085,88.241458 L100.430085,22.506619 L80.210527,29.2448143 C79.4790087,29.488578 78.7297511,29.6754742 77.9694522,29.8038353 L77.9694522,46.5520083 C77.114805,46.3753304 76.2294934,46.2825 75.3225,46.2825 C74.5221244,46.2825 73.7386326,46.3547886 72.9781976,46.4931929 L72.9781976,29.8038349 C72.2178926,29.6754736 71.4686437,29.4885774 70.7371225,29.244814 L48.0219368,21.6680877 L48.0219368,57.6701344 C47.2018118,57.3488745 46.3090031,57.1725 45.375,57.1725 C44.5546647,57.1725 43.7661074,57.3085573 43.0306628,57.5593371 L43.0306628,21.6680879 L23.9840501,28.0269478 C21.9466529,28.7055362 20.5716594,30.6112191 20.5700314,32.7586582 L20.5700314,98.4934972 L40.7895891,91.7553019 C41.5211062,91.5115386 42.2703638,91.3246424 43.0306627,91.1962813 L43.0306628,71.3056629 C43.7661074,71.5564427 44.5546647,71.6925 45.375,71.6925 C46.3090031,71.6925 47.2018118,71.5161255 48.0219368,71.1948656 Z M22.4068327,23.2852743 L42.371856,16.6319303 C44.4195382,15.9499142 46.6331211,15.9499142 48.6808033,16.6319303 L72.3193713,24.5081319 C74.3670535,25.1901481 76.5806365,25.1901481 78.6283187,24.5081319 L98.8528482,17.7699366 C101.468189,16.8988522 104.294497,18.3128535 105.165588,20.9282024 C105.334584,21.4355967 105.420937,21.9668515 105.421343,22.501647 L105.421343,88.2414578 L105.421343,88.2438616 C105.421343,92.5424051 102.669631,96.3582592 98.5910243,97.7156176 L78.6260011,104.368962 C76.5783192,105.050978 74.3647362,105.050978 72.317054,104.368962 L48.678486,96.49276 C46.6308041,95.810744 44.4172212,95.810744 42.369539,96.4927599 L22.1450094,103.230955 C19.5292499,104.10078 16.7036142,102.685418 15.8337904,100.069658 C15.6652926,99.5629468 15.5791993,99.0324806 15.5787947,98.4984845 L15.5787947,32.7586737 L15.5787944,32.7562714 C15.5787938,28.4577278 18.3305069,24.6418738 22.4091135,23.2845154 L22.4068327,23.2852743 Z"></path>
                            </g>
                        </g>
                    </g>
                </g>
            </g>
        </g>
    </g>
</svg>