<?xml version="1.0" encoding="UTF-8"?>
<svg width="100px" height="80px" viewBox="0 0 100 80" version="1.1" xmlns="http://www.w3.org/2000/svg" xmlns:xlink="http://www.w3.org/1999/xlink">
    <!-- Generator: Sketch 53 (72520) - https://sketchapp.com -->
    <title>img/db_health</title>
    <desc>Created with Sketch.</desc>
    <defs>
        <path d="M0,0 L100,0 L100,77 C100,78.6568542 98.6568542,80 97,80 L0,80 L0,0 Z" id="path-1"></path>
    </defs>
    <g id="img/db_health" stroke="none" stroke-width="1" fill="none" fill-rule="evenodd">
        <g id="Group-4">
            <mask id="mask-2" fill="white">
                <use xlink:href="#path-1"></use>
            </mask>
            <g id="bg"></g>
            <g id="Application-health01" opacity="0.08" mask="url(#mask-2)" fill="#FFFFFF">
                <g transform="translate(-1.250000, -25.000000)" id="Combined-Shape">
                    <path d="M49.2096476,24.6278524 L116.034648,24.6278524 L149.447148,82.5 L116.034648,140.372148 L49.2096476,140.372148 L15.7971476,82.5 L49.2096476,24.6278524 Z M58.6764843,113.092687 C44.4808395,102.016677 39.6521256,82.0930215 48.1314911,65.4513296 C56.9239911,48.1950769 76.9820803,40.4409595 94.782112,46.5830767 L97.9921756,40.2829723 C76.7111035,32.4171966 52.4365801,41.5557583 41.8833079,62.2677213 C31.9676171,81.7283603 37.4378965,104.9834 53.7892769,118.168279 L58.6764843,113.092687 Z M106.396628,112.740216 L111.277972,117.809719 C115.90453,113.978378 119.841602,109.160005 122.74215,103.467359 C133.230934,82.8819606 126.503838,58.0508791 107.892843,45.3842701 L104.678464,51.6928437 C119.850541,62.5492489 125.221526,83.1549514 116.493967,100.283751 C113.957499,105.261849 110.483495,109.449169 106.396628,112.740216 Z M67.446047,88.1735869 L82.1712508,66.4127133 C76.4365356,66.5349099 70.9522944,69.7278848 68.1659325,75.1964278 C66.0275909,79.3931596 65.9074353,84.087605 67.446047,88.1735869 Z M95.7540629,73.3766015 L87.0019485,97.9447926 C91.1119066,96.7459508 94.7370423,93.9192157 96.8340675,89.8035722 C99.6073388,84.3607206 98.9859856,78.080706 95.7540629,73.3766015 Z M107.036013,33.8910592 L66.1531823,97.318859 L80.1197096,104.43516 L107.036013,33.8910592 Z"></path>
                </g>
            </g>
        </g>
    </g>
</svg>