<?xml version="1.0" encoding="UTF-8"?>
<svg width="100px" height="80px" viewBox="0 0 100 80" version="1.1" xmlns="http://www.w3.org/2000/svg" xmlns:xlink="http://www.w3.org/1999/xlink">
    <!-- Generator: Sketch 53 (72520) - https://sketchapp.com -->
    <title>img/db_slow</title>
    <desc>Created with Sketch.</desc>
    <defs>
        <path d="M0,0 L100,0 L100,77 C100,78.6568542 98.6568542,80 97,80 L0,80 L0,0 Z" id="path-1"></path>
    </defs>
    <g id="img/db_slow" stroke="none" stroke-width="1" fill="none" fill-rule="evenodd">
        <g id="Group-4">
            <mask id="mask-2" fill="white">
                <use xlink:href="#path-1"></use>
            </mask>
            <g id="bg"></g>
            <g id="slow" opacity="0.08" mask="url(#mask-2)" fill="#FFFFFF">
                <g transform="translate(-22.000000, -21.000000)" id="Combined-Shape">
                    <path d="M133.329074,67.92575 C133.079997,68.2842181 132.777142,68.6900357 131.968234,68.3794595 C127.742038,66.7568322 125.484031,66.8243615 125.484031,67.7156119 C125.484031,70.3336842 127.301935,71.9123868 130.937742,72.4517198 C131.158849,72.4845186 131.2112,72.707708 131.094794,73.121288 C126.313644,82.8628137 119.482877,88.958623 108.75,92.2329218 C91.1681203,97.5966583 58.8436328,98.0148856 11.7765375,93.4876036 L11.7765335,93.487646 C10.6230533,93.3766953 9.77791618,92.3516715 9.88886694,91.1981913 C9.92118033,90.8622508 10.0340532,90.5390621 10.2179084,90.2560472 C10.5877863,89.6866811 11.0495206,89.1985734 11.5756699,88.8049619 C11.7468507,88.9506238 11.9556486,89.0570555 12.1909256,89.1071006 L12.1909321,89.1070703 C15.1543696,89.7374146 17.2577247,90.0997627 18.5009972,90.1941145 C29.4852265,91.0277064 59.2427719,95.7135735 96.7813323,87.3174901 C108.405396,84.7175873 111.913699,80.6872466 107.306243,75.2264679 C107.241875,75.150179 107.16813,75.0847105 107.087687,75.0308911 C109.340543,70.814083 110.802606,65.2296303 111.473875,58.2775356 C112.028293,52.5355931 116.853382,48.1539574 122.622028,48.1539574 L127.003268,48.1539512 C131.062564,48.1539512 134.353274,51.444661 134.353274,55.5039574 C134.353274,55.5236775 134.353195,55.5433975 134.353036,55.563117 C134.30074,62.0601452 133.95942,66.1810228 133.329074,67.92575 Z M127.2375,60.9 C128.839126,60.9 130.1375,59.6016258 130.1375,58 C130.1375,56.3983742 128.839126,55.1 127.2375,55.1 C125.635874,55.1 124.3375,56.3983742 124.3375,58 C124.3375,59.6016258 125.635874,60.9 127.2375,60.9 Z M40.3306725,61.062411 L47.1716845,70.44633 L36.6421161,87.9055531 C32.0896745,87.5178283 28.4893341,87.0908761 26.0233528,86.9033198 C25.1024293,86.8332767 23.6193233,86.5876742 21.5740349,86.1665124 L21.5740411,86.166482 C20.8167483,86.0105418 20.3292558,85.2702201 20.4851961,84.5129273 C20.5871938,84.0175955 20.9484079,83.6157788 21.430118,83.4617903 C24.40176,82.5118443 26.2743418,81.5667223 27.0478634,80.6264243 C29.167312,74.3846095 33.9759561,66.9919429 40.3306725,61.062411 Z M43.1045754,58.6513562 C49.2372318,53.6985756 56.5072679,50.2496077 64.0640474,50.2496077 C69.9459605,50.2496077 74.9108898,51.2846624 79.206101,53.2679825 L74.8961612,66.4460295 L49.7478225,67.7639981 L43.1045754,58.6513562 Z M82.4961078,55.0502835 C88.9695782,59.1107344 93.8262076,65.6480085 98.1490931,74.2819436 C98.8516789,75.6851914 101.425277,76.4685351 105.869888,76.6319747 L105.869887,76.6319985 C106.64255,76.6604113 107.245884,77.3098117 107.217472,78.082475 C107.200604,78.5411826 106.959943,78.962482 106.573384,79.2100092 C103.522196,81.1637938 98.5754425,82.9215582 91.7331232,84.4833024 C91.2802212,84.5866763 90.8286356,84.687718 90.3783949,84.7864713 L78.4343677,69.0239896 L78.364149,67.6841366 L82.4961078,55.0502835 Z M86.3886568,85.6097399 C68.012409,89.1645821 52.1083254,88.9882282 40.7291777,88.2188163 L50.912982,71.3329094 L74.6285879,70.0900272 L86.3886568,85.6097399 Z M44.5875,98.7918438 L44.5875,106.3875 C44.5875,109.093695 42.3936953,111.2875 39.6875,111.2875 L33.9,111.2875 C31.1938047,111.2875 29,109.093695 29,106.3875 L29,97.8960595 C34.4124963,98.2667936 39.6083296,98.5653884 44.5875,98.7918438 Z M104.453586,96.5171526 L106.682333,103.807056 C107.473548,106.395003 106.017009,109.134356 103.429061,109.925571 L97.8944474,111.617672 C95.3065,112.408887 92.5671476,110.952347 91.7759327,108.3644 L88.7691031,98.5295037 C94.6122348,98.0634785 99.8403957,97.3926948 104.453586,96.5171526 Z"></path>
                </g>
            </g>
        </g>
    </g>
</svg>