<?xml version="1.0" encoding="UTF-8"?>
<svg width="138px" height="80px" viewBox="0 0 138 80" version="1.1" xmlns="http://www.w3.org/2000/svg" xmlns:xlink="http://www.w3.org/1999/xlink">
    <!-- Generator: Sketch 52.3 (67297) - http://www.bohemiancoding.com/sketch -->
    <title>Group 17 Copy 5</title>
    <desc>Created with Sketch.</desc>
    <g id="Page-1" stroke="none" stroke-width="1" fill="none" fill-rule="evenodd">
        <g id="修改货架名称" transform="translate(-1685.000000, -188.000000)">
            <g id="Group-17-Copy-5" transform="translate(1685.000000, 188.000000)">
                <rect id="Rectangle-14-Copy-11" stroke-opacity="0.8" stroke="#34495E" stroke-width="2" x="1" y="1" width="136" height="78" rx="4"></rect>
                <g id="Group" transform="translate(18.000000, 21.000000)" fill="#34495E">
                    <text id="取消" font-family="PingFangSC-Regular, PingFang SC" font-size="24" font-weight="normal">
                        <tspan x="53" y="28">取消</tspan>
                    </text>
                    <g id="icon/通用/取消">
                        <path d="M18.2666666,18.2666666 L18.2666666,7.658944 C18.2666666,7.29501928 18.5616859,7 18.9256106,7 L21.0743894,7 C21.4383141,7 21.7333334,7.29501928 21.7333334,7.658944 L21.7333334,18.2666666 L32.341056,18.2666666 C32.7049807,18.2666666 33,18.5616859 33,18.9256106 L33,21.0743894 C33,21.4383141 32.7049807,21.7333334 32.341056,21.7333334 L21.7333334,21.7333334 L21.7333334,32.341056 C21.7333334,32.7049807 21.4383141,33 21.0743894,33 L18.9256106,33 C18.5616859,33 18.2666666,32.7049807 18.2666666,32.341056 L18.2666666,21.7333334 L7.658944,21.7333334 C7.29501928,21.7333334 7,21.4383141 7,21.0743894 L7,18.9256106 C7,18.5616859 7.29501928,18.2666666 7.658944,18.2666666 L18.2666666,18.2666666 Z" id="Combined-Shape" transform="translate(20.000000, 20.000000) rotate(-315.000000) translate(-20.000000, -20.000000) "></path>
                    </g>
                </g>
            </g>
        </g>
    </g>
</svg>