<?xml version="1.0" encoding="UTF-8"?>
<svg width="70px" height="70px" viewBox="0 0 70 70" version="1.1" xmlns="http://www.w3.org/2000/svg" xmlns:xlink="http://www.w3.org/1999/xlink">
    <!-- Generator: Sketch 49.3 (51167) - http://www.bohemiancoding.com/sketch -->
    <title>关闭-2</title>
    <desc>Created with Sketch.</desc>
    <defs>
        <polygon id="path-1" points="0.00520446097 0.0665086741 69.9396499 0.0665086741 69.9396499 69.9998916 0.00520446097 69.9998916"></polygon>
    </defs>
    <g id="Symbols" stroke="none" stroke-width="1" fill="none" fill-rule="evenodd">
        <g id="icon/通用/关闭-copy">
            <g id="关闭-2">
                <mask id="mask-2" fill="white">
                    <use xlink:href="#path-1"></use>
                </mask>
                <g id="Clip-2"></g>
                <path d="M68.549083,8.17204461 C70.4031722,6.31795539 70.4031722,3.30231722 68.549083,1.45707559 C66.6947336,-0.397013631 63.690285,-0.397013631 61.834114,1.45707559 L34.9718959,28.3172986 L8.10724907,1.45707559 C6.25315985,-0.397013631 3.24871128,-0.397013631 1.39228005,1.45707559 C-0.464237918,3.31116481 -0.464237918,6.31552664 1.39228005,8.17204461 L28.2521561,35.0342627 L1.39228005,61.8921437 C-0.464237918,63.746233 -0.464237918,66.7506815 1.39228005,68.6071128 C3.24194548,70.461202 6.2507311,70.461202 8.10724907,68.6071128 L34.9674721,41.7492317 L61.831772,68.6159603 C63.6858612,70.461202 66.6970756,70.461202 68.5511648,68.6159603 C70.4008302,66.7594424 70.4008302,63.746233 68.5511648,61.8921437 L41.6868649,35.0299257 L68.549083,8.17204461 Z" id="Fill-1" fill="#A4ADB7" mask="url(#mask-2)"></path>
            </g>
        </g>
    </g>
</svg>