<?xml version="1.0" encoding="UTF-8"?>
<svg width="180px" height="80px" viewBox="0 0 180 80" version="1.1" xmlns="http://www.w3.org/2000/svg" xmlns:xlink="http://www.w3.org/1999/xlink">
    <!-- Generator: Sketch 52.3 (67297) - http://www.bohemiancoding.com/sketch -->
    <title>Group 17 Copy 3</title>
    <desc>Created with Sketch.</desc>
    <g id="Page-1" stroke="none" stroke-width="1" fill="none" fill-rule="evenodd">
        <g id="录入界面" transform="translate(-1556.000000, -188.000000)">
            <g id="Group-17-Copy-3" transform="translate(1556.000000, 188.000000)">
                <rect id="Rectangle-14-Copy-11" stroke="#1296DB" stroke-width="2" fill="#FFFFFF" x="1" y="1" width="178" height="78" rx="4"></rect>
                <g id="Group" transform="translate(18.000000, 21.000000)">
                    <text id="导入采集" font-family="PingFangSC-Regular, PingFang SC" font-size="24" font-weight="normal" fill="#1296DB">
                        <tspan x="49" y="28">导入采集</tspan>
                    </text>
                    <g id="icon/通用/导入-blue">
                        <path d="M10.9668647,17.5123797 C10.9668647,16.3223765 10.1736312,15.5289506 8.98343233,15.5289506 C7.79338843,15.5289506 7,16.3223765 7,17.5123797 L7,29.0165321 C7,30.2065741 7.79338843,31 8.98343233,31 L20.4876033,31 C21.6776472,31 22.4710356,30.2065741 22.4710356,29.0165321 C22.4710356,27.8265289 21.6776472,27.033103 20.4876033,27.033103 L13.7438791,27.033103 L30.4049587,10.3718954 C31.1983471,9.57850823 31.1983471,8.38846625 30.4049587,7.59504036 C29.6115315,6.80165321 28.4215263,6.80165321 27.6280992,7.59504036 L10.9668647,24.256248 L10.9668647,17.5123797 Z" id="Fill-3" fill="#1296DB" fill-rule="evenodd"></path>
                        <path d="M3.2,0 L35.2,-4.4408921e-16 C36.9673112,-7.6873901e-16 38.4,1.4326888 38.4,3.2 L38.4,35.2 C38.4,36.9673112 36.9673112,38.4 35.2,38.4 L3.2,38.4 C1.4326888,38.4 3.25247395e-15,36.9673112 -8.8817842e-16,35.2 L-4.4408921e-16,3.2 C-6.6052241e-16,1.4326888 1.4326888,-5.63528619e-16 3.2,-8.8817842e-16 Z M4,2.4 C3.1163444,2.4 2.4,3.1163444 2.4,4 L2.4,34.4 C2.4,35.2836556 3.1163444,36 4,36 L34.4,36 C35.2836556,36 36,35.2836556 36,34.4 L36,4 C36,3.1163444 35.2836556,2.4 34.4,2.4 L4,2.4 Z" id="Combined-Shape"></path>
                    </g>
                </g>
            </g>
        </g>
    </g>
</svg>