<?xml version="1.0" encoding="UTF-8"?>
<svg width="180px" height="180px" viewBox="0 0 180 180" version="1.1" xmlns="http://www.w3.org/2000/svg" xmlns:xlink="http://www.w3.org/1999/xlink">
    <!-- Generator: Sketch 49.3 (51167) - http://www.bohemiancoding.com/sketch -->
    <title>错误</title>
    <desc>Created with Sketch.</desc>
    <defs>
        <polygon id="path-1" points="0.0136882129 0.2121673 179.881369 0.2121673 179.881369 180 0.0136882129 180"></polygon>
    </defs>
    <g id="样式汇总" stroke="none" stroke-width="1" fill="none" fill-rule="evenodd">
        <g id="alert-样式" transform="translate(-1323.000000, -573.000000)">
            <g id="错误" transform="translate(1323.000000, 573.000000)">
                <g id="Group-3">
                    <mask id="mask-2" fill="white">
                        <use xlink:href="#path-1"></use>
                    </mask>
                    <g id="Clip-2"></g>
                    <path d="M89.8939163,180 C138.952243,180 179.881369,139.164411 179.881369,90.1060837 C179.881369,41.0477567 138.858707,0.2121673 89.8939163,0.2121673 C40.9291255,0.2121673 0,41.0477567 0,90.1060837 C0,139.164411 40.8355894,180 89.8939163,180 Z M170.536882,90.1060837 C170.536882,134.491939 134.28,170.655285 89.8939163,170.655285 C45.5080608,170.655285 9.34471483,134.399316 9.34471483,90.1060837 C9.34471483,45.8135361 45.4142966,9.55688213 89.8939163,9.55688213 C134.373536,9.55688213 170.536882,45.72 170.536882,90.1060837 Z" id="Fill-1" fill="#646464" mask="url(#mask-2)"></path>
                </g>
                <path d="M97.6496578,90.1060837 L132.504639,55.2511027 C134.560608,53.1951331 134.560608,49.8310266 132.504639,47.7759696 L132.317567,47.5888973 C130.261597,45.5329278 126.898403,45.5329278 124.842662,47.5888973 L89.9874525,82.4438783 L55.0389354,47.5888973 C52.9829658,45.5329278 49.6188593,45.5329278 47.5638023,47.5888973 L47.37673,47.7759696 C45.3207605,49.8310266 45.3207605,53.1951331 47.37673,55.2511027 L82.231711,90.1060837 L47.37673,123.932624 C45.3207605,125.988593 45.3207605,129.3527 47.37673,131.408669 L47.5638023,131.595741 C49.6188593,133.651711 52.9829658,133.651711 55.0389354,131.595741 L89.8939163,97.768289 L124.748897,132.62327 C126.804867,134.67924 130.168973,134.67924 132.224943,132.62327 L132.411103,132.43711 C134.467072,130.381141 134.467072,127.017034 132.411103,124.961065 L97.6496578,90.1060837 Z" id="Fill-4" fill="#646464"></path>
            </g>
        </g>
    </g>
</svg>