<?xml version="1.0" encoding="UTF-8"?>
<svg width="502px" height="536px" viewBox="0 0 502 536" version="1.1" xmlns="http://www.w3.org/2000/svg" xmlns:xlink="http://www.w3.org/1999/xlink">
    <!-- Generator: Sketch 52.3 (67297) - http://www.bohemiancoding.com/sketch -->
    <title>icon/占位图/请添加</title>
    <desc>Created with Sketch.</desc>
    <g id="Page-1" stroke="none" stroke-width="1" fill="none" fill-rule="evenodd">
        <g id="录入界面-copy-3" transform="translate(-773.000000, -525.000000)">
            <rect fill="#F7F8FA" x="0" y="0" width="2048" height="1536"></rect>
            <g id="icon/占位图/请添加" transform="translate(873.000000, 625.000000)">
                <g id="Group" transform="translate(17.480000, 252.000000)" fill="#C7CDD3" font-weight="normal">
                    <text id="请添加内容" font-family="PingFangSC-Regular, PingFang SC" font-size="40.32" letter-spacing="6.71999989">
                        <tspan x="16.4000003" y="43">请添加内容</tspan>
                    </text>
                    <text id="Please-add-content" font-family="Helvetica" font-size="26" letter-spacing="1.83529413">
                        <tspan x="6.17620051" y="76">Please add content</tspan>
                    </text>
                </g>
                <g id="bianji-2" transform="translate(70.000000, 41.000000)" fill="#D3D6DC">
                    <path d="M10.787234,143.054844 C4.68356556,142.079592 0,136.760188 0,130.36959 L0,12.8451024 C0,5.76517706 5.74845225,0 12.8078387,0 L105.711724,0 C112.070976,0 117.36643,4.67832937 118.354262,10.7817259 C117.594999,10.7817259 116.976564,10.7817259 116.498958,10.7817259 L23.5950728,10.7817259 C16.5356863,10.7817259 10.787234,16.5469029 10.787234,23.6268283 L10.787234,143.054844 Z" id="Combined-Shape" opacity="0.626641757"></path>
                    <path d="M69.2353452,141.5111 C72.6330102,137.280812 76.6340371,133.402569 80.4329899,129.525146 L111.481915,97.8319972 C121.1402,87.9784001 130.798281,78.1239833 140.438995,68.2703862 C142.598675,66.0716361 144.657216,63.3851856 147.067394,61.4720886 C149.57769,59.4911643 151.252106,60.7333659 153.209917,62.7472817 C154.933779,64.5267734 156.608399,66.3564695 158.298752,68.1527643 C158.68349,68.5730473 160.909574,70.3187278 160.909574,70.9232304 L160.859107,28.5527218 C160.859107,22.2242969 155.720826,17.071066 149.41076,17.071066 L28.5281347,17.071066 C22.2180686,17.071066 17.0797872,22.2242969 17.0797872,28.5527218 L17.0797872,161.773003 C17.0797872,168.101427 22.2180686,173.254658 28.5281347,173.254658 L58.5562688,173.406091 L64.515106,150.995643 C64.5318604,150.995643 65.921452,145.640775 69.2353452,141.5111 Z M81.7220554,83.5798753 L40.2288194,83.5798753 C38.2701919,83.5798753 36.680365,81.9854229 36.680365,80.0210969 C36.680365,78.0567708 38.2701919,76.4623184 40.2288194,76.4623184 L81.7220554,76.4623184 C83.6806829,76.4623184 85.2705098,78.0567708 85.2705098,80.0210969 C85.2872642,81.9854229 83.6806829,83.5798753 81.7220554,83.5798753 Z M110.612118,64.7956233 L40.2288194,64.7956233 C38.2701919,64.7956233 36.680365,63.2011709 36.680365,61.2368449 C36.680365,59.2725188 38.2701919,57.6780664 40.2288194,57.6780664 L110.612118,57.6780664 C112.569928,57.6780664 114.160572,59.2725188 114.160572,61.2368449 C114.160572,63.2003512 112.570541,64.7956233 110.612118,64.7956233 Z M130.261937,45.9945682 L40.2288194,45.9945682 C38.2701919,45.9945682 36.680365,44.4001158 36.680365,42.4357897 C36.680365,40.4714637 38.2701919,38.8770113 40.2288194,38.8770113 L130.261937,38.8770113 C132.220565,38.8770113 133.810596,40.4714637 133.810596,42.4357897 C133.810596,44.3992961 132.220565,45.9945682 130.261937,45.9945682 Z" id="Fill-1"></path>
                    <path d="M167.63669,95.1937282 L151.203483,78.5935779 C149.455187,76.8275214 146.392316,76.8275214 144.64402,78.5935779 L75.8804321,148.021235 C75.5977212,148.307434 75.3810642,148.677193 75.2810687,149.064609 L68.4049538,173.972533 C68.1880936,174.763378 68.3882879,175.621359 68.9376535,176.227017 C69.3870236,176.714622 70.0197189,177 70.6690801,177 C70.8192766,177 70.951791,176.983165 71.1017843,176.96633 L97.6583189,171.937934 C98.1243549,171.853758 98.5570591,171.61786 98.8905808,171.281977 L167.653356,101.836663 C169.451649,100.004087 169.451649,97.0271256 167.63669,95.1937282 Z M156.997329,108.967819 C156.115458,109.859675 154.733203,109.910181 153.901126,109.06883 L137.501251,92.5023502 C136.668361,91.6618206 136.718359,90.2655233 137.601246,89.3744881 C138.48332,88.4828369 139.882038,88.4323312 140.697449,89.2734767 L157.097528,105.840162 C157.930214,106.663651 157.880216,108.076783 156.998142,108.967819 L156.997329,108.967819 Z" id="Fill-3"></path>
                </g>
            </g>
        </g>
    </g>
</svg>