<?xml version="1.0" encoding="UTF-8"?>
<svg width="234px" height="68px" viewBox="0 0 234 68" version="1.1" xmlns="http://www.w3.org/2000/svg" xmlns:xlink="http://www.w3.org/1999/xlink">
    <!-- Generator: Sketch 52.3 (67297) - http://www.bohemiancoding.com/sketch -->
    <title>Group 12 Copy 5</title>
    <desc>Created with Sketch.</desc>
    <defs>
        <polygon id="path-1" points="0.00310626703 0.0059392 37.993479 0.0059392 37.993479 31.9999488 0.00310626703 31.9999488"></polygon>
    </defs>
    <g id="Page-1" stroke="none" stroke-width="1" fill="none" fill-rule="evenodd">
        <g id="查看明细-all-copy" transform="translate(-2846.000000, -1333.000000)">
            <g id="Group-12-Copy-5" transform="translate(2846.000000, 1333.000000)">
                <g id="Fill/rounded-square/white-color" fill="#FFFFFF">
                    <rect id="BG" x="0" y="0" width="234" height="68" rx="8"></rect>
                </g>
                <text id="刷新账面库存" font-family="PingFangSC-Regular, PingFang SC" font-size="24" font-weight="normal" fill="#A7AAB2">
                    <tspan x="70" y="43">刷新账面库存</tspan>
                </text>
                <g id="icon/通用/刷新-disabled" transform="translate(12.000000, 15.000000)">
                    <g id="shuaxin" transform="translate(0.000000, 3.000000)">
                        <mask id="mask-2" fill="white">
                            <use xlink:href="#path-1"></use>
                        </mask>
                        <g id="Clip-2"></g>
                        <path d="M25.233303,25.397778 C23.3439401,26.7335513 21.1326337,27.4037002 18.871523,27.3730458 C18.5743657,27.3693987 18.277579,27.3544408 17.9816725,27.3283107 C17.8620498,27.3167692 17.7426124,27.2969177 17.6213681,27.2819598 C17.3906009,27.2505668 17.1598801,27.2192199 16.9356453,27.175362 C16.7962862,27.1488626 16.6600312,27.1133608 16.5239152,27.0810445 C16.3031552,27.0289228 16.0839704,26.975924 15.8682603,26.9115221 C15.7652698,26.8792519 15.6639472,26.8419496 15.5611421,26.8073249 C15.3137426,26.7236256 15.0661578,26.6368793 14.8256615,26.5351751 C14.7708074,26.5128306 14.7178064,26.4872084 14.6645738,26.4623248 C14.3822883,26.3375375 14.1050063,26.2067948 13.8361099,26.0596169 C13.8228597,26.0529689 13.8129452,26.0471982 13.799556,26.0405041 C12.8910347,25.5373846 12.0587255,24.9081852 11.3275998,24.1720649 C11.3160174,24.1605233 11.3044351,24.1471813 11.2928527,24.1339778 C11.0653749,23.9048087 10.8494795,23.6642365 10.6436839,23.4144311 C10.6006438,23.3605551 10.5589936,23.3035398 10.5157682,23.2489252 C9.02993517,21.3739304 8.13359856,19.0008945 8.13359856,16.4193719 L10.6536447,16.4193719 C10.7184597,16.4193719 10.7814215,16.3847472 10.8147324,16.3234385 C10.8471167,16.2646227 10.8438736,16.1928804 10.8063931,16.1373425 L6.57122923,9.72799407 C6.53810365,9.67836539 6.48199864,9.64521805 6.41811027,9.64521805 C6.35496318,9.64521805 6.29848754,9.67818073 6.26536195,9.72799407 L2.03019813,16.1364191 C1.99457075,16.1910799 1.98877956,16.2621297 2.02190515,16.3234385 C2.05516972,16.3845626 2.11817782,16.4193719 2.18294645,16.4193719 L4.70322427,16.4193719 C4.70322427,19.4540621 5.64121109,22.2671544 7.23360192,24.5929623 C7.2535236,24.6252325 7.26691283,24.6600418 7.28840971,24.692312 C7.45454725,24.9305297 7.6371781,25.1496346 7.81471269,25.3745564 C7.87948132,25.4598254 7.94248942,25.547495 8.01068643,25.6311482 C8.2712898,25.9503414 8.54857179,26.2497294 8.83252522,26.543485 C8.86055456,26.5723389 8.88552615,26.6013775 8.91211928,26.6269535 C9.86136416,27.5860105 10.94376,28.4043529 12.1262275,29.0570048 C12.1564807,29.0764869 12.1874288,29.0947226 12.2190718,29.1116656 C12.5578794,29.2952224 12.9064161,29.4615132 13.2600491,29.6185706 C13.3479824,29.6566116 13.4327191,29.6988075 13.5224593,29.7368946 C13.8245276,29.8625591 14.1350741,29.9734965 14.4470569,30.0793557 C14.5948943,30.1298153 14.7409712,30.1810598 14.8904301,30.2274107 C15.1642837,30.3092634 15.4431409,30.3770816 15.7238513,30.4448998 C15.9113467,30.4887115 16.0957381,30.5359396 16.2864766,30.5723647 C16.3646807,30.5889845 16.4392249,30.6127601 16.5172437,30.625225 C16.782897,30.6724531 17.0485503,30.698814 17.3142499,30.7319613 C17.4105226,30.7426257 17.5051737,30.7591994 17.5998249,30.7700484 C18.0779452,30.8170918 18.5526371,30.8484848 19.0275144,30.8484848 C21.9345045,30.8484848 24.7700081,29.9520292 27.2021673,28.2323376 C27.9776302,27.6831904 28.1667472,26.6055324 27.6238119,25.8221379 C27.0794404,25.0380046 26.008627,24.848677 25.233303,25.397778 Z M33.298294,16.4193719 C33.2966261,13.3936841 32.3653571,10.5865472 30.779823,8.26563295 C30.7566582,8.22574534 30.740026,8.1852114 30.7150544,8.14892475 C30.5175981,7.86509484 30.3035095,7.60056241 30.0892356,7.33510666 C30.064264,7.30279031 30.0410993,7.2689043 30.0145062,7.23732661 C28.5634203,5.46154303 26.7423008,4.0893907 24.6770248,3.19275041 C24.6205492,3.16786682 24.5640735,3.13989009 24.5075979,3.1150065 C24.1773613,2.97849299 23.8403606,2.857676 23.5015994,2.74281445 C23.3788726,2.70223434 23.2576283,2.65768394 23.1330946,2.62038164 C22.8376052,2.53017285 22.5371584,2.45663006 22.2349512,2.38627275 C22.0673774,2.34749312 21.9012399,2.30442004 21.7318129,2.27122653 C21.6471226,2.25483752 21.5691501,2.22990777 21.4860813,2.21513458 C21.2604104,2.17529313 21.0328863,2.1579808 20.8072154,2.12912691 C20.6510386,2.10909077 20.4966688,2.08439185 20.3390559,2.06781817 C19.9588298,2.03227019 19.5818467,2.01731233 19.205049,2.0108029 C19.1370373,2.0108029 19.0689793,2 19.0009213,2 C18.9891536,2 18.9775712,2.00323164 18.9643673,2.00415496 C16.0622418,2.00650944 13.2318344,2.89068485 10.8029647,4.60783733 C10.0260192,5.15555334 9.83671687,6.23482718 10.3794668,7.01822174 C10.9224021,7.80143163 11.9948371,7.99168261 12.7701611,7.44239695 C14.6461347,6.11654933 16.8359443,5.44570802 19.0805617,5.46569799 C19.4043121,5.46805247 19.7213911,5.48374898 20.0351808,5.51366469 C20.1331213,5.52520625 20.2277724,5.53928694 20.3240451,5.55175182 C20.5829806,5.58309868 20.8387194,5.62026249 21.0909835,5.67076833 C21.2023132,5.69223562 21.3134113,5.72122801 21.4212664,5.7459731 C21.6686659,5.80220355 21.9160653,5.86263513 22.1585539,5.93622409 C22.2347659,5.96110768 22.3094953,5.98853041 22.3858927,6.01392183 C22.6631283,6.10500778 22.9336925,6.20348032 23.2009673,6.31511024 C23.2276068,6.32665179 23.2558215,6.34068632 23.2824146,6.35153538 C24.8811526,7.04545981 26.2840558,8.11416159 27.378034,9.44988878 C27.3847518,9.4581987 27.3912842,9.46881693 27.3979557,9.47638819 C28.9385965,11.3679566 29.8666224,13.7864663 29.8666224,16.4191872 L27.346391,16.4191872 C27.2792595,16.4193719 27.2173633,16.4561664 27.1854886,16.5151206 C27.1531043,16.5742595 27.1561621,16.6462327 27.1938279,16.70214 L31.430428,23.1107497 C31.4621174,23.1603784 31.518593,23.1926486 31.5833616,23.1926486 C31.6447019,23.1924639 31.7020578,23.1618095 31.73611,23.1107497 L35.9694669,16.70214 C36.0069012,16.6462327 36.0101905,16.5742595 35.9778062,16.5153053 C35.9459315,16.4561664 35.8840354,16.4193719 35.8167186,16.4191872 L33.298294,16.4191872 L33.298294,16.4193719 Z" id="Fill-1" fill="#CACFD5" mask="url(#mask-2)"></path>
                    </g>
                </g>
            </g>
        </g>
    </g>
</svg>