<?xml version="1.0" encoding="UTF-8"?>
<svg width="180px" height="80px" viewBox="0 0 180 80" version="1.1" xmlns="http://www.w3.org/2000/svg" xmlns:xlink="http://www.w3.org/1999/xlink">
    <!-- Generator: Sketch 52.3 (67297) - http://www.bohemiancoding.com/sketch -->
    <title>Group 17 Copy 2</title>
    <desc>Created with Sketch.</desc>
    <g id="Page-1" stroke="none" stroke-width="1" fill="none" fill-rule="evenodd">
        <g id="录入界面" transform="translate(-1314.000000, -188.000000)">
            <g id="Group-17-Copy-2" transform="translate(1314.000000, 188.000000)">
                <rect id="Rectangle-14-Copy-11" stroke="#1296DB" stroke-width="2" fill="#FFFFFF" x="1" y="1" width="178" height="78" rx="4"></rect>
                <g id="Group" transform="translate(18.000000, 21.000000)" fill="#1296DB">
                    <text id="扫码添加" font-family="PingFangSC-Regular, PingFang SC" font-size="24" font-weight="normal">
                        <tspan x="49" y="28">扫码添加</tspan>
                    </text>
                    <g id="icon/通用/扫描-blue">
                        <g id="Group" transform="translate(4.000000, 4.000000)">
                            <path d="M3.10690319e-16,11.4461538 L0,2.56 C-1.7314656e-16,1.14615104 1.14615104,1.14789826e-15 2.56,8.8817842e-16 L11.4461538,0 L11.4461538,1.90769231 L3.18769231,1.90769231 C2.48076783,1.90769231 1.90769231,2.48076783 1.90769231,3.18769231 L1.90769231,11.4461538 L0,11.4461538 Z M1.33226763e-15,19.0769231 L1.90769231,19.0769231 L1.90769231,27.3353846 C1.90769231,28.0423091 2.48076783,28.6153846 3.18769231,28.6153846 L11.4461538,28.6153846 L11.4461538,30.5230769 L2.56,30.5230769 C1.14615104,30.5230769 1.06132498e-15,29.3769259 8.8817842e-16,27.9630769 L5.774881e-16,19.0769231 Z M30.5230769,11.4461538 L28.6153846,11.4461538 L28.6153846,3.18769231 C28.6153846,2.48076783 28.0423091,1.90769231 27.3353846,1.90769231 L19.0769231,1.90769231 L19.0769231,0 L27.9630769,0 C29.3769259,-2.77122011e-15 30.5230769,1.14615104 30.5230769,2.56 L30.5230769,11.4461538 Z M30.5230769,19.0769231 L30.5230769,27.9630769 C30.5230769,29.3769259 29.3769259,30.5230769 27.9630769,30.5230769 L19.0769231,30.5230769 L19.0769231,28.6153846 L27.3353846,28.6153846 C28.0423091,28.6153846 28.6153846,28.0423091 28.6153846,27.3353846 L28.6153846,19.0769231 L30.5230769,19.0769231 Z" id="Combined-Shape"></path>
                            <rect id="Rectangle-5" x="0.635897436" y="13.9897436" width="29.2512821" height="2.54358974" rx="0.64"></rect>
                        </g>
                    </g>
                </g>
            </g>
        </g>
    </g>
</svg>