<?xml version="1.0" encoding="UTF-8"?>
<svg width="180px" height="80px" viewBox="0 0 180 80" version="1.1" xmlns="http://www.w3.org/2000/svg" xmlns:xlink="http://www.w3.org/1999/xlink">
    <!-- Generator: Sketch 51.3 (57544) - http://www.bohemiancoding.com/sketch -->
    <title>Group 17 Copy</title>
    <desc>Created with Sketch.</desc>
    <defs></defs>
    <g id="7.-补货审批" stroke="none" stroke-width="1" fill="none" fill-rule="evenodd">
        <g id="草稿状态-调拨出库-copy-12" transform="translate(-1071.000000, -188.000000)">
            <g id="Group-17-Copy" transform="translate(1071.000000, 188.000000)">
                <rect id="Rectangle-14-Copy-11" stroke="#1296DB" stroke-width="2" fill="#FFFFFF" x="1" y="1" width="178" height="78" rx="4"></rect>
                <text id="商品浏览" font-family="PingFangSC-Regular, PingFang SC" font-size="24" font-weight="normal" fill="#1296DB">
                    <tspan x="67" y="49">商品浏览</tspan>
                </text>
                <g id="Group" transform="translate(18.000000, 21.000000)" fill="#1296DB" fill-rule="nonzero" stroke="#1296DB" stroke-width="0.6">
                    <g id="icon/通用/录入_浏览_blue">
                        <path d="M27.40351,34.9566222 C25.4464938,34.9566222 23.5887171,34.2149334 22.1727625,32.8683039 L22.1038056,32.8026539 L22.1024904,32.8037437 L22.030039,32.7339228 C20.5971295,31.3025556 19.8071136,29.3971679 19.8071136,27.3705328 L19.8071136,20.698749 C19.8071136,20.1944065 20.2179233,19.7842724 20.7227175,19.7842724 C21.2285987,19.7842724 21.6403118,20.1944432 21.6403118,20.698749 L21.6403118,27.3705328 C21.6403118,28.9088512 22.2395017,30.3544595 23.3272508,31.4408791 L23.385648,31.5003659 C24.4683256,32.5490346 25.8946581,33.1256033 27.4035175,33.1256033 C28.9451043,33.1256033 30.3936099,32.5281797 31.4819796,31.4432474 C32.5684139,30.35595 33.1667408,28.9094347 33.1667408,27.3704773 C33.1667408,25.8530541 32.5822437,24.4214593 31.5208726,23.3390204 L31.4817908,23.3018926 C30.3936268,22.2150433 28.9444455,21.6154017 27.4035491,21.6154017 L25.1261749,21.6154017 C24.6202937,21.6154017 24.2088046,21.2041807 24.2088046,20.6987108 C24.2088046,20.1943683 24.6202901,19.7840102 25.1261749,19.7840102 L27.4035491,19.7840102 C29.4332432,19.7840102 31.340849,20.5728987 32.7753119,22.0055806 L32.8262683,22.0609338 C34.2288523,23.4870423 35,25.3717956 35,27.3705251 C35,29.3945088 34.2099841,31.2981669 32.7753486,32.7310875 C31.3379663,34.1661746 29.4301402,34.9566422 27.4035124,34.9566422 L27.40351,34.9566222 Z M10.5963288,34.9563967 C8.59496996,34.9563967 6.70526284,34.1841583 5.275427,32.7817984 L5.23119706,32.7409506 C3.79359069,31.3058634 3.00004208,29.3973579 3.00004208,27.3703262 C3.00004208,25.3434891 3.79005797,23.4382776 5.22446945,22.0056142 C6.65888094,20.5729323 8.56663361,19.7840438 10.5962323,19.7840438 L17.2772702,19.7840438 C17.7820644,19.7840438 18.1928741,20.1942146 18.1929843,20.6985203 L18.1929843,27.3703042 C18.1929843,29.3947396 17.4029684,31.2983867 15.9684431,32.7308665 C14.5312517,34.1659537 12.6234219,34.9564213 10.5963498,34.9564213 L10.5963288,34.9563967 Z M10.5962161,21.6154364 C9.05530505,21.6154364 7.60777988,22.2137633 6.52003087,23.3003849 C5.43239203,24.3857286 4.83331593,25.8313772 4.83331593,27.3705109 C4.83331593,28.9092406 5.43239203,30.3548893 6.52014471,31.4406369 L6.56133071,31.484341 C7.64446,32.5435307 9.07638903,33.1253986 10.5962029,33.1253986 C12.1381275,33.1253986 13.5865928,32.527975 14.6748118,31.4432666 C15.7612461,30.3559693 16.3595731,28.9096817 16.3595731,27.3704966 L16.3595731,21.615422 L10.5962359,21.615422 L10.5962161,21.6154364 Z M20.7226898,18.1723729 C20.2178957,18.1723729 19.8071998,17.7622021 19.8071998,17.2578963 L19.8071998,10.5861125 C19.8071998,8.55893388 20.5973258,6.65373345 22.031741,5.22151063 C23.4661892,3.78893895 25.3737913,3.00001373 27.4035038,3.00001373 C29.4334256,3.00001373 31.341024,3.78893895 32.7752666,5.22151063 L32.8661693,5.3120751 L32.9146833,5.36870594 C34.2593187,6.78425297 34.9999205,8.63710517 34.9999205,10.5860864 C34.9999205,12.6102942 34.2099047,14.514022 32.7752692,15.9467223 C31.3381879,17.3819233 29.4303618,18.1723908 27.4035063,18.1723908 L20.7227255,18.1723908 L20.7226898,18.1723729 Z M27.4034707,4.83100857 C25.862747,4.83100857 24.4151447,5.42933552 23.3271753,6.51576986 C22.2394263,7.60209035 21.6402364,9.04762883 21.6402364,10.5861162 L21.6402364,16.3411907 L27.4034634,16.3411907 C28.9450501,16.3411907 30.3933281,15.7437304 31.4819254,14.6587613 C32.5683598,13.571464 33.1666867,12.1251764 33.1666867,10.5861015 C33.1666867,9.0717226 32.5841799,7.64211812 31.5265325,6.56063033 L31.4780185,6.51407033 C30.3917714,5.42928852 28.9441324,4.83096156 27.4034491,4.83096156 L27.4034707,4.83100857 Z M10.5961794,18.1723729 C8.63728298,18.1723729 6.77863227,17.4297807 5.36264089,16.0811241 L5.28831044,16.0104013 L5.28710791,16.0114911 L5.22299886,15.949599 C3.78997549,14.5181179 3,12.6129212 3,10.5860988 C3,8.55937184 3.79001588,6.65416038 5.22442737,5.2214969 C6.65876541,3.78892522 8.56647768,3 10.5961902,3 C12.6258843,3 14.5337104,3.78892522 15.9681366,5.2214969 L16.0202957,5.27824048 C17.4222406,6.70310773 18.1928265,8.58726238 18.1928265,10.5861057 L18.1928265,17.2578896 C18.1928265,17.7622321 17.7821306,18.1723661 17.2772226,18.1723661 L10.5961847,18.1723661 L10.5961794,18.1723729 Z M10.5961794,4.83100857 C9.05556945,4.83100857 7.60796716,5.42933552 6.51999415,6.51565602 C5.43235531,7.6017525 4.83327921,9.04728731 4.83327921,10.5861492 C4.83327921,12.1246549 5.43224514,13.5703036 6.51999415,14.6567159 L6.57839135,14.7161277 C7.66106895,15.7647964 9.0872876,16.341288 10.5961507,16.341288 L16.3594512,16.341288 L16.3594512,10.5862135 C16.3594512,9.06897758 15.774954,7.63719544 14.7135829,6.55427914 L14.6740502,6.51718919 C13.5860368,5.43079158 12.136782,4.83103978 10.5961757,4.83103978 L10.5961794,4.83100857 Z" id="Shape"></path>
                    </g>
                </g>
            </g>
        </g>
    </g>
</svg>