<?xml version="1.0" encoding="UTF-8"?>
<svg width="180px" height="80px" viewBox="0 0 180 80" version="1.1" xmlns="http://www.w3.org/2000/svg" xmlns:xlink="http://www.w3.org/1999/xlink">
    <!-- Generator: Sketch 52.3 (67297) - http://www.bohemiancoding.com/sketch -->
    <title>Group 17 Copy</title>
    <desc>Created with Sketch.</desc>
    <g id="Page-1" stroke="none" stroke-width="1" fill="none" fill-rule="evenodd">
        <g id="录入界面" transform="translate(-1071.000000, -188.000000)">
            <g id="Group-17-Copy" transform="translate(1071.000000, 188.000000)">
                <rect id="Rectangle-14-Copy-11" stroke="#1296DB" stroke-width="2" fill="#FFFFFF" x="1" y="1" width="178" height="78" rx="4"></rect>
                <g id="Group" transform="translate(18.000000, 21.000000)" fill="#1296DB">
                    <text id="手工添加" font-family="PingFangSC-Regular, PingFang SC" font-size="24" font-weight="normal">
                        <tspan x="49" y="28">手工添加</tspan>
                    </text>
                    <g id="icon/通用/添加-blue">
                        <path d="M17.7,17.7 L17.7,6.69009408 C17.7,6.30896564 18.0089656,6 18.3900941,6 L20.6099059,6 C20.9910344,6 21.3,6.30896564 21.3,6.69009408 L21.3,17.7 L32.3099059,17.7 C32.6910344,17.7 33,18.0089656 33,18.3900941 L33,20.6099059 C33,20.9910344 32.6910344,21.3 32.3099059,21.3 L21.3,21.3 L21.3,32.3099059 C21.3,32.6910344 20.9910344,33 20.6099059,33 L18.3900941,33 C18.0089656,33 17.7,32.6910344 17.7,32.3099059 L17.7,21.3 L6.69009408,21.3 C6.30896564,21.3 6,20.9910344 6,20.6099059 L6,18.3900941 C6,18.0089656 6.30896564,17.7 6.69009408,17.7 L17.7,17.7 Z" id="Combined-Shape"></path>
                    </g>
                </g>
            </g>
        </g>
    </g>
</svg>