<?xml version="1.0" encoding="UTF-8"?>
<svg width="174px" height="174px" viewBox="0 0 174 174" version="1.1" xmlns="http://www.w3.org/2000/svg" xmlns:xlink="http://www.w3.org/1999/xlink">
    <!-- Generator: Sketch 49.3 (51167) - http://www.bohemiancoding.com/sketch -->
    <title>Combined Shape</title>
    <desc>Created with Sketch.</desc>
    <defs></defs>
    <g id="Page-1" stroke="none" stroke-width="1" fill="none" fill-rule="evenodd">
        <g id="4.-我要发货/4.2.2-商品录入完毕可操作发货-2次确认" transform="translate(-1382.000000, -626.000000)" fill="#1296DB">
            <g id="Group-4">
                <g id="Group-8" transform="translate(1169.000000, 545.000000)">
                    <path d="M299.67296,255 C251.861001,255 213,216.090499 213,168 C213,119.909501 251.860779,81 299.89106,81 C321.722986,81 342.463084,89.0880221 358.618872,103.951831 C360.147123,105.481997 360.365444,107.886544 358.837194,109.41671 C357.308944,110.946877 354.907629,111.165472 353.379378,109.635306 C338.752061,96.3012204 319.757651,88.8692054 300.109161,88.8692054 C256.663409,88.8692054 221.077673,124.281405 221.077673,167.999779 C221.077673,211.718374 256.44553,247.130573 300.109161,247.130573 C343.773012,247.130573 379.140869,211.718374 379.140869,167.999779 C379.140869,161.660961 378.485684,155.321479 376.957434,149.200814 C376.520569,147.014862 377.830498,145.047505 379.795834,144.391941 C381.979049,143.954529 383.943942,145.265879 384.598685,147.233678 C386.345257,154.010351 387,161.005175 387,167.999779 C386.563136,216.090499 347.702357,255 299.672075,255 L299.67296,255 Z M302.692967,200 L267.310479,164.647617 C265.563174,162.90181 265.563174,159.846646 267.310479,157.882392 C269.057784,156.136584 272.115347,156.136584 274.081287,157.882392 L302.692967,186.469549 L378.918492,110.309356 C380.665797,108.563548 383.723581,108.563548 385.689521,110.309356 C387.436826,112.055163 387.436826,115.110327 385.689521,117.074581 L302.692967,200 Z" id="Combined-Shape"></path>
                </g>
            </g>
        </g>
    </g>
</svg>