<?xml version="1.0" encoding="UTF-8"?>
<svg width="220px" height="68px" viewBox="0 0 220 68" version="1.1" xmlns="http://www.w3.org/2000/svg" xmlns:xlink="http://www.w3.org/1999/xlink">
    <!-- Generator: Sketch 52.3 (67297) - http://www.bohemiancoding.com/sketch -->
    <title>Group 6</title>
    <desc>Created with Sketch.</desc>
    <g id="Page-1" stroke="none" stroke-width="1" fill="none" fill-rule="evenodd">
        <g id="Group-6">
            <g id="Fill/rounded-square/primary" fill="#1296DB">
                <rect id="BG" x="0" y="0" width="220" height="68" rx="8"></rect>
            </g>
            <g id="Group-9" transform="translate(31.000000, 15.000000)" fill="#FFFFFF">
                <text id="查找SKU" font-family="PingFangSC-Regular, PingFang SC" font-size="24" font-weight="normal">
                    <tspan x="54" y="28">只看差异</tspan>
                </text>
                <g id="icon/通用/差异-反色">
                    <path d="M19.3626208,31.307698 L19.3626208,7.41746414 C17.1960301,7.41746414 15.1979315,7.95164114 13.3680755,9.02019477 C11.5382194,10.0887484 10.0889179,11.5380585 9.02037061,13.3679254 C7.9518233,15.1977923 7.41744983,17.1959027 7.41744983,19.3624563 C7.41744983,21.5290598 7.9518233,23.5271703 9.02037061,25.3570372 C10.0889179,27.1869041 11.5382194,28.6362141 13.3680755,29.7047678 C15.1979315,30.7733214 17.1960301,31.307698 19.3626208,31.307698 Z M34,19.5000644 C34,22.1307088 33.3517944,24.5568272 32.0553404,26.7784624 C30.7588864,28.999926 28.9999556,30.7590389 26.7783335,32.0555006 C24.5567543,33.3519623 22.1307791,34 19.5000215,34 C16.8693926,34 14.4432886,33.3519623 12.2216665,32.0555006 C10.0000873,30.7590389 8.24111362,28.999926 6.94465959,26.7784624 C5.64820556,24.5568272 5,22.1307088 5,19.5000644 C5,16.8694629 5.64820556,14.4433445 6.94465959,12.2217092 C8.24111362,10.000074 10.0000873,8.2411328 12.2216665,6.9446711 C14.4432886,5.64820939 16.8693926,5 19.5000215,5 C22.1307791,5 24.5567543,5.64820939 26.7783335,6.9446711 C28.9999556,8.2411328 30.7588864,10.000074 32.0553404,12.2217092 C33.3517944,14.4433445 34,16.8694629 34,19.5000644 Z" id="Fill-1"></path>
                </g>
            </g>
        </g>
    </g>
</svg>