<?xml version="1.0" encoding="UTF-8"?>
<svg width="18px" height="18px" viewBox="0 0 18 18" version="1.1" xmlns="http://www.w3.org/2000/svg" xmlns:xlink="http://www.w3.org/1999/xlink">
    <!-- Generator: Sketch 53 (72520) - https://sketchapp.com -->
    <title>icon/通用/input_delete</title>
    <desc>Created with Sketch.</desc>
    <g id="icon/通用/input_delete" stroke="none" stroke-width="1" fill="none" fill-rule="evenodd">
        <rect id="Rectangle-5" x="0" y="0" width="18" height="18"></rect>
        <g id="delete" transform="translate(3.000000, 3.000000)" fill="#CACFD5" fill-rule="nonzero">
            <path d="M6,12 C2.68628906,12 0,9.31371094 0,6 C0,2.68628906 2.68628906,0 6,0 C9.31371094,0 12,2.68628906 12,6 C12,9.31371094 9.31371094,12 6,12 Z M9.00171094,3.576 L8.39571094,2.96914336 L5.97171094,5.39399883 L3.54685547,2.96914336 L2.94085547,3.576 L5.36571094,6 L2.94085547,8.42485547 L3.54685547,9.03085547 L5.97171094,6.606 L8.39571094,9.03085547 L9.00171094,8.42485547 L6.57771094,6 L9.00171094,3.576 Z" id="Shape"></path>
        </g>
    </g>
</svg>