<?xml version="1.0" encoding="UTF-8"?>
<svg width="153px" height="44px" viewBox="0 0 153 44" version="1.1" xmlns="http://www.w3.org/2000/svg" xmlns:xlink="http://www.w3.org/1999/xlink">
    <!-- Generator: Sketch 53 (72520) - https://sketchapp.com -->
    <title>logo_bottom</title>
    <desc>Created with Sketch.</desc>
    <g id="logo_bottom" stroke="none" stroke-width="1" fill="none" fill-rule="evenodd">
        <path d="M2.23626,34.71574 L9.02776,34.71574 L9.02776,35.27504 L4.82502,35.27504 L4.49743,36.59339 L7.94911,36.59339 L7.30991,40.86005 L9.2355,40.86005 L9.2355,41.41935 L2.09244,41.41935 L2.09244,40.86005 L6.74262,40.86005 L6.96634,39.45381 L3.21104,39.45381 L4.24175,35.27504 L2.23626,35.27504 L2.23626,34.71574 Z M7.05423,38.91848 L7.33388,37.12872 L4.3616,37.12872 L3.91416,38.91848 L7.05423,38.91848 Z M15.35067,35.25906 L16.67701,35.25906 C16.54917,35.01137 16.40535,34.77966 16.24555,34.56393 L16.78088,34.36418 C16.95666,34.61986 17.12445,34.91549 17.26827,35.25906 L18.21109,35.25906 C18.40285,34.97142 18.57863,34.6678 18.72245,34.3482 L19.28175,34.53996 C19.14592,34.81162 19.0021,35.05132 18.8423,35.25906 L20.2006,35.25906 L20.2006,35.79439 L17.9634,35.79439 C17.90747,36.01811 17.83556,36.23384 17.75566,36.44158 L19.65728,36.44158 L19.65728,40.29276 L15.87002,40.29276 L15.87002,36.44158 L17.14842,36.44158 C17.23631,36.22585 17.30023,36.01012 17.34817,35.79439 L15.35067,35.79439 L15.35067,35.25906 Z M19.11396,39.7814 L19.11396,39.11823 L16.41334,39.11823 L16.41334,39.7814 L19.11396,39.7814 Z M16.41334,38.65481 L19.11396,38.65481 L19.11396,38.04757 L16.41334,38.04757 L16.41334,38.65481 Z M16.41334,37.58415 L19.11396,37.58415 L19.11396,36.95294 L16.41334,36.95294 L16.41334,37.58415 Z M13.69674,34.50001 C14.24805,34.91549 14.71147,35.33097 15.087,35.74645 L14.67951,36.14595 C14.34393,35.74645 13.8885,35.32298 13.30523,34.87554 L13.69674,34.50001 Z M18.35491,41.55518 C17.92345,41.55518 17.45204,41.54719 16.94068,41.5392 C16.42932,41.53121 16.01384,41.48327 15.69424,41.39538 C15.37464,41.2995 15.09499,41.09975 14.85529,40.81211 C14.74343,40.67628 14.63956,40.61236 14.54368,40.61236 C14.35192,40.61236 14.03232,40.97191 13.57689,41.70699 L13.14543,41.32347 C13.58488,40.63633 13.9684,40.22884 14.29599,40.101 L14.29599,37.67204 L13.12146,37.67204 L13.12146,37.1447 L14.83132,37.1447 L14.83132,40.13296 C14.89524,40.1809 14.95916,40.24482 15.02308,40.31673 C15.21484,40.54844 15.42258,40.71623 15.63831,40.8201 C15.886,40.93196 16.24555,40.99588 16.71696,41.01186 C17.13244,41.01985 17.65179,41.02784 18.27501,41.02784 C18.65054,41.02784 19.03406,41.01985 19.42557,41.01186 C19.80909,41.00387 20.11271,40.99588 20.32045,40.9799 L20.18462,41.55518 L18.35491,41.55518 Z M24.96546,37.2246 C24.72576,37.57616 24.46209,37.91973 24.17445,38.23933 L23.99068,37.6241 C24.7737,36.65731 25.34099,35.5467 25.70054,34.30026 L26.23587,34.54795 C26.04411,35.16318 25.8124,35.73846 25.53275,36.28178 L25.53275,41.71498 L24.96546,41.71498 L24.96546,37.2246 Z M26.20391,35.42685 L28.66483,35.42685 C28.54498,35.10725 28.40915,34.80363 28.24935,34.50001 L28.80066,34.3482 C28.96845,34.69976 29.09629,35.01936 29.19217,35.31499 L28.88855,35.42685 L31.4054,35.42685 L31.4054,35.97017 L26.20391,35.97017 L26.20391,35.42685 Z M26.93899,36.61736 L30.71826,36.61736 L30.71826,37.13671 L26.93899,37.13671 L26.93899,36.61736 Z M26.93899,37.74395 L30.71826,37.74395 L30.71826,38.27129 L26.93899,38.27129 L26.93899,37.74395 Z M30.86208,38.92647 L30.86208,41.699 L30.30278,41.699 L30.30278,41.26754 L27.34648,41.26754 L27.34648,41.699 L26.78718,41.699 L26.78718,38.92647 L30.86208,38.92647 Z M27.34648,40.72422 L30.30278,40.72422 L30.30278,39.4618 L27.34648,39.4618 L27.34648,40.72422 Z M36.30609,34.96343 L38.06389,34.96343 C38.17575,34.75569 38.25565,34.54795 38.31158,34.32423 L38.91083,34.40413 C38.84691,34.60388 38.76701,34.78765 38.67113,34.96343 L41.30783,34.96343 L41.30783,38.87054 L36.30609,38.87054 L36.30609,34.96343 Z M40.74853,38.37516 L40.74853,37.704 L36.86539,37.704 L36.86539,38.37516 L40.74853,38.37516 Z M36.86539,37.24058 L40.74853,37.24058 L40.74853,36.5854 L36.86539,36.5854 L36.86539,37.24058 Z M36.86539,36.12198 L40.74853,36.12198 L40.74853,35.4668 L36.86539,35.4668 L36.86539,36.12198 Z M35.90659,39.41386 L36.44991,39.52572 C36.25815,40.2608 35.99448,40.89201 35.65091,41.43533 L35.16352,41.12372 C35.50709,40.61236 35.75478,40.03708 35.90659,39.41386 Z M39.75777,41.57915 L37.70434,41.57915 C37.24092,41.57915 37.0172,41.34744 37.0172,40.9 L37.0172,39.37391 L37.60047,39.37391 L37.60047,40.78015 C37.60047,40.96392 37.68836,41.0598 37.87213,41.0598 L39.64591,41.0598 C39.82968,41.0598 39.95752,41.01186 40.02144,40.93196 C40.11732,40.8201 40.18923,40.50849 40.22119,39.98914 L40.7725,40.16492 C40.70858,40.83608 40.59672,41.24357 40.43692,41.39538 C40.2931,41.51523 40.06139,41.57915 39.75777,41.57915 Z M38.68711,39.08627 C39.11857,39.50175 39.44616,39.86929 39.67787,40.1809 L39.23842,40.48452 C38.99872,40.14095 38.67912,39.76542 38.26364,39.34994 L38.68711,39.08627 Z M41.26788,39.27004 C41.77924,39.90924 42.17075,40.47653 42.44241,40.95593 L41.98698,41.27553 C41.69934,40.75618 41.30783,40.1809 40.82044,39.54969 L41.26788,39.27004 Z M47.08742,41.61111 L46.41626,41.61111 L46.29641,41.06779 C46.50415,41.09176 46.7039,41.10774 46.89566,41.10774 C47.11139,41.10774 47.22325,40.98789 47.22325,40.74819 L47.22325,38.83858 C46.90365,38.96642 46.58405,39.08627 46.24847,39.19813 L46.10465,38.63084 C46.48817,38.53496 46.85571,38.41511 47.22325,38.27928 L47.22325,36.39364 L46.25646,36.39364 L46.25646,35.84233 L47.22325,35.84233 L47.22325,34.38016 L47.78255,34.38016 L47.78255,35.84233 L48.62949,35.84233 L48.62949,36.39364 L47.78255,36.39364 L47.78255,38.04757 C48.07818,37.90375 48.36582,37.75993 48.64547,37.60013 L48.64547,38.15943 C48.35783,38.31923 48.07019,38.46305 47.78255,38.59888 L47.78255,40.89201 C47.78255,41.37141 47.55084,41.61111 47.08742,41.61111 Z M48.91713,35.53072 L50.83473,35.53072 L50.83473,34.39614 L51.39403,34.39614 L51.39403,35.53072 L53.31962,35.53072 L53.31962,36.08203 L51.39403,36.08203 L51.39403,37.3844 L53.00801,37.3844 L53.00801,37.89576 C52.72836,38.77466 52.26494,39.52572 51.61775,40.14894 C52.14509,40.55643 52.79228,40.91598 53.55133,41.22759 L53.24771,41.70699 C52.44871,41.35543 51.76956,40.94794 51.22624,40.5005 C50.60302,40.99588 49.84397,41.40337 48.94909,41.72297 L48.67743,41.24357 C49.52437,40.96392 50.24347,40.59638 50.82674,40.14095 C50.15558,39.48577 49.71613,38.75069 49.49241,37.92772 L49.06894,37.92772 L49.06894,37.3844 L50.83473,37.3844 L50.83473,36.08203 L48.91713,36.08203 L48.91713,35.53072 Z M50.02774,37.92772 C50.23548,38.63084 50.63498,39.25406 51.21026,39.80537 C51.76157,39.27004 52.16906,38.64682 52.43273,37.92772 L50.02774,37.92772 Z M57.47724,36.2658 L60.57736,36.2658 L60.57736,34.35619 L61.15264,34.35619 L61.15264,36.2658 L64.26075,36.2658 L64.26075,36.81711 L61.72792,36.81711 C62.25526,38.14345 63.17411,39.32597 64.49246,40.36467 L64.10894,40.85206 C62.7027,39.65356 61.72792,38.30325 61.1846,36.81711 L61.15264,36.81711 L61.15264,41.68302 L60.57736,41.68302 L60.57736,36.81711 L60.5454,36.81711 C59.95414,38.47903 58.93941,39.84532 57.51719,40.9 L57.20558,40.38864 C58.49996,39.4618 59.43479,38.27129 60.00208,36.81711 L57.47724,36.81711 L57.47724,36.2658 Z M62.43903,34.37217 C62.91843,34.86755 63.28597,35.29901 63.54165,35.66655 L63.08622,35.99414 C62.81456,35.58665 62.45501,35.13921 61.99159,34.65182 L62.43903,34.37217 Z M74.7065,34.29227 L75.2658,34.29227 C74.9462,34.81961 74.69052,35.37092 74.50675,35.9462 C74.26705,36.64932 74.15519,37.33646 74.15519,38.0236 C74.15519,38.70275 74.26705,39.39788 74.50675,40.101 C74.69052,40.66829 74.9462,41.2196 75.2658,41.75493 L74.7065,41.75493 C74.35494,41.23558 74.08328,40.68427 73.88353,40.10899 C73.64383,39.42185 73.53197,38.72672 73.53197,38.03159 C73.53197,37.32048 73.64383,36.62535 73.88353,35.93821 C74.08328,35.35494 74.35494,34.80363 74.7065,34.29227 Z M82.28384,34.37217 L82.8751,34.37217 L82.8751,36.84108 L85.83939,36.84108 L85.83939,37.40038 L82.8751,37.40038 L82.8751,40.8201 L86.51854,40.8201 L86.51854,41.3794 L79.40744,41.3794 L79.40744,40.8201 L82.28384,40.8201 L82.28384,34.37217 Z M93.44869,35.53871 C93.30487,35.77042 93.16105,35.98615 93.00125,36.19389 L97.06017,36.19389 C97.0362,36.89701 97.01223,37.52023 96.99625,38.06355 L97.6754,38.06355 L97.6754,38.59888 L96.97228,38.59888 C96.94032,39.18215 96.91635,39.65356 96.89238,40.0211 L97.54756,40.0211 L97.54756,40.51648 L96.85243,40.51648 C96.82846,40.7402 96.80449,40.87603 96.78851,40.93995 C96.70861,41.19563 96.5568,41.38739 96.33308,41.51523 C96.10936,41.62709 95.78976,41.68302 95.3583,41.68302 C95.15855,41.68302 94.92684,41.69101 94.66317,41.69101 L94.49538,41.16367 C94.78302,41.17965 95.04669,41.19563 95.28639,41.19563 C95.50212,41.19563 95.69388,41.17166 95.86966,41.13171 C96.04544,41.07578 96.17328,40.95593 96.25318,40.77216 C96.26916,40.73221 96.28514,40.64432 96.30112,40.51648 L92.49788,40.51648 C92.62572,39.87728 92.73758,39.23808 92.81748,38.59888 L92.01848,38.59888 L92.01848,38.06355 L92.87341,38.06355 C92.93733,37.44832 92.97728,36.8251 92.99326,36.20188 C92.82547,36.41761 92.64969,36.61736 92.46592,36.80113 L92.09838,36.36168 C92.6417,35.84233 93.08115,35.16318 93.42472,34.31624 L94,34.43609 C93.9201,34.63584 93.83221,34.8276 93.74432,35.00338 L97.4357,35.00338 L97.4357,35.53871 L93.44869,35.53871 Z M93.3608,38.59888 C93.29688,39.11024 93.22497,39.58964 93.13708,40.0211 L96.34906,40.0211 C96.37303,39.66155 96.397,39.19014 96.42896,38.59888 L93.3608,38.59888 Z M96.45293,38.06355 C96.46891,37.64807 96.48489,37.19264 96.50087,36.70525 L93.51261,36.70525 C93.48864,37.18465 93.45668,37.64008 93.41673,38.06355 L96.45293,38.06355 Z M94.58327,36.84108 C94.98277,37.09676 95.31835,37.36043 95.59001,37.6241 L95.22247,37.99164 C94.98277,37.73596 94.64719,37.47229 94.22372,37.19264 L94.58327,36.84108 Z M94.51136,38.69476 C94.91086,38.9824 95.23845,39.27004 95.51011,39.55768 L95.13458,39.92522 C94.89488,39.65356 94.56729,39.35793 94.15181,39.04632 L94.51136,38.69476 Z M90.93184,34.508 C91.41124,34.8276 91.81873,35.15519 92.15431,35.49077 L91.74682,35.90625 C91.45119,35.58665 91.0437,35.25107 90.51636,34.89951 L90.93184,34.508 Z M90.804,36.44957 C91.2834,36.78515 91.69089,37.12872 92.02647,37.4643 L91.61898,37.87179 C91.32335,37.55219 90.91586,37.21661 90.38852,36.84907 L90.804,36.44957 Z M91.62697,38.79064 L92.12235,38.9824 C91.78677,39.90924 91.40325,40.78015 90.98777,41.59513 L90.45244,41.36342 C90.89988,40.52447 91.29139,39.66954 91.62697,38.79064 Z M101.6892,34.29227 L102.2485,34.29227 C102.59207,34.80363 102.86373,35.35494 103.07147,35.93821 C103.30318,36.62535 103.42303,37.32048 103.42303,38.03159 C103.42303,38.72672 103.30318,39.42185 103.07147,40.10899 C102.86373,40.68427 102.59207,41.23558 102.2485,41.75493 L101.6892,41.75493 C102.0088,41.2196 102.25649,40.66829 102.44825,40.101 C102.67996,39.39788 102.79981,38.70275 102.79981,38.0236 C102.79981,37.33646 102.67996,36.64932 102.44825,35.9462 C102.25649,35.37092 102.0088,34.81961 101.6892,34.29227 Z M114.8915,37.24857 L114.8915,38.11948 L118.06353,38.11948 L118.06353,37.24857 L114.8915,37.24857 Z M118.06353,38.62285 L114.8915,38.62285 L114.8915,39.46979 L118.06353,39.46979 L118.06353,38.62285 Z M118.06353,39.97316 L114.8915,39.97316 L114.8915,41.68302 L114.34818,41.68302 L114.34818,37.50425 C113.90074,38.06355 113.38139,38.5829 112.80611,39.04632 L112.43058,38.55893 C113.43732,37.75993 114.21235,36.84907 114.76366,35.81836 L112.64631,35.81836 L112.64631,35.25906 L115.02733,35.25906 C115.16316,34.94745 115.28301,34.63584 115.37889,34.32423 L115.96216,34.39614 C115.86628,34.69177 115.7704,34.97941 115.65854,35.25906 L119.62957,35.25906 L119.62957,35.81836 L115.41884,35.81836 C115.25904,36.13796 115.09125,36.44957 114.89949,36.7452 L118.60685,36.7452 L118.60685,41.0598 C118.60685,41.45131 118.38313,41.65106 117.93569,41.66704 L117.04081,41.66704 L116.89699,41.1397 C117.20061,41.15568 117.48825,41.17166 117.75192,41.17166 C117.95966,41.17166 118.06353,41.07578 118.06353,40.88402 L118.06353,39.97316 Z M123.81116,34.69177 L126.26409,34.69177 L126.26409,35.15519 C126.02439,35.87429 125.73675,36.61736 125.40117,37.40038 C125.91253,38.1035 126.19218,38.7427 126.22414,39.31798 C126.22414,39.66155 126.13625,39.90924 125.97645,40.06105 C125.75273,40.24482 125.35323,40.3407 124.77795,40.34869 L124.58619,39.76542 C124.71403,39.7814 124.8179,39.79738 124.8978,39.79738 C125.19343,39.7814 125.39318,39.74145 125.49705,39.67753 C125.59293,39.60562 125.64886,39.48577 125.64886,39.31798 C125.64886,38.77466 125.36921,38.15943 124.80991,37.48827 C125.18544,36.65731 125.48107,35.90625 125.68881,35.24308 L124.37046,35.24308 L124.37046,41.70699 L123.81116,41.70699 L123.81116,34.69177 Z M127.20691,36.68927 L127.20691,37.59214 L129.56396,37.59214 L129.56396,36.68927 L127.20691,36.68927 Z M129.56396,36.16193 L129.56396,35.24308 L127.20691,35.24308 L127.20691,36.16193 L129.56396,36.16193 Z M128.12576,38.11948 L127.20691,38.11948 L127.20691,40.85206 C127.68631,40.70824 128.16571,40.52447 128.63712,40.30874 L128.76496,40.84407 C128.18968,41.09176 127.47058,41.33146 126.59967,41.56317 L126.46384,41.06779 C126.5757,41.02784 126.63962,40.96392 126.63962,40.88402 L126.63962,34.69976 L130.12326,34.69976 L130.12326,38.11948 L128.64511,38.11948 C128.74099,38.59089 128.90079,39.03034 129.1325,39.42984 C129.51602,39.21411 129.89155,38.89451 130.2511,38.46305 L130.62663,38.83858 C130.25909,39.27004 129.8516,39.60562 129.39617,39.83733 C129.76371,40.3407 130.24311,40.77216 130.85035,41.13171 L130.53075,41.63508 C129.20441,40.78814 128.39742,39.61361 128.12576,38.11948 Z M136.81371,34.45207 L137.34105,34.65981 C136.74979,36.33771 135.97476,37.61611 134.99998,38.49501 L134.55254,38.1035 C135.55129,37.19264 136.30235,35.97816 136.81371,34.45207 Z M139.5383,38.68677 C140.16152,39.54969 140.68886,40.47653 141.1363,41.4593 L140.60097,41.699 C140.48112,41.42734 140.36127,41.17166 140.24142,40.93196 C138.83518,41.15568 137.26115,41.31548 135.51933,41.42734 L135.41546,40.86804 C136.05466,40.53246 136.85366,39.27004 137.82045,37.08078 L138.37975,37.27254 C137.69261,38.79064 137.00547,39.98115 136.31833,40.84407 C137.6207,40.76417 138.84317,40.62834 139.98574,40.44457 C139.67413,39.86929 139.35453,39.34195 139.01895,38.86255 L139.5383,38.68677 Z M139.41845,34.39614 C139.88187,35.88228 140.68087,37.09676 141.82344,38.03958 L141.41595,38.51099 C140.22544,37.52023 139.39448,36.23384 138.93106,34.6678 L139.41845,34.39614 Z M146.41252,37.7839 L149.93611,37.7839 L149.93611,40.24482 L146.41252,40.24482 L146.41252,37.7839 Z M149.3848,39.73346 L149.3848,38.30325 L146.97182,38.30325 L146.97182,39.73346 L149.3848,39.73346 Z M151.32637,41.64307 L150.22375,41.64307 L150.07993,41.09176 L151.19853,41.10774 C151.43823,41.10774 151.56607,40.94794 151.56607,40.62834 L151.56607,35.26705 L146.13287,35.26705 L146.13287,34.70775 L152.14135,34.70775 L152.14135,40.78814 C152.14135,41.35543 151.86969,41.64307 151.32637,41.64307 Z M145.81327,36.28178 L150.72712,36.28178 L150.72712,36.80113 L145.81327,36.80113 L145.81327,36.28178 Z" id="互道信息技术（上海）有限公司" fill="#CACFD5" fill-rule="nonzero"></path>
        <g id="Group" transform="translate(23.970000, 7.520000)" fill="#CACFD5">
            <polygon id="Fill-43" points="58.1663216 4.4675129 58.1663216 3.81396588 51.1280522 3.81396588 51.1280522 13.9276182 58.1663216 13.9276182 58.1663216 13.2738275 52.8305689 13.2738275 52.8305689 8.74139848 56.401037 8.74139848 56.401037 8.08760778 52.8305689 8.08760778 52.8305689 4.4675129"></polygon>
            <polygon id="Fill-44" points="59.6279364 13.9276669 63.4168755 9.49807044 66.7591411 13.9276669 68.7939868 13.9276669 64.4861183 8.25384558 68.2852754 3.81401462 67.3819538 3.81401462 64.0705855 7.69362761 61.1329047 3.81401462 59.1085204 3.81401462 63.0015859 8.93833983 58.7350761 13.9276669"></polygon>
            <polyline id="Fill-45" points="82.5065695 4.4675129 82.5065695 13.9276182 84.208843 13.9276182 84.208843 4.4675129 87.8734628 4.4675129 87.8734628 3.81396588 79.4603832 3.81396588 78.8424362 3.81396588 78.2614688 3.81396588 78.0505397 3.81396588 69.2301989 3.81396588 69.2301989 4.4675129 72.8943322 4.4675129 72.8943322 13.9276182 74.5970923 13.9276182 74.5970923 4.4675129"></polyline>
            <path d="M96.5112173,6.98257236 C96.6630279,6.42722797 96.8902572,5.94961717 97.1912022,5.54925261 C97.4923905,5.14913173 97.8672945,4.83819736 98.3176173,4.61644949 C98.7672101,4.39543266 99.2863829,4.28431504 99.8744056,4.28431504 C100.45586,4.28431504 100.967977,4.39543266 101.410758,4.61644949 C101.853295,4.83819736 102.22747,5.14913173 102.531821,5.54925261 C102.836415,5.94961717 103.066807,6.42722797 103.22251,6.98257236 C103.37797,7.53767307 103.456065,8.14711419 103.456065,8.80797158 C103.456065,9.47613933 103.37797,10.0948403 103.22251,10.6630996 C103.066807,11.2318464 102.836415,11.7221285 102.531821,12.1315091 C102.22747,12.5416209 101.853295,12.8630334 101.410758,13.0940411 C100.967977,13.3255361 100.45586,13.4412837 99.8744056,13.4412837 C99.2863829,13.4412837 98.7672101,13.3255361 98.3176173,13.0940411 C97.8672945,12.8630334 97.4923905,12.5416209 97.1912022,12.1315091 C96.8902572,11.7221285 96.6630279,11.2318464 96.5112173,10.6630996 C96.3589202,10.0948403 96.2832581,9.47613933 96.2832581,8.80797158 C96.2832581,8.14711419 96.3589202,7.53767307 96.5112173,6.98257236 M97.6792343,13.5260839 C98.3606789,13.7938871 99.0924838,13.9276669 99.8744056,13.9276669 C100.656814,13.9276669 101.388376,13.7938871 102.06982,13.5260839 C102.751508,13.2577934 103.34318,12.8908128 103.844836,12.4244113 C104.346736,11.9580097 104.741346,11.4155803 105.028423,10.7973667 C105.315988,10.1786658 105.459283,9.51585901 105.459283,8.80797158 C105.459283,8.11373017 105.315988,7.46261994 105.028423,6.85390986 C104.741346,6.24568713 104.346736,5.71592903 103.844836,5.26609764 C103.34318,4.81650993 102.751508,4.46122598 102.06982,4.19951476 C101.388376,3.93877825 100.656814,3.80792264 99.8744056,3.80792264 C99.0924838,3.80792264 98.3606789,3.93877825 97.6792343,4.19951476 C96.9973031,4.46122598 96.4056311,4.81650993 95.903975,5.26609764 C95.4020756,5.71592903 95.0077087,6.24568713 94.720631,6.85390986 C94.4335533,7.46261994 94.2900144,8.11373017 94.2900144,8.80797158 C94.2900144,9.51585901 94.4335533,10.1786658 94.720631,10.7973667 C95.0077087,11.4155803 95.4020756,11.9580097 95.903975,12.4244113 C96.4056311,12.8908128 96.9973031,13.2577934 97.6792343,13.5260839" id="Fill-46"></path>
            <polygon id="Fill-47" points="41.7917258 17.0422254 105.459235 17.0422254 105.459235 16.0263277 41.7917258 16.0263277"></polygon>
            <polygon id="Fill-48" points="41.7917258 1.80546628 105.459235 1.80546628 105.459235 0.79005598 41.7917258 0.79005598"></polygon>
            <polygon id="Fill-49" points="49.3816466 11.2100858 42.7484487 3.81394151 41.7933071 3.81394151 41.7933071 13.9275938 42.5618482 13.9275938 42.5618482 5.94004059 42.6241294 5.94004059 49.5937922 13.9219892 50.2015211 13.9219892 50.2015211 3.81394151 49.4546325 3.81394151 49.4546325 11.2100858"></polygon>
            <path d="M89.7804373,5.89863953 L91.6179779,9.90277249 L87.89132,9.90277249 L89.7804373,5.89863953 Z M87.5901317,10.5563195 L91.9291409,10.5563195 L93.4759545,13.9276182 L95.2091253,13.9276182 L90.5497082,3.81396588 L89.9115685,3.81396588 L85.1404831,13.9276182 L85.9914982,13.9276182 L87.5901317,10.5563195 Z" id="Fill-50"></path>
            <path d="M12.9452581,12.3111493 C12.3912954,12.7339323 11.7580215,13.0646047 11.0451929,13.3031664 C10.3326077,13.5419718 9.54679331,13.6608871 8.68847964,13.6608871 C7.81946138,13.6608871 7.08206094,13.5419718 6.4767649,13.3031664 C5.87171215,13.0646047 5.39852052,12.7339323 5.05840643,12.3111493 C4.71804905,11.8883663 4.50736321,11.3841945 4.42732205,10.7979028 C4.3472809,10.2118549 4.39228884,9.57463438 4.56161603,8.88551023 C4.7294835,8.20394013 4.99661173,7.57695412 5.36251416,7.00430852 C5.72841659,6.43166293 6.18530805,5.93918771 6.73124226,5.52688288 C7.27741975,5.11457805 7.9106937,4.79438388 8.63130739,4.56556932 C9.35192108,4.33699844 10.1467371,4.22320036 11.0150255,4.22320036 C11.8735824,4.22320036 12.6014947,4.33699844 13.1999787,4.56556932 C13.7977329,4.79438388 14.2699514,5.11457805 14.6180939,5.52688288 C14.9659932,5.93918771 15.1842209,6.43166293 15.2732636,7.00430852 C15.3620631,7.57695412 15.3224074,8.20394013 15.1540534,8.88551023 C14.9842396,9.57463438 14.7127322,10.2118549 14.3380715,10.7979028 C13.9636541,11.3841945 13.4992207,11.8883663 12.9452581,12.3111493 L12.9452581,12.3111493 Z M34.738105,4.32798232 C35.5144312,4.32798232 36.1494081,5.12944247 36.1494081,6.10951932 L36.1494081,6.79620668 L26.6841157,6.79620668 L26.6841157,6.41874794 L26.6841157,6.10951932 L26.6841157,4.32798232 L28.0954189,4.32798232 L28.449157,4.32798232 L34.738105,4.32798232 Z M26.6841157,10.1821261 L36.1494081,10.1821261 L36.1494081,7.85596655 L26.6841157,7.85596655 L26.6841157,10.1821261 Z M36.1494081,11.8830053 C36.1494081,12.8630822 35.5144312,13.6645423 34.738105,13.6645423 L28.0954189,13.6645423 C27.3195792,13.6645423 26.6841157,12.8630822 26.6841157,11.8830053 L26.6841157,11.2421296 L36.1494081,11.2421296 L36.1494081,11.8830053 Z M2.84217094e-14,0.790007244 L2.84217094e-14,1.80566122 L3.69576049,1.80566122 L1.70884219,8.5775 C1.67551198,8.67935781 1.64412806,8.78194666 1.61833972,8.88551023 C1.43855123,9.61508509 1.48209946,10.2986046 1.74922769,10.9358251 C2.01562607,11.573533 2.46083979,12.1325326 3.08365244,12.6130675 C3.70549193,13.0933588 4.48619731,13.4717923 5.42430885,13.7478805 C6.36315025,14.0239688 7.40952415,14.1618911 8.56464697,14.1618911 C9.71952651,14.1618911 10.8342638,14.0239688 11.9091022,13.7478805 C12.808288,13.5168729 13.6313251,13.2130052 14.3799167,12.838958 L13.2323358,16.026279 L2.84217094e-14,16.026279 L2.84217094e-14,17.0421766 L16.4957767,17.0421766 L16.6174198,17.0421766 L16.6174198,17.0382778 C18.601662,17.0421766 20.3431045,15.9512259 21.3493362,14.3865631 C22.314939,15.8871383 23.9449565,17.0302364 25.8365066,17.0302364 L26.2033822,17.0421766 L26.2036255,17.0421766 L39.8142713,17.0421766 L39.8142713,16.026279 L26.2033822,16.026279 C25.9070596,16.026279 25.6182789,15.9965501 25.3375267,15.9417224 C22.829246,15.3744377 22.0531631,11.8883663 22.0531631,8.74807528 L22.0485407,2.82155888 L22.0434317,2.82155888 L20.6508615,2.82155888 L19.7336726,2.82155888 L19.7336726,3.83745653 L20.6506182,3.83745653 L20.6464824,8.74807528 C20.6464824,11.8883663 19.8699129,15.3744377 17.3621188,15.9417224 C17.0813666,15.9965501 16.7923426,16.026279 16.49602,16.026279 L16.0218552,16.026279 L18.0652159,9.06169013 L18.0618099,9.0643706 C18.0800564,9.00515661 18.0983028,8.94545526 18.1129,8.88551023 C18.2895258,8.16982507 18.2425715,7.49873317 17.973497,6.87150348 C17.7034493,6.24427379 17.2558028,5.69916392 16.6293408,5.23519915 C16.0023923,4.77196541 15.2185242,4.40571591 14.2791962,4.13620696 C13.3384086,3.86718537 12.2913048,3.73243089 11.1364253,3.73243089 C9.98130245,3.73243089 8.86778156,3.86718537 7.79488947,4.13620696 C6.89156786,4.36282841 6.06707096,4.65938572 5.31823608,5.02319844 L6.4767649,1.80566122 L16.1904525,1.80566122 L16.3741336,1.80566122 L21.7193745,1.80566122 L22.1485313,1.80566122 L28.9371891,1.80566122 L28.4362628,3.30672372 L26.5310887,3.30672372 L26.412365,3.30672372 L24.6546223,3.30672372 L24.6546223,5.5034897 L24.6546223,5.8848473 L24.6546223,12.6233021 C24.6546223,13.8309751 25.5674321,14.8198244 26.6828993,14.8198244 L36.227503,14.8198244 C37.3432135,14.8198244 38.2560232,13.8309751 38.2560232,12.6233021 L38.2560232,5.5034897 C38.2560232,4.29508565 37.3432135,3.30672372 36.227503,3.30672372 L31.9943233,3.30672372 L31.2934158,3.30672372 L32.0388447,1.80566122 L39.8115951,1.80566122 L39.8115951,0.790007244 L36.0917493,0.790007244 L36.0917493,1.42108547e-14 L33.050672,1.42108547e-14 L33.050672,0.790007244 L30.0823372,0.790007244 L28.2598803,0.790007244 L28.2598803,1.42108547e-14 L25.2195328,1.42108547e-14 L25.2195328,0.790007244 L2.84217094e-14,0.790007244 L2.84217094e-14,0.790007244 Z" id="Fill-51"></path>
        </g>
    </g>
</svg>