<?xml version="1.0" encoding="UTF-8"?>
<svg width="38px" height="38px" viewBox="0 0 38 38" version="1.1" xmlns="http://www.w3.org/2000/svg" xmlns:xlink="http://www.w3.org/1999/xlink">
    <!-- Generator: Sketch 53 (72520) - https://sketchapp.com -->
    <title>icon/通用/登录_密码</title>
    <desc>Created with Sketch.</desc>
    <g id="icon/通用/登录_密码" stroke="none" stroke-width="1" fill="none" fill-rule="evenodd">
        <g id="Group-3">
            <rect id="Rectangle-4" x="0" y="0" width="38" height="38"></rect>
            <g id="密码" transform="translate(7.500000, 6.000000)" fill="#34495E" fill-rule="nonzero" stroke="#34495E" stroke-width="0.5">
                <path d="M21.1381594,10.6236022 L21.1381594,10.6236022 C22.1030904,10.6159204 22.8915345,11.3934697 22.8992026,12.3603077 C22.8992716,12.3690068 22.8992759,12.3777063 22.8992154,12.3864055 L22.8992154,23.025623 C22.8992154,24.6480249 21.5896677,25.9584213 19.9600889,25.9584213 L3.48782863,25.9584213 L3.48782863,25.9584213 C1.86919945,25.9593841 0.555189303,24.6474383 0.550425276,23.025623 L0.550425276,12.4280208 C0.550425276,11.4296196 1.35310571,10.6253529 2.34953764,10.6253529 L21.1381545,10.6253529 L21.1381594,10.6236022 Z M21.1381645,12.3864043 L2.30975787,12.3864043 L2.30975787,23.0238952 C2.30975787,23.6582959 2.84084309,24.1782965 3.48783103,24.1782965 L19.9600913,24.1782965 C20.6070792,24.1782965 21.1381645,23.6582959 21.1381645,23.0238952 L21.1381645,12.3864043 L21.1381645,12.3864043 Z M11.7308766,15.3452026 C12.3778645,15.3452026 12.9089498,15.8773374 12.9089498,16.5273382 L12.9089498,20.0685474 L12.9089498,20.0685455 C12.9061163,20.7186072 12.3813844,21.2451535 11.7326074,21.2489494 L11.7326074,21.2489494 C11.0824823,21.2470509 10.5556517,20.7199554 10.5528035,20.068548 L10.5528035,16.4996122 C10.5528035,15.8912115 11.0579399,15.3452109 11.7308766,15.3452109 L11.7308766,15.3452026 Z M20.553451,10.6236073 L18.7958566,10.6236073 L18.7958566,8.85733941 C18.7958566,4.8741297 15.483058,1.7888097 11.7447151,1.7888097 C7.90082871,1.7888097 4.69357357,5.0197451 4.69357357,8.85733941 L4.69357357,10.6253415 L2.93424845,10.6253415 L2.93424845,8.85733941 C2.93424845,4.03174395 6.94419161,0.0121240375 11.7568228,0.0121240375 C16.5071669,0.0121240375 20.5811203,3.8653336 20.5811203,8.85733941 L20.5551716,10.6218756 L20.553451,10.6236073 Z" id="Shape"></path>
            </g>
        </g>
    </g>
</svg>