<?xml version="1.0" encoding="UTF-8"?>
<svg width="18px" height="18px" viewBox="0 0 18 18" version="1.1" xmlns="http://www.w3.org/2000/svg" xmlns:xlink="http://www.w3.org/1999/xlink">
    <!-- Generator: Sketch 53 (72520) - https://sketchapp.com -->
    <title>icon/通用/显示_off</title>
    <desc>Created with Sketch.</desc>
    <g id="icon/通用/显示_off" stroke="none" stroke-width="1" fill="none" fill-rule="evenodd">
        <rect id="Rectangle-5-Copy-2" x="0" y="0" width="18" height="18"></rect>
        <g id="显示" transform="translate(0.600000, 3.000000)" fill="#CACFD5" fill-rule="nonzero">
            <path d="M8.49736835,3.49053324 C7.19443582,3.49053324 6.17475343,4.51215279 6.17475343,5.81755541 C6.17475343,7.1229603 7.16611307,8.14457757 8.49736835,8.14457757 C9.80030089,8.14457757 10.8199833,7.12295803 10.8199833,5.81755541 C10.8199833,4.51215051 9.80029862,3.49053324 8.49736835,3.49053324 Z M8.49736835,0 C4.64522985,0 1.30293254,2.41216072 0,5.81755541 C1.30293254,9.22295009 4.64522985,11.6351108 8.49736835,11.6351108 C12.3495069,11.6351108 15.6918042,9.22295009 16.9947367,5.81755541 C15.6918042,2.41216072 12.3495069,0 8.49736835,0 Z M8.49736835,9.70538678 C6.34469671,9.70538678 4.64522985,8.00268376 4.64522985,5.81755541 C4.64522985,3.63242706 6.34470805,1.92972403 8.49736835,1.92972403 C10.65004,1.92972403 12.3495069,3.63242706 12.3495069,5.81755541 C12.3495068,8.00268376 10.6500287,9.70538678 8.49736835,9.70538678 L8.49736835,9.70538678 Z" id="Shape"></path>
        </g>
    </g>
</svg>