<?xml version="1.0" encoding="UTF-8"?>
<svg width="38px" height="38px" viewBox="0 0 38 38" version="1.1" xmlns="http://www.w3.org/2000/svg" xmlns:xlink="http://www.w3.org/1999/xlink">
    <!-- Generator: Sketch 53 (72520) - https://sketchapp.com -->
    <title>icon/通用/登录_用户</title>
    <desc>Created with Sketch.</desc>
    <g id="icon/通用/登录_用户" stroke="none" stroke-width="1" fill="none" fill-rule="evenodd">
        <g id="Group-3">
            <rect id="Rectangle-4" x="0" y="0" width="38" height="38"></rect>
            <g id="用户" transform="translate(6.500000, 5.000000)" fill="#34495E" fill-rule="nonzero">
                <path d="M25,26.6963056 L25,26.6963056 L25,26.6514072 L25,26.606372 C25,26.5168491 25,26.4269155 24.9559735,26.3368451 C24.3846999,21.7973219 21.4409478,18.0224668 17.4868884,16.2695152 C19.8154742,14.6515324 21.3094304,11.9548396 21.3094304,8.89896016 C21.3094304,4.00005867 17.354809,0 12.5219597,0 C7.68903015,0 3.7348102,4.00005867 3.7348102,8.89896016 C3.7348102,11.9548396 5.27225759,14.6515324 7.55713807,16.2695152 C3.60273077,17.9774315 0.702871329,21.7078264 0.0879726624,26.202287 C0.0440264769,26.3368451 0,26.4718139 0,26.606372 L0,26.7414777 C0,27.4605355 0.571273647,28 1.2742788,28 C1.97723042,28 2.54837024,27.4156372 2.54837024,26.7414777 L2.54837024,26.7414777 L2.59204879,26.7414777 C3.16318862,21.7528343 7.20546153,17.9325332 12.1703902,17.7977013 C12.3020682,17.7977013 12.3898535,17.7977013 12.5217991,17.7977013 C12.6533433,17.7977013 12.7415301,17.7977013 12.8730742,17.7977013 C17.8378959,17.9774315 21.9243023,21.7976231 22.4954421,26.6963056 L22.5393348,26.6963056 L22.5393348,26.6963056 C22.5393348,27.4156372 23.1107422,27.9549648 23.8138277,27.9549648 C24.4287531,28 25,27.4156372 25,26.6963056 L25,26.6963056 Z M6.2388328,8.89876852 C6.2388328,5.393276 9.05109427,2.51671612 12.5219597,2.51671612 C15.992959,2.51671612 18.8051402,5.34837767 18.8051402,8.89876852 C18.8051402,12.2246677 16.3007161,14.9214973 13.0932334,15.2359226 C12.9176627,15.2359226 12.697798,15.2359226 12.5219597,15.2359226 C12.3463891,15.2359226 12.1265243,15.2359226 11.9505522,15.2359226 C8.74325686,14.9214973 6.2388328,12.2246403 6.2388328,8.89876852 L6.2388328,8.89876852 Z" id="Shape"></path>
            </g>
        </g>
    </g>
</svg>