<?xml version="1.0" encoding="UTF-8"?>
<svg width="100px" height="60px" viewBox="0 0 100 60" version="1.1" xmlns="http://www.w3.org/2000/svg" xmlns:xlink="http://www.w3.org/1999/xlink">
  <title>icon/100*60/应用详情-接口添加</title>
  <desc>Created with Sketch.</desc>
  <g id="icon/100*60/应用详情-接口添加" stroke="none" stroke-width="1" fill="none" fill-rule="evenodd">
      <g id="Group-4-Copy" transform="translate(49.500000, 30.000000) rotate(-90.000000) translate(-49.500000, -30.000000) translate(37.500000, -7.500000)" fill="#A972CC">
          <path d="M9.43596549,10.6598978 L9.43596549,2.51625747 C9.43596549,1.12656684 10.5625323,-4.10083148e-13 11.952223,-4.1033843e-13 C13.3419136,-4.10593712e-13 14.4684804,1.12656684 14.4684804,2.51625747 L14.4684804,10.6598978 C19.861244,11.8154264 23.9044459,16.6089356 23.9044459,22.3467853 L23.9044459,35.0816479 L-1.98951966e-13,35.0816479 L-1.98951966e-13,22.3467853 C-1.9965465e-13,16.6089356 4.04320192,11.8154264 9.43596549,10.6598978 Z M8.80690113,64.9903016 C4.444626,63.7151715 1.25812873,59.6850758 1.25812873,54.9107337 L1.25812873,43.9400621 L5.73147534,43.9400621 L5.73147534,38.0584731 C5.73147534,37.1320127 6.4825199,36.3809682 7.40898031,36.3809682 C8.33544073,36.3809682 9.08648529,37.1320127 9.08648529,38.0584731 L9.08648529,43.9400621 L13.5598319,43.9400621 L13.5598319,38.0584731 C13.5598319,37.1320127 14.3108765,36.3809682 15.2373369,36.3809682 C16.1637973,36.3809682 16.9148418,37.1320127 16.9148418,38.0584731 L16.9148418,43.9400621 L22.2581287,43.9400621 L22.2581287,54.9107337 C22.2581287,59.9971544 18.6414408,64.2388524 13.8394161,65.2044763 L13.8394161,72.4821862 C13.8394161,73.8718768 12.7128492,74.9984437 11.3231586,74.9984437 C9.93346797,74.9984437 8.80690113,73.8718768 8.80690113,72.4821862 L8.80690113,64.9903016 Z" id="Combined-Shape"></path>
      </g>
  </g>
</svg>          