<?xml version="1.0" encoding="UTF-8"?>
<svg width="100px" height="60px" viewBox="0 0 100 60" version="1.1" xmlns="http://www.w3.org/2000/svg" xmlns:xlink="http://www.w3.org/1999/xlink">
  <!-- Generator: Sketch 53 (72520) - https://sketchapp.com -->
  <title>icon/100*60/应用详情-接口过滤</title>
  <desc>Created with Sketch.</desc>
  <g id="icon/100*60/应用详情-接口过滤" stroke="none" stroke-width="1" fill="none" fill-rule="evenodd">
      <g id="过滤" transform="translate(9.000000, 2.000000)" fill="#A972CC">
          <g id="Group" transform="translate(0.515361, 0.511010)">
              <path d="M6.25038259,8.31082141 C6.25038251,8.31054964 6.25038248,8.31027786 6.25038248,8.31000609 C6.25038248,6.61185209 7.6387265,5.23522902 9.35133907,5.23522902 C11.0639516,5.23522902 12.4522957,6.61185209 12.4522957,8.31000609 L12.4522956,8.31041375 C12.4522957,8.31068552 12.4522957,8.3109573 12.4522957,8.31122907 C12.4522957,10.0093831 11.0639517,11.3860064 9.35133915,11.3860061 C7.63872658,11.3860061 6.2503823,10.0093831 6.25038256,8.31122907 L6.25038259,8.31082187 Z M0.048453043,17.5351147 C0.048453043,15.8369607 1.43679707,14.4603377 3.14940964,14.4603377 C4.86202221,14.4603377 6.25036623,15.8369607 6.25036623,17.5351148 C6.25036623,19.2332688 4.86202221,20.6098921 3.14940964,20.6098919 C1.43679707,20.6098919 0.0484527844,19.2332688 0.048453043,17.5351152 Z M9.35134463,23.6846797 C9.35134456,23.6844079 9.35134452,23.6841362 9.35134452,23.6838644 C9.35134452,21.9857104 10.7396885,20.6090873 12.4523011,20.6090873 C14.1649137,20.6090873 15.5532577,21.9857104 15.5532577,23.6838644 L15.5532577,23.684272 C15.5532578,23.6845438 15.5532578,23.6848156 15.5532578,23.6850874 C15.5532578,25.3832414 14.1649138,26.7598647 12.4523012,26.7598644 C10.7396886,26.7598644 9.35134435,25.3832414 9.3513446,23.6850874 L9.35134463,23.6846802 Z M3.14942054,45.2081029 C3.14942054,43.5099489 4.53776457,42.1333258 6.25037713,42.1333258 C7.9629897,42.1333258 9.35133373,43.5099489 9.35133373,45.208103 C9.35133373,46.906257 7.9629897,48.2828803 6.25037713,48.2828801 C4.53776457,48.2828801 3.14942028,46.906257 3.14942054,45.2081034 Z M6.25038259,34.4463925 C6.25038259,31.8991642 8.33289863,29.8342296 10.9018148,29.8342296 C13.4707309,29.8342296 15.5532469,31.8991642 15.5532469,34.4463925 C15.5532469,36.9936208 13.4707309,39.058555 10.9018148,39.0585554 C8.33289863,39.0585554 6.25038297,36.9936208 6.25038259,34.4463918 Z" id="Combined-Shape"></path>
              <path d="M29.9570624,23.6846806 C29.9570624,21.9865266 31.3454064,20.6099036 33.058019,20.6099036 C34.7706316,20.6099036 36.1589756,21.9865266 36.1589756,23.6846806 C36.1589756,25.3828346 34.7706316,26.7594574 33.058019,26.7594577 C31.3454064,26.7594577 29.9570627,25.3828346 29.9570624,23.6846802 Z M39.2599485,32.9090271 C39.2599485,32.9087553 39.2599484,32.9084836 39.2599484,32.9082118 C39.2599484,31.2100578 40.6482925,29.8334347 42.360905,29.8334347 C44.0735176,29.8334347 45.4618616,31.2100578 45.4618616,32.9082118 L45.4618616,32.9086195 C45.4618617,32.9088912 45.4618617,32.909163 45.4618617,32.9094348 C45.4618617,34.6075888 44.0735177,35.9842121 42.3609051,35.9842118 C40.6482925,35.9842118 39.2599482,34.6075888 39.2599485,32.9094348 L39.2599485,32.9090276 Z M53.4846394,32.5645826 C53.4846393,32.5643108 53.4846393,32.564039 53.4846393,32.5637673 C53.4846393,30.8656133 54.8729833,29.4889902 56.5855959,29.4889902 C58.2982085,29.4889902 59.6865525,30.8656133 59.6865525,32.5637673 L59.6865525,32.5641749 C59.6865525,32.5644467 59.6865526,32.5647185 59.6865526,32.5649902 C59.6865526,34.2631442 58.2982086,35.6397676 56.585596,35.6397673 C54.8729834,35.6397673 53.4846391,34.2631442 53.4846394,32.5649902 L53.4846394,32.564583 Z M42.4846394,23.5645826 C42.4846393,23.5643108 42.4846393,23.564039 42.4846393,23.5637673 C42.4846393,21.8656133 43.8729833,20.4889902 45.5855959,20.4889902 C47.2982085,20.4889902 48.6865525,21.8656133 48.6865525,23.5637673 L48.6865525,23.5641749 C48.6865525,23.5644467 48.6865526,23.5647185 48.6865526,23.5649902 C48.6865526,25.2631442 47.2982086,26.6397676 45.585596,26.6397673 C43.8729834,26.6397673 42.4846391,25.2631442 42.4846394,23.5649902 L42.4846394,23.564583 Z" id="Combined-Shape"></path>
              <path d="M22.0767786,54.0792032 L37.158932,45.7190488 L37.158932,39.0585385 L34.0579754,39.0585385 L34.0579754,42.1333258 L24.7550892,47.6679235 L24.7550892,7.69582214 L34.0579754,13.2304198 L34.0579754,17.5351044 L37.158932,17.5351044 L37.158932,9.76994137 L22.1195965,0.478625215 C21.6262536,0.173837462 20.9792408,0.326691645 20.674453,0.82003459 C20.5719964,0.9858755 20.5177295,1.17696427 20.5177295,1.37190164 L20.5177295,53.160852 C20.5177295,53.740751 20.9878305,54.210852 21.5677295,54.210852 C21.7458316,54.210852 21.9210069,54.1655487 22.0767786,54.0792032 Z" id="Path"></path>
          </g>
      </g>
  </g>
</svg>         